<?xml version="1.0" encoding="UTF-8"?>
<svg width="242px" height="242px" viewBox="0 0 242 242" version="1.1" xmlns="http://www.w3.org/2000/svg" xmlns:xlink="http://www.w3.org/1999/xlink">
    <!-- Generator: Sketch 53 (72520) - https://sketchapp.com -->
    <title>patterns/perks</title>
    <desc>Created with Sketch.</desc>
    <defs>
        <rect id="path-1" x="1" y="0" width="242" height="242"></rect>
    </defs>
    <g id="patterns/perks" stroke="none" stroke-width="1" fill="none" fill-rule="evenodd">
        <mask id="mask-2" fill="white">
            <use xlink:href="#path-1"></use>
        </mask>
        <g id="Rectangle"></g>
        <g id="Icon-Tile" mask="url(#mask-2)" fill="#2D2D32" fill-rule="nonzero">
            <g transform="translate(-19.000000, 8.000000)">
                <path d="M46.7013644,204.20184 C43.9708088,197.732406 37.6277972,193.529129 30.6040933,193.534779 L30.6040933,193.534779 C25.969362,193.530939 21.5233536,195.369875 18.2461026,198.646228 C14.9688515,201.922581 13.1294122,206.367371 13.1332526,211.000832 C13.1335711,214.741419 15.4388612,218.095252 18.9316439,219.436575 C18.9340537,223.254052 22.0412126,226.358914 25.8597359,226.358914 L35.3484507,226.358914 C39.166974,226.358914 42.2741329,223.254052 42.2765427,219.436575 C45.7693254,218.095252 48.0746155,214.741419 48.074934,211.000832 C48.0791297,208.665212 47.6119537,206.352751 46.7013644,204.20184 Z M35.3484507,225.154358 L25.8597359,225.154358 C22.7003277,225.150906 20.1399825,222.591263 20.1365295,219.43272 L20.1365295,215.216776 C20.1389196,213.221994 21.7558573,211.605499 23.7511862,211.60311 L37.4570004,211.60311 C39.4523294,211.605499 41.069267,213.221994 41.0716571,215.216776 L41.0716571,219.43272 C41.0682041,222.591263 38.5078589,225.150906 35.3484507,225.154358 L35.3484507,225.154358 Z M42.2765427,218.132282 L42.2765427,215.216776 C42.2736209,212.556957 40.1175489,210.401476 37.4570004,210.398555 L23.7511862,210.398555 C21.0906377,210.401476 18.9345657,212.556957 18.9316439,215.216776 L18.9316439,218.132282 C16.1308844,216.86533 14.3332005,214.074602 14.3381382,211.001314 C14.3376283,209.594452 14.5198855,208.193481 14.8803367,206.833552 C14.5882724,209.132326 15.5729049,211.225361 17.3657746,211.803548 C17.6787504,211.904505 18.0056386,211.95572 18.3345026,211.955322 C20.1659287,211.955322 22.0277179,210.401927 22.7776386,208.078099 C23.6605788,205.341349 22.6696809,202.572317 20.5640229,201.89343 C20.2510472,201.792472 19.924159,201.741258 19.5952949,201.741656 C18.2275088,201.741656 16.8447821,202.608936 15.91943,204.01152 C18.5388512,198.533202 24.1362676,194.739816 30.6040933,194.739816 C37.3418134,194.739816 43.1349032,198.856505 45.6015449,204.706307 C44.7099296,202.897547 43.1093596,201.741656 41.5285497,201.741656 C41.1996856,201.741258 40.8727974,201.792472 40.5598217,201.89343 C38.4541637,202.572317 37.4632658,205.341349 38.346206,208.078099 C39.0961268,210.401927 40.9559881,211.955322 42.789342,211.955322 C43.1182061,211.95572 43.4450943,211.904505 43.75807,211.803548 C45.7634815,211.156943 46.7577531,208.614849 46.0854269,206.010118 C46.6063704,207.62261 46.8711277,209.306805 46.8700484,211.001314 C46.8749861,214.074602 45.0773022,216.86533 42.2765427,218.132282 Z" id="Shape"></path>
                <ellipse id="Oval" cx="30.6040933" cy="201.514717" rx="6.2731162" ry="6.3239159"></ellipse>
                <rect id="Rectangle" x="25.9652839" y="214.20495" width="3.16258363" height="5.27017083" rx="1.58129181"></rect>
                <rect id="Rectangle" x="32.2909331" y="214.20495" width="3.16258363" height="5.27017083" rx="1.58129181"></rect>
                <path d="M38.9390097,70.8582567 C38.8715307,69.9142385 38.0644288,69.195587 37.1186686,69.2374069 C35.8623331,69.2289671 34.7448639,68.4373708 34.3204423,67.2551905 L34.1917606,66.896233 L33.8124626,66.8586509 C31.9739199,66.6814502 30.5729651,65.1334508 30.5799956,63.2869032 L30.5799956,63.1765659 C30.5848151,61.8823916 29.5433121,60.8190101 28.2574582,60.8060009 L28.1461268,60.8060009 C25.2765233,60.8057453 22.5243709,61.9452323 20.4952097,63.9737471 C18.4660485,66.002262 17.3261266,68.7536095 17.3262544,71.6224266 L17.3262544,85.4989049 C17.3297071,88.4911332 19.7551911,90.9159526 22.7482394,90.9194043 L24.5073724,90.9194043 L24.5073724,94.4848883 C24.5073724,96.4806611 26.1257093,98.0985545 28.122029,98.0985545 C30.1183488,98.0985545 31.7366857,96.4806611 31.7366857,94.4848883 L31.7366857,90.9194043 L33.5440141,90.9194043 C36.5370624,90.9159526 38.9625465,88.4911332 38.9659991,85.4989049 L38.9659991,71.6224266 C38.9659991,71.3685064 38.956842,71.1112133 38.9390097,70.8582567 Z M30.5318002,94.4848883 C30.5318002,95.8154035 29.4529089,96.8939991 28.122029,96.8939991 C26.7911492,96.8939991 25.7122579,95.8154035 25.7122579,94.4848883 L25.7122579,90.9194043 L30.5318002,90.9194043 L30.5318002,94.4848883 Z M37.7611136,85.4989049 C37.7584576,87.8262058 35.8719528,89.7121937 33.5440141,89.7148489 L22.7482394,89.7148489 C20.4203007,89.7121937 18.5337959,87.8262058 18.53114,85.4989049 L18.53114,71.6224266 C18.53114,66.3223828 22.8446303,62.0100745 28.1461268,62.0100745 L28.2454093,62.0100745 C28.8764747,62.0221985 29.3802443,62.539796 29.37511,63.1707841 L29.37511,63.2864214 C29.3745048,65.6095971 31.0396495,67.5991028 33.3271347,68.0082786 C34.0147446,69.4910197 35.4997865,70.4408102 37.1345731,70.4434078 L37.1683099,70.4434078 L37.1837324,70.4434078 C37.4722576,70.4349151 37.7162279,70.6552356 37.7370158,70.9430574 C37.7529203,71.1680683 37.7611136,71.396452 37.7611136,71.6224266 L37.7611136,85.4989049 Z" id="Shape"></path>
                <path d="M26.3147007,76.4647394 C25.9819807,76.4647394 25.7122579,76.7343883 25.7122579,77.0670171 L25.7122579,81.8852387 C25.7122579,82.8831251 24.9030895,83.6920718 23.9049296,83.6920718 C22.9067697,83.6920718 22.0976012,82.8831251 22.0976012,81.8852387 L22.0976012,77.0670171 C22.0976012,76.7343883 21.8278784,76.4647394 21.4951585,76.4647394 C21.1624385,76.4647394 20.8927157,76.7343883 20.8927157,77.0670171 L20.8927157,81.8852387 C20.8927157,83.5483827 22.2413298,84.8966272 23.9049296,84.8966272 C25.5685294,84.8966272 26.9171435,83.5483827 26.9171435,81.8852387 L26.9171435,77.0670171 C26.9171435,76.9072831 26.853672,76.7540914 26.7406921,76.6411424 C26.6277121,76.5281935 26.4744785,76.4647394 26.3147007,76.4647394 Z" id="Path"></path>
                <path d="M91.5423856,15.1979413 C86.0549745,9.71183211 77.4552507,8.86505822 71.0026914,13.1754953 C64.5501322,17.4859324 62.0419688,25.7529945 65.0121608,32.9206557 C67.9823528,40.088317 75.6036126,44.1601688 83.2148786,42.6459205 C90.8261447,41.1316722 96.3074509,34.4530873 96.3065031,26.6947 C96.3176552,22.3802313 94.6022133,18.2405304 91.5423856,15.1979413 Z M90.4989547,33.3221638 C90.8387324,35.3034166 90.0704974,37.1911958 88.4439018,38.3726237 C86.8173063,39.5540517 84.7839415,39.7010074 83.0045665,38.7657906 C81.1490657,37.7900818 78.9320302,37.7900818 77.0765295,38.7657906 C75.2971545,39.7010074 73.2637896,39.5540517 71.6371941,38.3726237 C70.0105986,37.1911958 69.2423636,35.3034166 69.5821413,33.3221638 C69.9374146,31.2562097 69.2524545,29.1478316 67.7507152,27.6848445 C66.311118,26.2817784 65.8228983,24.3029347 66.4441373,22.3915462 C67.0653763,20.4801577 68.6240163,19.1662286 70.6135233,18.8776172 C72.6881332,18.5760773 74.4815434,17.2734139 75.4094498,15.3940429 C76.2991373,13.5915462 78.0307989,12.5156373 80.0410299,12.5156373 C82.051261,12.5156373 83.7829225,13.5915462 84.67261,15.3940429 L84.67261,15.3940429 C85.6005164,17.2734139 87.3939267,18.5760773 89.4685365,18.8776172 C91.4580436,19.1667105 93.0166835,20.4801577 93.6379225,22.3915462 C94.2591615,24.3029347 93.7709419,26.2817784 92.3313446,27.6848445 C90.8292551,29.1476428 90.1439261,31.2560469 90.4989547,33.3221638 Z M93.2779027,19.5198861 C93.1660893,19.4052124 93.0499384,19.2939115 92.9289679,19.1874288 C92.002995,18.3781993 90.8613724,17.8560128 89.6434859,17.6846255 C87.961133,17.4402449 86.5068257,16.3838231 85.7545973,14.8597021 C85.1134951,13.5284868 84.0203811,12.4681152 82.6700902,11.8675865 C87.2510651,12.6794569 91.1250132,15.564608 93.2779027,19.5198861 Z M77.4119696,11.8695138 C76.0616788,12.4700425 74.9685648,13.5304141 74.3274626,14.8616294 C73.5749386,16.3847525 72.1211338,17.4403504 70.4395379,17.6846255 C69.2211822,17.8551033 68.0788643,18.3766318 67.1521281,19.1855015 C67.0311576,19.2919842 66.9150066,19.4032852 66.8031932,19.5179588 C68.9560827,15.564608 72.8300308,12.6794569 77.4119696,11.8695138 L77.4119696,11.8695138 Z M64.9794784,26.6947 C64.9796193,26.1509784 65.0090612,25.6076593 65.0676761,25.0671047 C65.0864723,25.1784056 65.1071963,25.2897065 65.1322579,25.4000438 C65.4066176,26.598983 66.024041,27.6921943 66.9092232,28.5463425 C68.126908,29.7324279 68.6824394,31.4418136 68.3946061,33.1169076 C68.1804873,34.3280952 68.323842,35.575408 68.8071589,36.7064827 C68.8086332,36.7106204 68.810405,36.7146461 68.8124604,36.7185283 C66.3417254,33.964329 64.9765798,30.3942664 64.9794784,26.6947 Z M74.1496215,40.5519054 C74.3216791,40.5663601 74.4937368,40.5740692 74.6662764,40.5740692 C75.7022818,40.5705935 76.7218762,40.3151033 77.6370423,39.829654 C79.1417865,39.0389805 80.9393095,39.0389805 82.4440537,39.829654 C83.5138653,40.3988983 84.7244498,40.6497106 85.9324384,40.5523872 C82.1678708,42.1523848 77.9141891,42.1523848 74.1496215,40.5523872 L74.1496215,40.5519054 Z M91.2686356,36.7185283 C91.270691,36.7146461 91.2724628,36.7106204 91.2739371,36.7064827 C91.757254,35.575408 91.9006087,34.3280952 91.6864899,33.1169076 C91.3986566,31.4418136 91.954188,29.7324279 93.1718728,28.5463425 C94.0570549,27.6921943 94.6744783,26.598983 94.948838,25.4000438 C94.9738996,25.2897065 94.9970335,25.1784056 95.0134199,25.0671047 C95.4745327,29.3060971 94.11329,33.541432 91.2686356,36.7185283 L91.2686356,36.7185283 Z" id="Shape"></path>
                <path d="M80.040548,22.4806833 C77.7115082,22.4806833 75.8234485,24.3682257 75.8234485,26.6966272 C75.8234485,29.0250288 77.7115082,30.9125712 80.040548,30.9125712 C82.3695877,30.9125712 84.2576474,29.0250288 84.2576474,26.6966272 C84.2549915,24.3693264 82.3684867,22.4833385 80.040548,22.4806833 Z M80.040548,29.7080158 C78.3769482,29.7080158 77.0283341,28.3597712 77.0283341,26.6966272 C77.0283341,25.0334833 78.3769482,23.6852387 80.040548,23.6852387 C81.7041478,23.6852387 83.0527619,25.0334833 83.0527619,26.6966272 C83.0509026,28.3590007 81.703377,29.706157 80.040548,29.7080158 L80.040548,29.7080158 Z" id="Shape"></path>
                <path d="M71.0039063,23.0810337 C71.0039063,22.7484049 70.7341834,22.478756 70.4014635,22.478756 C70.0687435,22.478756 69.7990207,22.7484049 69.7990207,23.0810337 L69.7990207,24.2855891 C69.7990207,24.6182179 70.0687435,24.8878668 70.4014635,24.8878668 C70.7341834,24.8878668 71.0039063,24.6182179 71.0039063,24.2855891 L71.0039063,23.0810337 Z" id="Path"></path>
                <path d="M76.4258913,20.0715725 C76.5857226,20.0718148 76.7390564,20.0083479 76.8519388,19.8952256 L78.0568244,18.6906702 C78.2090365,18.5384998 78.2684822,18.3167065 78.2127687,18.1088379 C78.1570552,17.9009692 77.9946467,17.7386053 77.7867211,17.682907 C77.5787955,17.6272088 77.3569414,17.6866381 77.2047293,17.8388086 L75.9998437,19.043364 C75.8274989,19.2156162 75.7759345,19.4747062 75.8692007,19.6997917 C75.9624669,19.9248771 76.182191,20.0716179 76.4258913,20.0715725 L76.4258913,20.0715725 Z" id="Path"></path>
                <path d="M84.0812522,19.043364 C83.8459526,18.8081289 83.4644567,18.8081289 83.2291571,19.043364 C82.9938576,19.2785991 82.9938576,19.6599905 83.2291571,19.8952256 L84.4340427,21.099781 C84.6693423,21.335016 85.0508382,21.335016 85.2861377,21.0997809 C85.5214373,20.8645459 85.5214373,20.4831545 85.2861378,20.2479194 L84.0812522,19.043364 Z" id="Path"></path>
                <path d="M89.6796325,22.4806833 L88.4747469,22.4806833 C88.142027,22.4806833 87.8723041,22.7503322 87.8723041,23.082961 C87.8723041,23.4155898 88.142027,23.6852387 88.4747469,23.6852387 L89.6796325,23.6852387 C90.0123524,23.6852387 90.2820753,23.4155898 90.2820753,23.082961 C90.2820753,22.7503322 90.0123524,22.4806833 89.6796325,22.4806833 Z" id="Path"></path>
                <path d="M87.2698614,28.5034604 C86.9371414,28.5034604 86.6674186,28.7731093 86.6674186,29.1057381 L86.6674186,30.3102935 C86.6674186,30.6429223 86.9371414,30.9125712 87.2698614,30.9125712 C87.6025813,30.9125712 87.8723041,30.6429223 87.8723041,30.3102935 L87.8723041,29.1038108 C87.8712418,28.7719349 87.6018299,28.5034587 87.2698614,28.5034604 Z" id="Path"></path>
                <path d="M86.8438138,34.7025843 L85.6389283,35.9071397 C85.4036287,36.1423748 85.4036287,36.5237662 85.6389283,36.7590013 C85.8742278,36.9942364 86.2557238,36.9942364 86.4910233,36.7590013 L87.6959089,35.5544459 C87.9312084,35.3192108 87.9312084,34.9378194 87.6959089,34.7025843 C87.4606093,34.4673492 87.0791134,34.4673492 86.8438138,34.7025843 L86.8438138,34.7025843 Z" id="Path"></path>
                <path d="M75.2210057,33.321682 C74.8882858,33.321682 74.6185629,33.5913309 74.6185629,33.9239597 L74.6185629,35.1285151 C74.6185629,35.4611439 74.8882858,35.7307928 75.2210057,35.7307928 C75.5537257,35.7307928 75.8234485,35.4611439 75.8234485,35.1285151 L75.8234485,33.9220324 C75.8223862,33.5901565 75.5529743,33.3216803 75.2210057,33.321682 Z" id="Path"></path>
                <path d="M72.8112346,30.9125712 L71.606349,30.9125712 C71.2736291,30.9125712 71.0039062,31.1822201 71.0039062,31.5148489 C71.0039062,31.8474777 71.2736291,32.1171266 71.606349,32.1171266 L72.8112346,32.1171266 C73.1439546,32.1171266 73.4136774,31.8474777 73.4136774,31.5148489 C73.4136774,31.1822201 73.1439546,30.9125712 72.8112346,30.9125712 Z" id="Path"></path>
                <path d="M73.5900726,25.066141 L72.3851871,26.2706965 C72.1498875,26.5059315 72.1498875,26.887323 72.3851871,27.122558 C72.6204866,27.3577931 73.0019826,27.3577931 73.2372821,27.122558 L74.4421677,25.9180026 C74.5943798,25.7658322 74.6538254,25.544039 74.5981119,25.3361703 C74.5423984,25.1283017 74.37999,24.9659378 74.1720644,24.9102396 C73.9641388,24.8545413 73.7422847,24.9139706 73.5900726,25.066141 L73.5900726,25.066141 Z" id="Path"></path>
                <path d="M80.4665955,33.4980289 C80.231296,33.2627938 79.8498,33.2627938 79.6145004,33.4980289 C79.3792009,33.733264 79.3792009,34.1146554 79.6145004,34.3498905 L80.819386,35.5544459 C80.9715981,35.7066163 81.1934521,35.7660456 81.4013778,35.7103474 C81.6093034,35.6546492 81.7717118,35.4922853 81.8274253,35.2844166 C81.8831388,35.0765479 81.8236932,34.8547547 81.6714811,34.7025843 L80.4665955,33.4980289 Z" id="Path"></path>
                <path d="M108.411265,219.962856 L107.20638,221.167411 C107.049814,221.318672 106.98707,221.542619 107.042262,221.753177 C107.097455,221.963735 107.261995,222.128137 107.472642,222.183195 C107.683289,222.238253 107.907261,222.175399 108.058475,222.018791 L109.26336,220.814236 C109.419926,220.662975 109.482671,220.439028 109.427478,220.22847 C109.372286,220.017912 109.207745,219.85351 108.997098,219.798452 C108.786451,219.743394 108.562479,219.806248 108.411265,219.962856 Z" id="Path"></path>
                <path d="M102.386838,221.144634 L101.181952,222.34919 C101.025386,222.500451 100.962642,222.724397 101.017834,222.934955 C101.073027,223.145513 101.237567,223.309915 101.448214,223.364973 C101.658861,223.420032 101.882833,223.357178 102.034047,223.200569 L103.238933,221.996014 C103.395498,221.844753 103.458243,221.620807 103.40305,221.410249 C103.347858,221.199691 103.183318,221.035288 102.972671,220.98023 C102.762024,220.925172 102.538051,220.988026 102.386838,221.144634 Z" id="Path"></path>
                <path d="M118.05035,209.121857 L116.845464,210.326413 C116.688899,210.477674 116.626154,210.70162 116.681347,210.912178 C116.736539,211.122736 116.901079,211.287138 117.111726,211.342196 C117.322373,211.397255 117.546346,211.334401 117.697559,211.177792 L118.902445,209.973237 C119.059011,209.821976 119.121755,209.59803 119.066563,209.387472 C119.01137,209.176914 118.84683,209.012511 118.636183,208.957453 C118.425536,208.902395 118.201564,208.965249 118.05035,209.121857 Z" id="Path"></path>
                <path d="M122.869892,222.018791 C122.982751,222.132011 123.136056,222.195651 123.29594,222.195651 C123.455824,222.195651 123.609129,222.132011 123.721987,222.018791 L124.926873,220.814236 C125.083438,220.662975 125.146183,220.439028 125.09099,220.22847 C125.035798,220.017912 124.871258,219.85351 124.660611,219.798452 C124.449964,219.743394 124.225992,219.806248 124.074778,219.962856 L122.869892,221.167411 C122.756907,221.280283 122.693426,221.433419 122.693426,221.593101 C122.693426,221.752784 122.756907,221.90592 122.869892,222.018791 Z" id="Path"></path>
                <path d="M118.002154,216.397372 L116.797269,217.601927 C116.640703,217.753188 116.577959,217.977135 116.633151,218.187693 C116.688344,218.398251 116.852884,218.562653 117.063531,218.617711 C117.274178,218.672769 117.49815,218.609915 117.649364,218.453307 L118.85425,217.248752 C119.010815,217.097491 119.07356,216.873544 119.018367,216.662986 C118.963175,216.452428 118.798634,216.288026 118.587987,216.232968 C118.377341,216.17791 118.153368,216.240764 118.002154,216.397372 L118.002154,216.397372 Z" id="Path"></path>
                <path d="M109.567956,212.735523 L108.36307,213.940079 C108.206504,214.09134 108.14376,214.315286 108.198952,214.525844 C108.254145,214.736402 108.418685,214.900804 108.629332,214.955863 C108.839979,215.010921 109.063951,214.948067 109.215165,214.791459 L110.420051,213.586903 C110.576616,213.435642 110.639361,213.211696 110.584168,213.001138 C110.528976,212.79058 110.364436,212.626178 110.153789,212.571119 C109.943142,212.516061 109.719169,212.578915 109.567956,212.735523 L109.567956,212.735523 Z" id="Path"></path>
                <path d="M128.072106,215.045379 C127.238389,212.95272 126.014899,211.0373 124.466607,209.400832 C122.949341,207.788915 121.128098,206.492993 119.107757,205.587692 C117.040973,204.661557 114.801215,204.184168 112.536312,204.187035 C111.869642,204.186976 111.203603,204.228009 110.541985,204.309899 C107.514383,203.865237 104.422722,204.291741 101.628724,205.539509 C99.6083828,206.444811 97.7871404,207.740733 96.2698746,209.35265 C94.7215821,210.989118 93.498092,212.904538 92.664375,214.997197 C91.7865696,217.19259 91.3382802,219.535978 91.3438204,221.900263 L91.3438204,222.586378 C91.3391353,223.386799 91.6337545,224.160092 92.16989,224.754577 C92.610343,225.246852 93.2077867,225.571372 93.8605854,225.67293 L93.8605854,225.72834 C93.8976959,225.72834 93.9348063,225.72834 93.9719168,225.72834 L126.402135,225.753395 L126.45515,225.753395 C127.201643,225.751442 127.917238,225.455206 128.446585,224.928997 C129.056508,224.321118 129.397866,223.494589 129.394588,222.633596 L129.394588,221.947481 C129.399392,219.583395 128.95045,217.240342 128.072106,215.045379 L128.072106,215.045379 Z M104.331523,205.855103 C103.974242,206.129619 103.701219,206.498891 103.543528,206.920894 L103.500634,206.949321 C103.142996,206.716246 102.729459,206.583151 102.302978,206.563863 C102.961321,206.279379 103.639245,206.042517 104.331523,205.855103 L104.331523,205.855103 Z M100.632042,209.021156 C100.824603,208.962658 100.975227,208.811895 101.03351,208.619317 C101.190239,208.113427 101.657089,207.767628 102.186827,207.765046 C102.247807,207.764913 102.30871,207.769423 102.369005,207.778537 C101.743746,208.277866 101.153866,208.819931 100.603607,209.400832 C99.8871623,210.157801 99.2389864,210.976546 98.6666329,211.847525 C98.5335943,211.532872 98.5404503,211.176544 98.6854943,210.867238 C98.8305383,210.557933 99.1001278,210.324742 99.4271567,210.225712 C99.6197173,210.167213 99.7703412,210.01645 99.8286246,209.823872 C99.9455599,209.438971 100.246966,209.137829 100.632042,209.021156 Z M95.264518,219.40876 C94.9901855,219.10218 94.8913111,218.676843 95.002297,218.280741 C95.113283,217.884638 95.4187825,217.572542 95.8125,217.453044 C96.0050606,217.394546 96.1556845,217.243782 96.2139679,217.051205 C96.262449,216.893791 96.3424711,216.747889 96.4491615,216.622383 C95.9349592,218.350922 95.6751932,220.145088 95.6780348,221.948445 L95.6780348,222.63456 C95.6778167,222.843081 95.6453012,223.050311 95.5816439,223.248883 C95.3940585,223.364046 95.1781265,223.424771 94.9579952,223.424266 C94.3604096,223.424848 93.8526903,222.987455 93.7649836,222.396502 C93.6772768,221.80555 94.0360869,221.23962 94.6080964,221.06671 C94.800657,221.008212 94.9512809,220.857449 95.0095643,220.664871 C95.0611383,220.497292 95.1482652,220.342807 95.265,220.211958 C95.4695863,219.983146 95.4691709,219.63708 95.2640361,219.40876 L95.264518,219.40876 Z M96.6139899,216.09816 C96.5958163,215.985381 96.5456323,215.880191 96.4694036,215.795094 C96.1528743,215.441046 96.073942,214.934125 96.2678454,214.500641 C96.4617488,214.067157 96.8923005,213.78801 97.3672843,213.787823 C97.4289285,213.788029 97.4904702,213.792861 97.5513908,213.802278 C97.3528257,214.207972 97.1683979,214.622339 96.9981074,215.045379 C96.8583407,215.393254 96.7315867,215.744503 96.6139899,216.09816 Z M92.5472601,222.586378 L92.5472601,221.900263 C92.5472601,215.894831 95.5835717,210.625624 100.122135,207.723127 C100.072664,207.805313 100.028242,207.890431 99.9891153,207.978011 C99.4537937,208.218915 99.0251989,208.647392 98.7842298,209.182567 C97.9176991,209.568973 97.3613084,210.430641 97.3658385,211.379194 C97.3664771,211.811368 97.4829753,212.235472 97.7032064,212.607359 C96.7904929,212.478136 95.8840117,212.88078 95.368167,213.644546 C94.8523223,214.408312 94.8175108,215.399357 95.2784947,216.197416 C95.2389745,216.266316 95.202346,216.337144 95.1695731,216.409417 C94.5486041,216.689307 94.0751275,217.218855 93.8662929,217.867038 C93.6574583,218.515221 93.7327755,219.221484 94.0736092,219.811082 C94.0340889,219.879982 93.9974604,219.95081 93.9646875,220.023084 C93.0636106,220.428725 92.5015929,221.343241 92.5468754,222.330151 C92.592158,223.31706 93.235561,224.176298 94.17,224.497766 C93.2682636,224.433684 92.5472601,223.595313 92.5472601,222.586378 Z M128.187775,222.63456 C128.191891,223.171986 127.980671,223.688701 127.601237,224.069426 C127.288803,224.383637 126.862126,224.55753 126.419003,224.551248 L126.412738,224.551248 L96.2636092,224.528121 L96.3002377,224.476084 C96.3040933,224.470784 96.3079489,224.465002 96.3122865,224.459702 C96.3248173,224.440911 96.3378301,224.422602 96.349879,224.403811 C96.3677113,224.377792 96.3850616,224.351292 96.4014481,224.32431 C96.4027309,224.322821 96.4038612,224.321207 96.4048217,224.319492 C96.4949867,224.174825 96.5731633,224.023026 96.6385695,223.865615 C96.6453169,223.849233 96.6515823,223.832852 96.6568838,223.817433 C96.8052982,223.441875 96.8816526,223.041738 96.8819564,222.637933 L96.8819564,221.951818 C96.8819564,213.539203 102.844694,206.572054 110.534274,205.529873 L110.550178,205.527464 C111.208457,205.438004 111.871979,205.392612 112.536312,205.39159 C121.167148,205.39159 128.189221,212.818879 128.189221,221.948445 L128.187775,222.63456 Z" id="Shape"></path>
                <path d="M154.738633,141.162637 C149.251594,135.677169 140.652712,134.830509 134.200673,139.140436 C127.748635,143.450363 125.240401,151.716517 128.209894,158.883693 C131.179387,166.050869 138.799571,170.122932 146.410288,168.609593 C154.021005,167.096254 159.502588,160.418994 159.502751,152.661323 C159.514633,148.346144 157.799119,144.205574 154.738633,141.162637 Z M140.713765,156.036487 C141.099341,156.325568 141.531656,156.546393 141.991908,156.689356 L140.296875,167.42869 C137.57866,166.885331 135.063582,165.601373 133.029487,163.71866 L140.713765,156.036487 Z M143.23776,155.672711 C141.57416,155.672711 140.225546,154.324467 140.225546,152.661323 C140.225546,150.998179 141.57416,149.649934 143.23776,149.649934 C144.901359,149.649934 146.249974,150.998179 146.249974,152.661323 C146.248113,154.324072 144.900001,155.671384 143.236796,155.672711 L143.23776,155.672711 Z M145.761754,149.285677 C145.376179,148.996596 144.943864,148.775771 144.483611,148.632808 L146.18009,137.893473 C148.898305,138.436833 151.413383,139.720791 153.447478,141.603504 L145.761754,149.285677 Z M128.17669,152.661323 C128.17669,144.358563 134.933206,137.60438 143.23776,137.60438 C143.823213,137.604508 144.408165,137.638614 144.989663,137.706527 L143.293666,148.445861 L143.236796,148.445861 C141.641083,148.445951 140.182252,149.346965 139.468057,150.773537 C138.753861,152.200109 138.906783,153.907585 139.863116,155.184625 L132.177392,162.867762 C129.603249,160.092181 128.173818,156.44635 128.175726,152.661323 L128.17669,152.661323 Z M143.23776,167.718265 C142.652297,167.717979 142.067345,167.683712 141.485856,167.615637 L143.181853,156.876303 L143.23776,156.876303 C144.833569,156.876395 146.292606,155.975543 147.007089,154.549007 C147.721573,153.122471 147.568984,151.414874 146.612885,150.137538 L154.298609,142.454402 C156.872298,145.230352 158.301204,148.876334 158.298829,152.661323 C158.297865,160.963601 151.541349,167.718265 143.236796,167.718265 L143.23776,167.718265 Z" id="Shape"></path>
                <path d="M218.277069,24.5640823 L215.812837,12.6890933 C215.700622,11.8929597 215.215002,11.1982046 214.505777,10.8191415 C213.402556,10.2356313 212.036648,10.5803958 211.342711,11.6175208 L209.043308,14.9864214 C207.536891,14.4634827 205.953361,14.1970276 204.358713,14.1981603 C204.232441,14.1981603 204.105687,14.1981603 203.975559,14.2029785 L201.258301,10.2452913 C200.828665,9.61395369 200.115008,9.2353159 199.351208,9.23346474 C198.192108,9.23346474 197.20121,10.1151993 197.046985,11.2850635 L196.339958,16.6390714 C193.40323,18.6094609 191.261761,21.5583403 190.297216,24.9601402 L189.585852,25.1441962 C186.323985,25.9883487 184.04627,28.9814279 184.04627,32.4226018 C184.04627,35.6026281 186.019872,38.4521244 188.957383,39.5053876 L198.648037,42.9846255 C199.212581,43.2287315 199.792098,43.4366569 200.383072,43.6071397 L200.468378,43.6302672 L200.468378,43.6302672 C201.727352,43.9826518 203.028674,44.1609773 204.336061,44.1602716 L204.352447,44.1602716 C208.263506,44.1602716 211.939371,42.6006132 214.703378,39.7684625 C217.467386,36.9363119 218.985541,33.1790626 218.985541,29.1799387 C218.987295,27.614122 218.748349,26.0573344 218.277069,24.5640823 Z M213.84309,38.9286465 C211.307529,41.5266316 207.938187,42.9571616 204.353411,42.9571616 L204.338471,42.9571616 C203.114884,42.9575934 201.897246,42.7869827 200.720922,42.4502847 L200.652967,42.4314936 C200.127829,42.2774029 199.612756,42.0909009 199.110713,41.8730618 L199.092399,41.8653526 L189.364635,38.3706965 C186.904258,37.4875164 185.251155,35.0943057 185.251155,32.4206746 C185.251155,29.5297416 187.157766,27.0151117 189.887555,26.3082786 L191.279921,25.9483574 L191.369082,25.6062637 C192.249131,22.2383268 194.329245,19.3584757 197.226754,17.4967148 L197.461948,17.3454227 L198.241268,11.4411739 C198.316934,10.8682873 198.794069,10.4365747 199.349762,10.4365747 C199.716941,10.4374585 200.059856,10.6200558 200.265475,10.9241787 L203.362031,15.4349978 L203.699399,15.4186159 C203.932665,15.4070521 204.147135,15.4027157 204.361604,15.4022339 C205.969305,15.4010363 207.563385,15.6968633 209.06355,16.2748138 L209.508875,16.4458607 L212.343248,12.2949628 L212.34614,12.2901445 C212.696352,11.7652178 213.386561,11.5894895 213.945264,11.8830048 C214.315731,12.0832025 214.567594,12.4489754 214.62241,12.8664039 L214.625301,12.8890495 L217.104474,24.8382392 L217.110739,24.868594 L217.120379,24.8984669 C217.560736,26.2831014 217.784273,27.7274856 217.783066,29.1804205 C217.783066,32.8620237 216.383952,36.3258432 213.84309,38.9286465 Z" id="Shape"></path>
                <ellipse id="Oval" cx="196.920713" cy="25.2723609" rx="2.10854974" ry="2.16000876"></ellipse>
                <path d="M191.752236,32.2236093 C193.105563,32.6664039 194.459855,32.2057819 194.774089,31.1944371 C195.088323,30.1830924 194.248759,29.0035918 192.894467,28.5607972 C191.540176,28.1180026 190.188294,28.577661 189.872614,29.5894875 C189.556934,30.6013141 190.398908,31.7803329 191.752236,32.2236093 Z" id="Path"></path>
                <ellipse id="Oval" cx="205.776622" cy="27.4323697" rx="2.10854974" ry="2.16049058"></ellipse>
                <path d="M199.003719,33.4883925 C198.736424,33.2903644 198.359198,33.3462104 198.160781,33.6131844 C196.928424,35.2730618 194.897469,36.1668419 192.986521,35.8941305 C191.239919,35.643583 190.140581,34.5103373 189.749234,34.0347788 C189.537188,33.7800878 189.159171,33.7444875 188.903279,33.9551098 C188.647387,34.1657321 188.609755,34.5434488 188.819062,34.8003942 C189.301017,35.3843627 190.650489,36.7758651 192.815427,37.0866404 C193.105003,37.1280827 193.397164,37.1488536 193.689692,37.1487954 C194.592321,37.1457411 195.484472,36.9552511 196.309595,36.5893999 C197.429121,36.0935691 198.400525,35.315364 199.128545,34.3310994 C199.326628,34.0638772 199.270766,33.6867551 199.003719,33.4883925 L199.003719,33.4883925 Z" id="Path"></path>
                <path d="M28.9654489,4.02277705 C27.3320284,4.02045662 25.7250575,4.43506655 24.2967584,5.22733246 L14.3077751,5.22733246 C12.8794759,4.43506655 11.272505,4.02045662 9.63908451,4.02277705 C4.31541813,4.02277705 0,8.3370127 0,13.6592203 L0,23.3231275 C0,27.0374945 3.01462368,29.3574682 6.08804577,29.3574682 C7.89730194,29.3574682 9.72680018,28.5533071 10.9740977,26.7556286 L14.1549956,22.173018 C15.3165728,21.5555128 16.3401654,20.7079441 17.1633539,19.6819974 L21.4411796,19.6819974 C22.2644126,20.7083429 23.28818,21.5562484 24.4500198,22.1739816 L27.6309177,26.7565922 C28.8777333,28.5533071 30.7077135,29.3584319 32.5169696,29.3584319 C35.5903917,29.3584319 38.6050154,27.03894 38.6050154,23.3240911 L38.6050154,13.6592203 C38.6045335,8.3370127 34.2891153,4.02277705 28.9654489,4.02277705 Z M37.3996479,23.3231275 C37.3996479,25.0957512 36.5832174,26.2174332 35.8983605,26.8457293 C34.9717056,27.6848113 33.766739,28.1505629 32.5164877,28.1529128 C30.9361598,28.1529128 29.5524692,27.412834 28.6203697,26.0699956 L25.4394718,21.487385 L25.2731976,21.2464739 L25.0134243,21.1106001 C23.9953608,20.5710402 23.0989042,19.8283249 22.3795445,18.9284275 L22.0195246,18.477442 L16.5850088,18.477442 L16.2230612,18.9284275 C15.5042629,19.8281201 14.6084789,20.5708218 13.5911092,21.1106001 L13.3327817,21.2474376 L13.1665075,21.4883487 L9.9856096,26.0709593 C9.05351012,27.4137976 7.66981954,28.1538765 6.08949164,28.1538765 C4.8392575,28.1514349 3.63432267,27.6856956 2.70761884,26.8466929 C2.02276188,26.2203241 1.20633143,25.0967148 1.20633143,23.3240911 L1.20633143,13.6592203 C1.20618415,10.6742898 2.78462789,7.91172688 5.35654666,6.39559074 C7.92846543,4.8794546 11.1105259,4.83571875 13.7231646,6.28059571 L13.9959507,6.43188787 L24.6085827,6.43188787 L24.8813688,6.28059571 C27.4941072,4.83499519 30.6766932,4.87834609 33.2490656,6.39457447 C35.8214379,7.91080285 37.4000784,10.6738523 37.3996479,13.6592203 L37.3996479,23.3231275 Z" id="Shape"></path>
                <ellipse id="Oval" cx="28.3630062" cy="11.8523872" rx="1.80732835" ry="1.80683311"></ellipse>
                <ellipse id="Oval" cx="31.9776629" cy="15.4660534" rx="1.80732835" ry="1.80683311"></ellipse>
                <path d="M22.9410211,11.2501095 L21.7361356,11.2501095 C21.0706956,11.2501095 20.53125,11.7894073 20.53125,12.4546649 C20.53125,13.1199225 21.0706956,13.6592203 21.7361356,13.6592203 L22.9410211,13.6592203 C23.606461,13.6592203 24.1459067,13.1199225 24.1459067,12.4546649 C24.1459067,11.7894073 23.606461,11.2501095 22.9410211,11.2501095 L22.9410211,11.2501095 Z" id="Path"></path>
                <path d="M27.8675572,21.064827 C27.6615,20.9984155 27.4356433,21.0476478 27.2759433,21.193787 C27.1162433,21.3399262 27.0472616,21.5604964 27.095251,21.7715534 C27.1432405,21.9826104 27.3008204,22.151694 27.5080194,22.2144547 C29.3268905,22.7877236 31.3000739,22.6043189 32.9820555,21.7056505 C34.6759493,20.8109802 35.9449712,19.2802521 36.5099604,17.4501971 C36.6058357,17.1338463 36.4287543,16.7993612 36.1131764,16.7007206 C35.7975985,16.6020799 35.46147,16.7761502 35.3600176,17.0907578 C34.3676739,20.2630749 31.0065251,22.0458169 27.8675572,21.064827 Z" id="Path"></path>
                <path d="M151.483515,15.4583005 L151.5934,13.2621551 L153.059505,13.2621551 L151.455561,8.41984231 L143.306197,8.41984231 L143.289329,5.09526938 C143.288919,5.0204171 143.318616,4.94854033 143.371743,4.89579501 C143.42437,4.84230109 143.496718,4.81284701 143.571754,4.81436706 L148.128631,4.86014017 L148.128631,0.0361366623 L143.205951,0.0361366623 C141.955043,0.0360088515 140.755333,0.532737078 139.870808,1.41701976 C138.986283,2.30130244 138.489419,3.50068381 138.489547,4.75124836 L138.489547,8.41984231 L130.103543,8.41984231 L128.499599,13.2621551 L129.965704,13.2621551 L130.55417,25.0330705 C130.529897,25.1412716 130.535562,25.2540388 130.570557,25.3592641 L131.17059,37.3532633 L150.38996,37.3532633 L151.4652,15.8548401 C151.515691,15.7284705 151.522143,15.5887839 151.483515,15.4583005 Z M149.472801,31.539597 L144.862909,36.1487078 L141.453565,36.1487078 L149.650643,27.9533947 L149.472801,31.539597 Z M149.743178,26.1629435 L139.752267,36.151117 L136.34485,36.151117 L149.921501,22.5738502 L149.743178,26.1629435 Z M137.085614,13.2645642 L131.452051,18.8927289 L131.290114,15.6476566 L133.67627,13.2621551 L137.085614,13.2645642 Z M131.533501,20.5150241 L138.788358,13.2621551 L142.196257,13.2621551 L131.695438,23.7596145 L131.533501,20.5150241 Z M147.307863,13.2621551 L142.295539,18.2731056 C141.102724,17.9254191 139.826645,17.9978805 138.680882,18.4783618 L143.897555,13.2626369 L147.307863,13.2621551 Z M135.562157,25.0065703 L131.938825,28.6289093 L131.776888,25.3838371 L135.777108,21.3847131 C135.498069,22.0478915 135.354681,22.7602141 135.355398,23.4796759 L135.355398,23.5278581 C135.355678,24.0279428 135.425259,24.5255776 135.562157,25.0065703 L135.562157,25.0065703 Z M132.020275,30.2512046 L136.068691,26.2038984 C136.472564,26.9105125 137.029295,27.5179586 137.698178,27.9818222 L132.184621,33.4938677 L132.020275,30.2512046 Z M136.87741,25.126544 C136.873644,24.9987277 136.829057,24.8754716 136.750174,24.7748138 C136.624947,24.3706807 136.561418,23.9499743 136.56173,23.5268944 L136.56173,23.4787122 C136.56173,21.1503107 138.449789,19.2627683 140.778829,19.2627683 C143.107869,19.2627683 144.995929,21.1503107 144.995929,23.4787122 L144.995929,23.5268944 C144.995545,25.5406894 143.570622,27.2730522 141.594295,27.662462 C139.617967,28.0518719 137.642094,26.9895921 136.87741,25.126544 L136.87741,25.126544 Z M150.011144,20.7829172 L146.066831,24.725668 C146.156136,24.3323335 146.201077,23.9302341 146.200814,23.5268944 L146.200814,23.4787122 C146.201458,22.8169203 146.080235,22.1606637 145.843204,21.5427508 L150.190431,17.1967148 L150.011144,20.7829172 Z M150.280075,15.4033728 L145.256666,20.4234779 C144.796683,19.7528695 144.192928,19.1932275 143.48934,18.7852825 L149.012053,13.2640823 L150.387069,13.2640823 L150.280075,15.4033728 Z M139.694432,4.75510293 C139.694432,2.81627623 141.266593,1.24454665 143.205951,1.24454665 L146.923746,1.24454665 L146.923746,3.6478756 L143.583803,3.61462987 C143.186272,3.61062483 142.803746,3.76620108 142.521911,4.04650975 C142.240076,4.32681843 142.082487,4.70843197 142.084443,5.10586947 L142.101312,8.42369689 L139.694432,8.42369689 L139.694432,4.75510293 Z M130.971061,9.6282523 L150.583706,9.6282523 L151.389533,12.0614542 L130.166679,12.0614542 L130.971061,9.6282523 Z M131.971116,13.2660096 L131.207218,14.0292159 L131.169144,13.2660096 L131.971116,13.2660096 Z M132.260288,35.1204993 L138.803781,28.578318 C139.813326,28.9720553 140.917663,29.0546188 141.974558,28.8153745 L134.639214,36.1487078 L132.315231,36.1487078 L132.260288,35.1204993 Z M146.563244,36.1525624 L149.379784,33.3367937 L149.239054,36.1525624 L146.563244,36.1525624 Z" id="Shape"></path>
                <path d="M122.815431,78.6198423 C121.289626,76.9485204 119.136076,75.9885941 116.872756,75.9709461 C114.609436,75.953298 112.44117,76.8795253 110.889474,78.5268506 C110.942002,78.0229307 110.908264,77.5137469 110.78971,77.0211564 C112.866439,75.8041082 114.142985,73.5784196 114.144593,71.1718353 C114.144593,67.4324135 111.101534,64.3901883 107.361087,64.3901883 C103.62064,64.3901883 100.577581,67.4324135 100.577581,71.1718353 C100.577581,74.9112571 103.62064,77.9534823 107.361087,77.9534823 C108.146937,77.9540896 108.926868,77.8176148 109.665792,77.5501971 C109.75158,78.0888743 109.710614,78.5716601 109.540966,78.9922908 C109.311556,79.5598774 108.914426,79.8566798 108.415121,80.2325011 C107.948589,80.582304 107.420368,80.9788436 106.990946,81.6500219 C105.869929,79.4463094 103.806201,77.8728054 101.383884,77.3748777 C98.9615661,76.8769501 96.4442634,77.5087849 94.5444784,79.0915462 L93.9550484,79.582523 L94.159397,80.0060447 C95.2411995,82.2646698 97.309927,83.8937468 99.7597051,84.4161629 C100.331199,84.5401218 100.914288,84.6027919 101.499078,84.6031099 C103.295055,84.6023591 105.039387,84.0022525 106.455495,82.8979413 C106.255002,83.6862024 106.241989,84.5896189 106.416939,85.6009636 L95.2881338,85.6009636 L95.2881338,91.6237407 L97.8169476,91.6237407 L100.226719,102.464739 L115.649254,102.464739 L118.059025,91.6237407 L120.588321,91.6237407 L120.588321,85.6009636 L107.64303,85.6009636 C107.369762,84.2234341 107.488323,83.1162067 107.996785,82.3110819 C108.310055,81.8152869 108.712487,81.5136662 109.138052,81.1947 C109.408554,81.0003896 109.665248,80.7875559 109.906287,80.5577311 L109.931831,80.5856767 C111.464227,82.2762063 113.640969,83.2390252 115.923004,83.2356986 C116.1341,83.2356986 116.346642,83.2275077 116.559184,83.2111257 C119.057326,83.0269908 121.328659,81.6946079 122.707956,79.604205 L123.132075,78.9657906 L122.815431,78.6198423 Z M110.275946,71.1718353 C110.275946,72.3507015 109.565594,73.4134798 108.476147,73.8645673 C107.386699,74.3156548 106.132721,74.0662107 105.298977,73.2325575 C104.465234,72.3989043 104.215928,71.1452287 104.66732,70.0561544 C105.118711,68.96708 106.181898,68.2570981 107.361087,68.257293 C108.970337,68.2591521 110.274353,69.5630265 110.275946,71.1718353 L110.275946,71.1718353 Z M116.681118,92.2934735 L115.885893,92.2934735 C115.553174,92.2934735 115.283451,92.5631224 115.283451,92.8957512 C115.283451,93.22838 115.553174,93.4980289 115.885893,93.4980289 L116.411224,93.4980289 L114.685346,101.261629 L101.193519,101.261629 L99.4676408,93.4980289 L108.65658,93.4980289 C108.9893,93.4980289 109.259023,93.22838 109.259023,92.8957512 C109.259023,92.5631224 108.9893,92.2934735 108.65658,92.2934735 L99.1996743,92.2934735 L99.0512324,91.6251862 L116.825704,91.6251862 L116.681118,92.2934735 Z M119.388255,90.4206307 L96.4954291,90.4206307 L96.4954291,86.8069645 L119.388255,86.8069645 L119.388255,90.4206307 Z M100.017069,83.2385896 C98.0911187,82.828417 96.4336486,81.6121024 95.465011,79.8981165 C96.9350242,78.7415182 98.8105021,78.22856 100.664728,78.4759523 C102.518955,78.7233447 104.194237,79.7100481 105.309408,81.2115637 L102.208996,80.6275953 L100.975194,79.6759965 C100.865877,79.5915691 100.71284,79.5933644 100.605535,79.6803329 L100.605535,79.6803329 C100.505288,79.7611459 100.468345,79.8972144 100.513963,80.0176084 L100.631078,80.3322383 L97.77068,79.7930793 C97.685342,79.7769755 97.5971371,79.7967299 97.5268276,79.8476926 C97.4565181,79.8986553 97.4103148,79.9763245 97.3990933,80.0624179 L97.3990933,80.0624179 C97.3787719,80.2193984 97.4779144,80.367144 97.6309133,80.4078844 L105.072287,82.394919 C103.558419,83.3179276 101.746273,83.6202144 100.014659,83.2385896 L100.017069,83.2385896 Z M116.46954,82.0113885 C114.780211,82.1465614 113.1005,81.6528762 111.753136,80.6251862 L114.707033,80.2879106 L116.908118,81.2462549 C117.054037,81.3100098 117.224524,81.2524315 117.301875,81.113272 L117.301875,81.113272 C117.36479,81.0000497 117.350357,80.8596097 117.265728,80.7615418 L116.663768,80.0624179 L119.358374,79.4967587 C119.534269,79.460151 119.650608,79.2921527 119.622967,79.1146737 L119.622967,79.1146737 C119.596231,78.9397845 119.438865,78.8152726 119.262465,78.829435 L111.709278,79.4201489 C112.968107,78.0488697 114.726106,77.2419293 116.586861,77.1812869 C118.447616,77.1206445 120.254452,77.811406 121.599943,79.0978099 C120.414136,80.7910396 118.529195,81.8610035 116.46713,82.0113885 L116.46954,82.0113885 Z" id="Shape"></path>
                <path d="M111.066351,93.4980289 L113.476122,93.4980289 C113.808842,93.4980289 114.078565,93.22838 114.078565,92.8957512 C114.078565,92.5631224 113.808842,92.2934735 113.476122,92.2934735 L111.066351,92.2934735 C110.733631,92.2934735 110.463908,92.5631224 110.463908,92.8957512 C110.463908,93.22838 110.733631,93.4980289 111.066351,93.4980289 Z" id="Path"></path>
                <path d="M205.660953,79.4196671 C204.861873,76.3360053 203.29504,73.5332457 201.125764,71.308191 C200.872777,70.2185129 200.093529,69.3263816 199.047577,68.9289531 C192.432251,66.4290192 185.131653,66.4290192 178.516327,68.9289531 C177.470375,69.3263816 176.691127,70.2185129 176.43814,71.308191 C174.269346,73.5332457 172.702031,76.334078 171.902951,79.4196671 C171.110136,82.4792378 171.114474,85.6583005 171.911144,88.6321069 C171.467952,89.3933446 171.286951,90.2789733 171.395935,91.1530004 L171.733303,93.8724047 C171.970213,95.7335635 173.457302,97.1869186 175.323862,97.3815155 C176.457603,99.3083181 178.789277,100.173872 180.906139,99.4537438 C183.023,98.7336154 184.342661,96.625925 184.065548,94.4077092 L183.21779,87.6082348 C182.99296,85.8128696 181.760194,84.3045229 180.045187,83.7264056 C178.33018,83.1482883 176.43552,83.6024009 175.169155,84.8950942 C175.139756,81.4047744 176.192826,77.9115637 178.166428,75.0297854 C179.050599,75.4851354 180.091533,75.5238022 181.007066,75.1353044 C185.978047,73.0355134 191.587303,73.0355134 196.558283,75.1353044 C197.473654,75.5237863 198.514436,75.4851186 199.39844,75.0297854 C201.372042,77.9115637 202.425112,81.4047744 202.395713,84.8950942 C201.129348,83.6024009 199.234688,83.1482883 197.519681,83.7264056 C195.804674,84.3045229 194.571908,85.8128696 194.347077,87.6082348 L193.49932,94.4077092 C193.222207,96.625925 194.541868,98.7336154 196.658729,99.4537438 C198.775591,100.173872 201.107265,99.3083181 202.241006,97.3815155 C204.107487,97.1867487 205.594486,95.7334799 205.831565,93.8724047 L206.168933,91.1530004 C206.277917,90.2789733 206.096916,89.3933446 205.653724,88.6321069 C206.44943,85.6583005 206.453768,82.4792378 205.660953,79.4196671 Z M172.929514,93.7235217 L172.592146,91.0041174 C172.506636,90.3225693 172.673054,89.6332637 173.060123,89.0657468 C173.085185,89.0291283 173.11121,88.9934735 173.137718,88.9583005 L173.164707,88.9236093 C173.183022,88.9004818 173.200854,88.8754271 173.21965,88.8547087 C173.230735,88.8412177 173.242302,88.8282085 173.253387,88.8151993 C173.264472,88.8021901 173.288088,88.7752081 173.30592,88.7554534 L173.343994,88.7149803 C173.361345,88.696671 173.378695,88.6783618 173.396527,88.6605344 L173.437493,88.621025 C173.455326,88.6036794 173.473158,88.5863338 173.491472,88.5699518 L173.534366,88.531406 L173.590273,88.4832238 L173.635095,88.4470872 C173.653891,88.4316689 173.673169,88.4167324 173.692929,88.4017959 L173.741125,88.3675865 C173.760885,88.3531318 173.781127,88.339159 173.800887,88.325668 L173.829804,88.3063951 C173.829804,88.325668 173.829804,88.3449409 173.829804,88.3642138 L173.829804,88.3969777 C173.832214,88.452869 173.835588,88.5092422 173.839925,88.5656154 L173.842817,88.5983793 C173.848118,88.6566798 173.853902,88.7154621 173.861131,88.7737626 L174.708407,95.5737188 C174.715636,95.6315375 174.724311,95.6898379 174.733468,95.7471748 C174.733468,95.7582567 174.736842,95.7693386 174.73877,95.7804205 C174.748409,95.83583 174.75853,95.8912396 174.770097,95.9461673 L174.777326,95.9789312 C174.781182,95.9977223 174.785037,96.0165134 174.789375,96.0357862 C173.783331,95.6766796 173.064441,94.7829238 172.929514,93.7235217 L172.929514,93.7235217 Z M182.022544,87.7575996 L182.870301,94.5580377 C183.081823,96.2550443 182.038905,97.8573555 180.40125,98.3514236 L178.692722,84.6874288 C180.40378,84.7616041 181.811245,86.0599298 182.022544,87.7590451 L182.022544,87.7575996 Z M177.497958,84.8401664 L179.20504,98.4945247 C177.932849,98.4281794 176.796446,97.6780381 176.23572,96.5344722 C176.214032,96.4911082 176.19379,96.4467806 176.174029,96.4024529 C176.037188,96.0911969 175.946275,95.7617274 175.904135,95.4243539 L175.05686,88.6253614 L175.05686,88.6253614 C175.050594,88.5771792 175.045775,88.5289969 175.041919,88.4808147 C175.033565,88.3844503 175.029549,88.2880859 175.02987,88.1917214 C175.029714,87.9488264 175.055076,87.7065867 175.105537,87.4689882 C175.115658,87.420806 175.128189,87.3687692 175.141202,87.3186597 C175.170601,87.2054314 175.205783,87.0917214 175.24675,86.9813841 L175.24675,86.9813841 C175.621668,85.9554546 176.454357,85.1634494 177.497958,84.8401664 L177.497958,84.8401664 Z M200.043294,73.8584757 L199.673636,73.3578625 L199.186862,73.7433202 C198.572732,74.2237196 197.746209,74.3331176 197.028189,74.0290407 C196.254339,73.699968 195.461566,73.41728 194.654082,73.1824792 L195.260381,71.2518178 C195.35993,70.9343569 195.183208,70.5963251 194.86566,70.4968025 C194.548112,70.39728 194.209988,70.5739539 194.110438,70.8914148 L193.486789,72.8760403 C192.147473,72.5698182 190.781338,72.395689 189.408011,72.3561542 L189.408011,70.2019273 C189.408011,69.8692985 189.138288,69.5996496 188.805568,69.5996496 C188.472848,69.5996496 188.203125,69.8692985 188.203125,70.2019273 L188.203125,72.3551905 C186.798285,72.3917943 185.400674,72.5693533 184.031329,72.8851949 L183.404789,70.8870784 C183.305239,70.5696175 182.967114,70.3929436 182.649566,70.4924661 C182.332019,70.5919887 182.155296,70.9300205 182.254846,71.2474814 L182.865,73.191152 C182.072871,73.423515 181.294963,73.7018377 180.535233,74.0247043 C179.817228,74.3288872 178.990649,74.2194818 178.37656,73.7389838 L177.889305,73.3578625 L177.521574,73.857512 C174.829859,77.5145423 173.575332,82.1872536 174.069335,86.7004818 C174.069335,86.7043364 174.069335,86.708191 174.065962,86.7120456 C174.055841,86.7428822 174.046202,86.7737188 174.036563,86.8045554 C174.030297,86.8257556 174.022586,86.8474376 174.01632,86.8691196 C173.962824,86.8883925 173.909809,86.9091108 173.856794,86.9312746 L173.81149,86.9510293 C173.773897,86.9669295 173.736305,86.9833114 173.699195,86.9992116 L173.640878,87.0276391 C173.609069,87.0430574 173.576778,87.0584757 173.544487,87.0758213 L173.482315,87.109067 C173.452916,87.125449 173.423035,87.1413491 173.393636,87.1572492 C173.37243,87.1692948 173.351706,87.1818222 173.330982,87.1943495 L173.246158,87.2459045 L173.183985,87.2858958 L173.102535,87.3413053 C173.082293,87.3552781 173.062051,87.369251 173.042291,87.3837057 C173.015301,87.4029785 172.988794,87.4227332 172.962287,87.4429698 C172.943008,87.4574244 172.92373,87.4718791 172.904934,87.4868156 L172.880354,87.5056067 C171.708242,82.0036794 173.43171,76.0314936 177.420845,72.026106 L177.556274,71.8902322 L177.588083,71.700876 C177.715734,70.9507972 178.230944,70.3242821 178.942375,70.0540079 C185.283742,67.6574346 192.28209,67.6574346 198.623457,70.0540079 C199.334888,70.3242821 199.850098,70.9507972 199.977749,71.700876 L200.009558,71.8902322 L200.144987,72.026106 C204.134122,76.0314936 205.85759,82.0036794 204.685478,87.5056067 L204.66138,87.4872974 C204.642102,87.4718791 204.622824,87.4574244 204.603545,87.4429698 C204.577038,87.4227332 204.55053,87.4029785 204.523541,87.3837057 C204.496551,87.3644328 204.483539,87.3552781 204.463297,87.3413053 C204.443055,87.3273325 204.409318,87.304205 204.381846,87.2863776 L204.319674,87.2459045 L204.23485,87.1943495 C204.214126,87.1818222 204.193402,87.1692948 204.172196,87.1572492 C204.142797,87.1403855 204.112916,87.1244853 204.083517,87.109067 L204.021345,87.0758213 L203.924954,87.0276391 L203.866637,86.9992116 C203.829527,86.9823478 203.791934,86.9659658 203.754342,86.9510293 L203.709038,86.9312746 C203.656023,86.9091108 203.603008,86.8883925 203.549511,86.8691196 C203.543246,86.8474376 203.535535,86.8257556 203.529269,86.8045554 C203.51963,86.7737188 203.510473,86.7428822 203.49987,86.7120456 C203.49987,86.708191 203.49746,86.7043364 203.496496,86.7004818 C203.989536,82.1882173 202.735009,77.5155059 200.043294,73.8584757 L200.043294,73.8584757 Z M195.405931,97.1459045 C194.831838,96.4126572 194.574994,95.4802918 194.692639,94.5565922 L195.540396,87.7575996 C195.750791,86.068849 197.142752,84.774347 198.842746,84.6864652 L197.135665,98.3417871 C196.449648,98.1307724 195.845549,97.7131173 195.405931,97.1459045 Z M198.330429,98.4950066 L200.038957,84.8310118 C201.093691,85.1485509 201.937356,85.9439664 202.316191,86.9780114 C202.331131,87.0184845 202.345108,87.0589575 202.358603,87.0999124 C202.398313,87.2203713 202.431297,87.342943 202.457403,87.4670609 L202.457403,87.4670609 C202.477163,87.5634253 202.49355,87.6597898 202.505599,87.7561542 C202.523474,87.9000115 202.532487,88.0448312 202.532588,88.1897941 C202.532642,88.3347619 202.523628,88.4795912 202.505599,88.6234341 L201.658805,95.4253176 C201.64095,95.5663198 201.614718,95.7061347 201.580246,95.844021 C201.580246,95.8473938 201.580246,95.8507665 201.577837,95.8541393 C201.575427,95.857512 201.574945,95.8637757 201.573981,95.868594 C201.514587,96.0986735 201.431907,96.322107 201.327221,96.5354358 L201.327221,96.5354358 C200.761927,97.6875186 199.612758,98.439318 198.330429,98.4959702 L198.330429,98.4950066 Z M204.97224,91.0031537 L204.634872,93.722558 C204.500031,94.7822596 203.780902,95.6762676 202.774529,96.0353044 C202.778867,96.0165134 202.782722,95.9972405 202.786578,95.9784494 L202.793807,95.9456855 C202.805374,95.8907578 202.815495,95.83583 202.825134,95.7804205 C202.825134,95.7688568 202.828508,95.7577749 202.830436,95.7466929 C202.839593,95.6888743 202.848268,95.6310556 202.855497,95.573237 L203.701809,88.7761717 L203.701809,88.7761717 C203.709038,88.7178712 203.714822,88.6590889 203.720123,88.6007884 L203.723015,88.5680245 C203.727353,88.5116513 203.730726,88.4552781 203.733136,88.3993868 L203.733136,88.3666229 C203.733136,88.34735 203.733136,88.3280771 203.733136,88.3088042 L203.762053,88.3280771 C203.781813,88.3415681 203.802055,88.355541 203.821816,88.3699956 L203.870011,88.4046868 L203.927364,88.4490145 L203.972667,88.4861148 L204.02761,88.534297 C204.042551,88.5468244 204.057009,88.5598336 204.071468,88.5728428 C204.085926,88.5858519 204.107132,88.6060885 204.124483,88.621025 L204.165931,88.6610162 C204.183763,88.6788436 204.201114,88.6971529 204.217982,88.7149803 C204.23485,88.7328077 204.244007,88.7419623 204.256538,88.7559352 C204.269069,88.769908 204.291239,88.7954446 204.308589,88.8151993 C204.32594,88.834954 204.331723,88.8416995 204.342808,88.8551905 C204.361122,88.8773544 204.378955,88.9 204.396305,88.9226456 L204.425222,88.9587823 C204.449963,88.9909038 204.47406,89.0246313 204.497515,89.059965 C204.498847,89.0622509 204.500466,89.064356 204.502335,89.0662286 L204.502335,89.0662286 C204.890006,89.6333379 205.057113,90.3224872 204.97224,91.0041174 L204.97224,91.0031537 Z" id="Shape"></path>
                <path d="M36.5803257,136.381516 L7.66307218,136.381516 C6.66535275,136.382578 5.85680637,137.190903 5.85574384,138.188349 L5.85574384,167.097678 C5.85680637,168.095125 6.66535275,168.903449 7.66307218,168.904512 L33.67125,168.904512 C34.1510104,168.905626 34.6112688,168.714772 34.9493926,168.374507 L37.8584683,165.466229 C38.1988263,165.128197 38.3897329,164.668065 38.388618,164.188436 L38.388618,138.188349 C38.3875546,137.190527 37.5784215,136.382047 36.5803257,136.381516 L36.5803257,136.381516 Z M25.2544014,164.517039 L25.2544014,162.161892 C25.2544014,161.487341 25.8072029,160.917827 26.4824208,160.930355 C27.1388091,160.942956 27.6642936,161.478581 27.6641725,162.13491 L27.6641725,164.544021 C27.6642936,165.20035 27.1388091,165.735975 26.4824208,165.748576 C25.8072029,165.761104 25.2544014,165.192072 25.2544014,164.517039 Z M37.1827685,164.1894 C37.1832251,164.34923 37.119708,164.502601 37.0063732,164.615331 L34.0972975,167.523609 C33.9845366,167.636913 33.8311237,167.700413 33.67125,167.699956 L30.543849,167.699956 L30.543849,159.725799 C30.543849,159.060542 30.0044034,158.521244 29.3389635,158.521244 L14.9044344,158.521244 C14.2389945,158.521244 13.6995489,159.060542 13.6995489,159.725799 L13.6995489,167.699956 L7.66307218,167.699956 C7.3305723,167.699426 7.06116013,167.430087 7.0606294,167.097678 L7.0606294,138.188349 C7.06116013,137.85594 7.3305723,137.586602 7.66307218,137.586071 L36.5803257,137.586071 C36.9128256,137.586602 37.1822378,137.85594 37.1827685,138.188349 L37.1827685,164.1894 Z" id="Shape"></path>
                <path d="M22.1216989,148.42707 L22.1216989,148.42707 C19.7927695,148.427336 17.9048656,150.314722 17.9045995,152.643014 L17.9045995,152.643014 C17.9048656,154.971305 19.7927695,156.858691 22.1216989,156.858958 L22.1216989,156.858958 C24.4506284,156.858691 26.3385323,154.971305 26.3387984,152.643014 L26.3387984,152.643014 C26.3385323,150.314722 24.4506284,148.427336 22.1216989,148.42707 L22.1216989,148.42707 Z M23.2542914,152.643014 C23.2542914,153.268356 22.7472125,153.775296 22.1216989,153.775296 C21.4961854,153.775296 20.9891065,153.268356 20.9891065,152.643014 L20.9891065,152.643014 C20.9891065,152.017671 21.4961854,151.510731 22.1216989,151.510731 C22.7472125,151.510731 23.2542914,152.017671 23.2542914,152.643014 Z" id="Shape"></path>
                <path d="M288.701364,204.20184 C285.970809,197.732406 279.627797,193.529129 272.604093,193.534779 L272.604093,193.534779 C267.969362,193.530939 263.523354,195.369875 260.246103,198.646228 C256.968852,201.922581 255.129412,206.367371 255.133253,211.000832 C255.133571,214.741419 257.438861,218.095252 260.931644,219.436575 C260.934054,223.254052 264.041213,226.358914 267.859736,226.358914 L277.348451,226.358914 C281.166974,226.358914 284.274133,223.254052 284.276543,219.436575 C287.769325,218.095252 290.074615,214.741419 290.074934,211.000832 C290.07913,208.665212 289.611954,206.352751 288.701364,204.20184 Z M277.348451,225.154358 L267.859736,225.154358 C264.700328,225.150906 262.139983,222.591263 262.136529,219.43272 L262.136529,215.216776 C262.13892,213.221994 263.755857,211.605499 265.751186,211.60311 L279.457,211.60311 C281.452329,211.605499 283.069267,213.221994 283.071657,215.216776 L283.071657,219.43272 C283.068204,222.591263 280.507859,225.150906 277.348451,225.154358 L277.348451,225.154358 Z M284.276543,218.132282 L284.276543,215.216776 C284.273621,212.556957 282.117549,210.401476 279.457,210.398555 L265.751186,210.398555 C263.090638,210.401476 260.934566,212.556957 260.931644,215.216776 L260.931644,218.132282 C258.130884,216.86533 256.333201,214.074602 256.338138,211.001314 C256.337628,209.594452 256.519885,208.193481 256.880337,206.833552 C256.588272,209.132326 257.572905,211.225361 259.365775,211.803548 C259.67875,211.904505 260.005639,211.95572 260.334503,211.955322 C262.165929,211.955322 264.027718,210.401927 264.777639,208.078099 C265.660579,205.341349 264.669681,202.572317 262.564023,201.89343 C262.251047,201.792472 261.924159,201.741258 261.595295,201.741656 C260.227509,201.741656 258.844782,202.608936 257.91943,204.01152 C260.538851,198.533202 266.136268,194.739816 272.604093,194.739816 C279.341813,194.739816 285.134903,198.856505 287.601545,204.706307 C286.70993,202.897547 285.10936,201.741656 283.52855,201.741656 C283.199686,201.741258 282.872797,201.792472 282.559822,201.89343 C280.454164,202.572317 279.463266,205.341349 280.346206,208.078099 C281.096127,210.401927 282.955988,211.955322 284.789342,211.955322 C285.118206,211.95572 285.445094,211.904505 285.75807,211.803548 C287.763482,211.156943 288.757753,208.614849 288.085427,206.010118 C288.60637,207.62261 288.871128,209.306805 288.870048,211.001314 C288.874986,214.074602 287.077302,216.86533 284.276543,218.132282 Z" id="Shape-Copy-5"></path>
                <path d="M280.93901,70.8582567 C280.871531,69.9142385 280.064429,69.195587 279.118669,69.2374069 C277.862333,69.2289671 276.744864,68.4373708 276.320442,67.2551905 L276.191761,66.896233 L275.812463,66.8586509 C273.97392,66.6814502 272.572965,65.1334508 272.579996,63.2869032 L272.579996,63.1765659 C272.584815,61.8823916 271.543312,60.8190101 270.257458,60.8060009 L270.146127,60.8060009 C267.276523,60.8057453 264.524371,61.9452323 262.49521,63.9737471 C260.466048,66.002262 259.326127,68.7536095 259.326254,71.6224266 L259.326254,85.4989049 C259.329707,88.4911332 261.755191,90.9159526 264.748239,90.9194043 L266.507372,90.9194043 L266.507372,94.4848883 C266.507372,96.4806611 268.125709,98.0985545 270.122029,98.0985545 C272.118349,98.0985545 273.736686,96.4806611 273.736686,94.4848883 L273.736686,90.9194043 L275.544014,90.9194043 C278.537062,90.9159526 280.962546,88.4911332 280.965999,85.4989049 L280.965999,71.6224266 C280.965999,71.3685064 280.956842,71.1112133 280.93901,70.8582567 Z M272.5318,94.4848883 C272.5318,95.8154035 271.452909,96.8939991 270.122029,96.8939991 C268.791149,96.8939991 267.712258,95.8154035 267.712258,94.4848883 L267.712258,90.9194043 L272.5318,90.9194043 L272.5318,94.4848883 Z M279.761114,85.4989049 C279.758458,87.8262058 277.871953,89.7121937 275.544014,89.7148489 L264.748239,89.7148489 C262.420301,89.7121937 260.533796,87.8262058 260.53114,85.4989049 L260.53114,71.6224266 C260.53114,66.3223828 264.84463,62.0100745 270.146127,62.0100745 L270.245409,62.0100745 C270.876475,62.0221985 271.380244,62.539796 271.37511,63.1707841 L271.37511,63.2864214 C271.374505,65.6095971 273.03965,67.5991028 275.327135,68.0082786 C276.014745,69.4910197 277.499786,70.4408102 279.134573,70.4434078 L279.16831,70.4434078 L279.183732,70.4434078 C279.472258,70.4349151 279.716228,70.6552356 279.737016,70.9430574 C279.75292,71.1680683 279.761114,71.396452 279.761114,71.6224266 L279.761114,85.4989049 Z" id="Shape-Copy-4"></path>
                <path d="M270.965449,4.02277705 C269.332028,4.02045662 267.725058,4.43506655 266.296758,5.22733246 L256.307775,5.22733246 C254.879476,4.43506655 253.272505,4.02045662 251.639085,4.02277705 C246.315418,4.02277705 242,8.3370127 242,13.6592203 L242,23.3231275 C242,27.0374945 245.014624,29.3574682 248.088046,29.3574682 C249.897302,29.3574682 251.7268,28.5533071 252.974098,26.7556286 L256.154996,22.173018 C257.316573,21.5555128 258.340165,20.7079441 259.163354,19.6819974 L263.44118,19.6819974 C264.264413,20.7083429 265.28818,21.5562484 266.45002,22.1739816 L269.630918,26.7565922 C270.877733,28.5533071 272.707713,29.3584319 274.51697,29.3584319 C277.590392,29.3584319 280.605015,27.03894 280.605015,23.3240911 L280.605015,13.6592203 C280.604533,8.3370127 276.289115,4.02277705 270.965449,4.02277705 Z M279.399648,23.3231275 C279.399648,25.0957512 278.583217,26.2174332 277.89836,26.8457293 C276.971706,27.6848113 275.766739,28.1505629 274.516488,28.1529128 C272.93616,28.1529128 271.552469,27.412834 270.62037,26.0699956 L267.439472,21.487385 L267.273198,21.2464739 L267.013424,21.1106001 C265.995361,20.5710402 265.098904,19.8283249 264.379544,18.9284275 L264.019525,18.477442 L258.585009,18.477442 L258.223061,18.9284275 C257.504263,19.8281201 256.608479,20.5708218 255.591109,21.1106001 L255.332782,21.2474376 L255.166507,21.4883487 L251.98561,26.0709593 C251.05351,27.4137976 249.66982,28.1538765 248.089492,28.1538765 C246.839257,28.1514349 245.634323,27.6856956 244.707619,26.8466929 C244.022762,26.2203241 243.206331,25.0967148 243.206331,23.3240911 L243.206331,13.6592203 C243.206184,10.6742898 244.784628,7.91172688 247.356547,6.39559074 C249.928465,4.8794546 253.110526,4.83571875 255.723165,6.28059571 L255.995951,6.43188787 L266.608583,6.43188787 L266.881369,6.28059571 C269.494107,4.83499519 272.676693,4.87834609 275.249066,6.39457447 C277.821438,7.91080285 279.400078,10.6738523 279.399648,13.6592203 L279.399648,23.3231275 Z" id="Shape-Copy-3"></path>
                <path d="M252.892165,12.4546649 L251.68728,12.4546649 L251.68728,11.2501095 C251.68728,10.5848519 251.147834,10.0455541 250.482394,10.0455541 C249.816954,10.0455541 249.277509,10.5848519 249.277509,11.2501095 L249.277509,12.4546649 L248.072623,12.4546649 C247.407183,12.4546649 246.867738,12.9939627 246.867738,13.6592203 C246.867738,14.3244779 247.407183,14.8637757 248.072623,14.8637757 L249.277509,14.8637757 L249.277509,16.0683311 C249.277509,16.7335887 249.816954,17.2728865 250.482394,17.2728865 C251.147834,17.2728865 251.68728,16.7335887 251.68728,16.0683311 L251.68728,14.8637757 L252.892165,14.8637757 C253.557605,14.8637757 254.097051,14.3244779 254.097051,13.6592203 C254.097051,12.9939627 253.557605,12.4546649 252.892165,12.4546649 Z" id="Path-Copy-6"></path>
                <path d="M258.916593,11.2501095 L257.711708,11.2501095 C257.046268,11.2501095 256.506822,11.7894073 256.506822,12.4546649 C256.506822,13.1199225 257.046268,13.6592203 257.711708,13.6592203 L258.916593,13.6592203 C259.582033,13.6592203 260.121479,13.1199225 260.121479,12.4546649 C260.121479,11.7894073 259.582033,11.2501095 258.916593,11.2501095 L258.916593,11.2501095 Z" id="Path-Copy-5"></path>
                <path d="M252.886382,21.064827 C249.747414,22.0458169 246.385783,20.2630749 245.393922,17.0897941 C245.331144,16.882652 245.162014,16.7251152 244.950899,16.6771389 C244.739784,16.6291626 244.519153,16.6981255 244.372974,16.8577817 C244.226795,17.0174379 244.177549,17.2432327 244.243979,17.4492335 C244.808582,19.279589 246.07746,20.8106991 247.771402,21.7056505 C249.453432,22.6046132 251.426756,22.7883622 253.24592,22.2154183 C253.560614,22.1139937 253.734732,21.7779574 253.636064,21.4624659 C253.537396,21.1469744 253.20282,20.9699416 252.886382,21.0657906 L252.886382,21.064827 Z" id="Path-Copy-3"></path>
                <path d="M278.580326,136.381516 L249.663072,136.381516 C248.665353,136.382578 247.856806,137.190903 247.855744,138.188349 L247.855744,167.097678 C247.856806,168.095125 248.665353,168.903449 249.663072,168.904512 L275.67125,168.904512 C276.15101,168.905626 276.611269,168.714772 276.949393,168.374507 L279.858468,165.466229 C280.198826,165.128197 280.389733,164.668065 280.388618,164.188436 L280.388618,138.188349 C280.387555,137.190527 279.578422,136.382047 278.580326,136.381516 L278.580326,136.381516 Z M267.254401,164.517039 L267.254401,162.161892 C267.254401,161.487341 267.807203,160.917827 268.482421,160.930355 C269.138809,160.942956 269.664294,161.478581 269.664173,162.13491 L269.664173,164.544021 C269.664294,165.20035 269.138809,165.735975 268.482421,165.748576 C267.807203,165.761104 267.254401,165.192072 267.254401,164.517039 Z M279.182768,164.1894 C279.183225,164.34923 279.119708,164.502601 279.006373,164.615331 L276.097298,167.523609 C275.984537,167.636913 275.831124,167.700413 275.67125,167.699956 L272.543849,167.699956 L272.543849,159.725799 C272.543849,159.060542 272.004403,158.521244 271.338963,158.521244 L256.904434,158.521244 C256.238994,158.521244 255.699549,159.060542 255.699549,159.725799 L255.699549,167.699956 L249.663072,167.699956 C249.330572,167.699426 249.06116,167.430087 249.060629,167.097678 L249.060629,138.188349 C249.06116,137.85594 249.330572,137.586602 249.663072,137.586071 L278.580326,137.586071 C278.912826,137.586602 279.182238,137.85594 279.182768,138.188349 L279.182768,164.1894 Z" id="Shape-Copy-2"></path>
                <path d="M264.121699,148.42707 L264.121699,148.42707 C261.792769,148.427336 259.904866,150.314722 259.904599,152.643014 L259.904599,152.643014 C259.904866,154.971305 261.792769,156.858691 264.121699,156.858958 L264.121699,156.858958 C266.450628,156.858691 268.338532,154.971305 268.338798,152.643014 L268.338798,152.643014 C268.338532,150.314722 266.450628,148.427336 264.121699,148.42707 L264.121699,148.42707 Z M265.254291,152.643014 C265.254291,153.268356 264.747212,153.775296 264.121699,153.775296 C263.496185,153.775296 262.989107,153.268356 262.989107,152.643014 L262.989107,152.643014 C262.989107,152.017671 263.496185,151.510731 264.121699,151.510731 C264.747212,151.510731 265.254291,152.017671 265.254291,152.643014 Z" id="Shape-Copy"></path>
                <path d="M252.193332,139.826544 C252.526052,139.826544 252.795775,139.556895 252.795775,139.224266 C252.795775,138.891638 252.526052,138.621989 252.193332,138.621989 L250.988446,138.621989 C250.980253,138.621989 250.972542,138.621989 250.964349,138.621989 C250.956155,138.621989 250.948444,138.621989 250.940251,138.621989 C250.607531,138.621989 250.337808,138.891638 250.337808,139.224266 L250.337808,141.633377 C250.337808,141.966006 250.607531,142.235655 250.940251,142.235655 C250.948444,142.235655 250.956155,142.235655 250.964349,142.235655 C250.972542,142.235655 250.980253,142.235655 250.988446,142.235655 L252.145136,142.235655 C252.477856,142.235655 252.747579,141.966006 252.747579,141.633377 C252.747579,141.300748 252.477856,141.031099 252.145136,141.031099 L251.542694,141.031099 L251.542694,139.826544 L252.193332,139.826544 Z" id="Path-Copy"></path>
                <path d="M91.137544,147.399562 C91.1322226,146.367692 90.598791,145.410396 89.7239723,144.862768 C90.8841038,142.513917 90.7936824,139.740908 89.4829952,137.47258 C89.1615773,136.915226 89.1615773,136.228882 89.4829952,135.671529 C90.1722218,134.480854 90.5351292,133.129507 90.5351012,131.753833 C90.5351012,127.440561 87.0250286,123.928559 82.7110563,123.924223 L82.7033451,123.924223 C79.9074092,123.924747 77.3237267,125.415077 75.9239662,127.834729 C74.5242057,130.254382 74.5206125,133.236466 75.9145379,135.659483 C76.2394692,136.224502 76.2394692,136.919607 75.9145379,137.484625 C74.6106478,139.751033 74.5242255,142.518499 75.6841637,144.861805 C74.6227674,145.525121 74.0827117,146.775854 74.3278225,148.002999 C74.5729333,149.230145 75.5520565,150.177603 76.786875,150.382523 L81.0728939,160.277705 C81.3750792,160.975865 82.0001739,161.409505 82.7033451,161.409505 C83.4065163,161.409505 84.0316109,160.975865 84.3337962,160.277705 L88.6198151,150.382041 C90.0774598,150.139951 91.1440415,148.876283 91.137544,147.39908 L91.137544,147.399562 Z M83.2281932,159.799737 C83.1183077,160.053657 82.9216703,160.205431 82.7033451,160.205431 C82.4850198,160.205431 82.2883825,160.053657 82.1784969,159.799737 L80.4796083,155.876741 C80.7192686,156.05606 81.0542768,156.032254 81.2661576,155.82085 L81.6189481,155.468156 C81.8542476,155.232921 81.8542476,154.851529 81.6189481,154.616294 C81.3836485,154.381059 81.0021525,154.381059 80.766853,154.616294 L80.4140625,154.968988 C80.3174344,155.065574 80.256582,155.192174 80.2415229,155.327946 L79.4790713,153.566886 C79.6869264,153.623079 79.9089726,153.563908 80.061272,153.411739 L80.4140625,153.059045 C80.649362,152.82381 80.649362,152.442419 80.4140624,152.207184 C80.1787629,151.971949 79.797267,151.971949 79.5619674,152.207184 L79.2091769,152.559877 C79.1674083,152.6017 79.1320087,152.649428 79.1041109,152.701533 L78.4443156,151.178493 C78.5992017,151.175113 78.7468103,151.112116 78.8563864,151.002628 L79.2091769,150.649934 C79.355069,150.504093 79.4160108,150.293674 79.3706316,150.092466 C79.5015483,150.113375 79.6296256,150.149265 79.7523393,150.199431 C80.2995931,150.423232 80.900478,150.481696 81.4806272,150.367587 C81.3816433,150.63299 81.4811865,150.931474 81.7196786,151.084392 C81.9581707,151.23731 82.271046,151.203263 82.4710431,151.002628 L82.8238336,150.649934 C82.9697257,150.504093 83.0306675,150.293674 82.9852883,150.092466 C83.116205,150.113375 83.2442823,150.149265 83.366996,150.199431 C83.9142498,150.423232 84.5151347,150.481696 85.0952839,150.367587 C84.9963,150.63299 85.0958432,150.931474 85.3343353,151.084392 C85.5728274,151.23731 85.8857027,151.203263 86.0856998,151.002628 L86.4384903,150.649934 C86.5843823,150.504093 86.6453242,150.293674 86.599945,150.092466 C86.7308617,150.113375 86.8589389,150.149265 86.9816527,150.199431 C87.0966762,150.246352 87.2144991,150.286098 87.3344432,150.318441 L85.3752993,154.842269 C85.3069433,154.64686 85.1428502,154.500342 84.9409365,154.45443 C84.7390227,154.408517 84.5276831,154.469666 84.3815097,154.616294 L84.0287192,154.968988 C83.7934196,155.204223 83.7934196,155.585615 84.0287192,155.82085 C84.2640187,156.056085 84.6455147,156.056085 84.8808143,155.82085 L85.0056404,155.696058 L83.2281932,159.799737 Z M88.1870202,149.217959 L88.1870202,149.217959 L88.1701518,149.217959 L88.1253301,149.217959 C87.8902817,149.218458 87.6574252,149.172784 87.4399912,149.08353 C86.7206921,148.790607 85.9153114,148.790607 85.1960123,149.08353 C84.7567111,149.262784 84.2646357,149.262784 83.8253345,149.08353 C83.1060354,148.790607 82.3006547,148.790607 81.5813556,149.08353 C81.1420544,149.262784 80.649979,149.262784 80.2106778,149.08353 C79.4913787,148.790607 78.685998,148.790607 77.9666989,149.08353 C77.749265,149.172784 77.5164085,149.218458 77.28136,149.217959 L77.2365383,149.217959 L77.2196699,149.217959 L77.2196699,149.217959 C76.3467746,149.186946 75.6211184,148.535982 75.4960694,147.67177 C75.3710204,146.807559 75.8824053,145.977697 76.7107262,145.700657 L77.4235365,145.459746 L77.0331536,144.816513 C75.7848406,142.754127 75.7562271,140.176477 76.9584507,138.086903 C77.4972556,137.149175 77.4972556,135.995897 76.9584507,135.058169 C75.7812232,133.007618 75.7854569,130.485474 76.9695619,128.438884 C78.1536668,126.392294 80.3384085,125.131046 82.7033451,125.128778 L82.7096105,125.128778 C86.3604137,125.132151 89.3302157,128.104512 89.3302157,131.753833 C89.3307352,132.917441 89.0245351,134.06064 88.442456,135.068287 C87.9050645,135.998822 87.9050645,137.145287 88.442456,138.075821 C89.6495478,140.167582 89.6240717,142.749925 88.3759463,144.817477 L87.9865273,145.459746 L88.6978917,145.700657 C89.5264609,145.977878 90.0377817,146.808234 89.9122267,147.672668 C89.7866717,148.537103 89.0602379,149.187779 88.1870202,149.217959 Z" id="Shape"></path>
                <path d="M80.766853,128.164258 L80.4140625,128.516951 C80.178763,128.752186 80.178763,129.133578 80.4140625,129.368813 C80.6493621,129.604048 81.030858,129.604048 81.2661576,129.368813 L81.6189481,129.016119 C81.8542476,128.780884 81.8542476,128.399493 81.6189481,128.164258 C81.3836485,127.929022 81.0021525,127.929022 80.766853,128.164258 L80.766853,128.164258 Z" id="Path"></path>
                <path d="M85.5863952,129.368813 L85.2336048,129.721507 C84.9983052,129.956742 84.9983052,130.338133 85.2336048,130.573368 C85.4689043,130.808603 85.8504003,130.808603 86.0856998,130.573368 L86.4384903,130.220675 C86.6737898,129.985439 86.6737898,129.604048 86.4384903,129.368813 C86.2031907,129.133578 85.8216948,129.133578 85.5863952,129.368813 L85.5863952,129.368813 Z" id="Path"></path>
                <path d="M78.8563864,131.777924 C78.6210869,131.542689 78.2395909,131.542689 78.0042914,131.777924 C77.7689919,132.013159 77.7689918,132.39455 78.0042914,132.629785 L78.3570819,132.982479 C78.5923814,133.217714 78.9738773,133.217714 79.2091769,132.982479 C79.4444764,132.747244 79.4444764,132.365853 79.2091769,132.130618 L78.8563864,131.777924 Z" id="Path"></path>
                <path d="M83.6759287,132.982479 C83.4406291,132.747244 83.0591332,132.747244 82.8238337,132.982479 C82.5885341,133.217714 82.5885341,133.599106 82.8238336,133.834341 L83.1766241,134.187035 C83.4119237,134.42227 83.7934196,134.42227 84.0287192,134.187035 C84.2640187,133.9518 84.2640187,133.570408 84.0287192,133.335173 L83.6759287,132.982479 Z" id="Path"></path>
                <path d="M81.2661576,136.596145 C81.030858,136.36091 80.6493621,136.36091 80.4140625,136.596145 C80.178763,136.831381 80.178763,137.212772 80.4140625,137.448007 L80.766853,137.800701 C81.0021526,138.035936 81.3836485,138.035936 81.618948,137.800701 C81.8542476,137.565466 81.8542476,137.184074 81.6189481,136.948839 L81.2661576,136.596145 Z" id="Path"></path>
                <path d="M85.5863952,135.39159 L85.2336048,135.744284 C84.9983052,135.979519 84.9983052,136.36091 85.2336048,136.596145 C85.4689043,136.83138 85.8504003,136.83138 86.0856998,136.596145 L86.4384903,136.243452 C86.6737898,136.008217 86.6737898,135.626825 86.4384903,135.39159 C86.2031907,135.156355 85.8216948,135.156355 85.5863952,135.39159 L85.5863952,135.39159 Z" id="Path"></path>
                <path d="M83.6759287,126.959702 C83.4406291,126.724467 83.0591332,126.724467 82.8238337,126.959702 C82.5885341,127.194937 82.5885341,127.576329 82.8238336,127.811564 L83.1766241,128.164258 C83.4119237,128.399493 83.7934196,128.399493 84.0287192,128.164258 C84.2640187,127.929022 84.2640187,127.547631 84.0287192,127.312396 L83.6759287,126.959702 Z" id="Path"></path>
                <path d="M81.9717386,157.025405 L81.6189481,157.378099 C81.3836485,157.613334 81.3836485,157.994725 81.6189481,158.229961 C81.8542476,158.465196 82.2357436,158.465196 82.4710431,158.229961 L82.8238336,157.877267 C83.0591331,157.642032 83.0591331,157.26064 82.8238336,157.025405 C82.588534,156.79017 82.2070381,156.79017 81.9717386,157.025405 Z" id="Path"></path>
                <path d="M84.0287192,152.207184 C83.7933277,151.97217 83.4120156,151.97217 83.1766241,152.207184 L82.8238336,152.559877 C82.5885341,152.795112 82.5885341,153.176504 82.8238336,153.411739 C83.0591332,153.646974 83.4406291,153.646974 83.6759287,153.411739 L84.0287192,153.059045 C84.2637967,152.823718 84.2637967,152.442511 84.0287192,152.207184 L84.0287192,152.207184 Z" id="Path"></path>
                <path d="M212.726884,130.171529 C212.309791,129.753143 212.004813,129.23648 211.840088,128.669207 C212.243977,128.470299 212.499794,128.059311 212.499883,127.609198 L212.499883,126.356461 C212.499087,125.704839 211.970896,125.176793 211.319096,125.175996 L196.414661,125.175996 C195.76286,125.176793 195.23467,125.704839 195.233873,126.356461 L195.233873,127.609198 C195.233758,128.059235 195.489406,128.470251 195.893187,128.669207 C195.728461,129.23648 195.423484,129.753143 195.006391,130.171529 C194.119061,131.053929 193.621684,132.254522 193.62511,133.505738 L193.62511,154.396102 C193.621987,155.514991 194.066793,156.588617 194.860359,157.377617 L195.961624,158.478581 C196.00864,158.52521 196.035023,158.588719 196.034881,158.654928 C196.035943,159.457586 196.68654,160.108005 197.489419,160.109067 L210.243856,160.109067 C211.046734,160.108005 211.697331,159.457586 211.698393,158.654928 C211.698252,158.588719 211.724634,158.52521 211.771651,158.478581 L212.872916,157.377617 C213.666482,156.588617 214.111287,155.514991 214.108165,154.396102 L214.108165,133.505738 C214.11159,132.254522 213.614214,131.053929 212.726884,130.171529 L212.726884,130.171529 Z M196.436831,126.381516 L211.29307,126.381516 L211.29307,127.586071 L196.438759,127.586071 L196.436831,126.381516 Z M194.828068,143.880815 L198.596468,142.661805 L198.516945,137.079895 L201.794234,141.60035 L207.08079,139.800263 L203.79338,144.312527 L207.139588,148.781428 L201.830863,147.050241 L198.613336,151.612133 L198.620084,146.029742 L194.829996,144.859396 L194.828068,143.880815 Z M212.901351,154.396102 C212.903561,155.195331 212.585789,155.962215 212.018893,156.525756 L210.919555,157.627683 C210.645961,157.899833 210.492561,158.270044 210.493508,158.655891 C210.493508,158.793733 210.381735,158.905475 210.243856,158.905475 L197.489419,158.905475 C197.35154,158.905475 197.239767,158.793733 197.239767,158.655891 C197.240714,158.270044 197.087314,157.899833 196.813719,157.627683 L195.712454,156.526719 C195.145558,155.963179 194.827786,155.196295 194.829996,154.397065 L194.829996,146.118879 L197.414234,146.91774 L197.404113,155.417565 L202.303178,148.473062 L210.386032,151.109111 L205.291294,144.304818 L210.296871,137.434034 L202.248235,140.175602 L197.260009,133.290845 L197.380979,141.789707 L194.829996,142.615068 L194.829996,133.505738 C194.827483,132.574182 195.197825,131.68033 195.858486,131.02339 C196.471776,130.407709 196.903935,129.635304 197.107711,128.790626 L210.625563,128.790626 C210.82934,129.635304 211.261498,130.407709 211.874789,131.02339 C212.535449,131.68033 212.905792,132.574182 212.903279,133.505738 L212.901351,154.396102 Z" id="Shape"></path>
                <path d="M211.216439,133.488392 C210.883719,133.488392 210.613996,133.758041 210.613996,134.09067 L210.613996,144.931669 C210.613996,145.264298 210.883719,145.533947 211.216439,145.533947 C211.549159,145.533947 211.818882,145.264298 211.818882,144.931669 L211.818882,134.09067 C211.818882,133.758041 211.549159,133.488392 211.216439,133.488392 Z" id="Path"></path>
                <path d="M211.216439,146.69032 C210.883719,146.69032 210.613996,146.959969 210.613996,147.292597 L210.613996,149.701708 C210.613996,150.034337 210.883719,150.303986 211.216439,150.303986 C211.549159,150.303986 211.818882,150.034337 211.818882,149.701708 L211.818882,147.292597 C211.818882,146.959969 211.549159,146.69032 211.216439,146.69032 Z" id="Path"></path>
                <path d="M211.216439,151.556724 C210.883719,151.556724 210.613996,151.826373 210.613996,152.159001 L210.613996,153.363557 C210.613996,153.696186 210.883719,153.965834 211.216439,153.965834 C211.549159,153.965834 211.818882,153.696186 211.818882,153.363557 L211.818882,152.159001 C211.818882,151.826373 211.549159,151.556724 211.216439,151.556724 Z" id="Path"></path>
                <path d="M201.93882,220.279895 L201.047205,207.578581 C200.654361,201.841379 195.884592,197.388181 190.132388,197.388181 C184.380183,197.388181 179.610415,201.841379 179.21757,207.578581 L178.323063,220.279895 C178.008501,224.697217 180.187477,228.920416 183.970181,231.224895 C187.752885,233.529374 192.506107,233.529374 196.288811,231.224895 C200.071515,228.920416 202.250491,224.697217 201.935929,220.279895 L201.93882,220.279895 Z M199.845211,207.6629 L200.110286,211.43894 L190.733385,211.43894 L190.733385,208.953701 C191.796588,208.677681 192.539354,207.718884 192.540713,206.620718 L192.540713,204.211608 C192.539354,203.113442 191.796588,202.154645 190.733385,201.878625 L190.733385,198.629698 C195.553891,198.928428 199.501578,202.78975 199.843765,207.662418 L199.845211,207.6629 Z M190.130942,203.00657 C190.796382,203.00657 191.335827,203.545868 191.335827,204.211126 L191.335827,206.620237 C191.335827,207.285494 190.796382,207.824792 190.130942,207.824792 C189.465502,207.824792 188.926056,207.285494 188.926056,206.620237 L188.926056,204.211126 C188.926056,203.545868 189.465502,203.00657 190.130942,203.00657 Z M189.528499,198.629216 L189.528499,201.878143 C188.465296,202.154163 187.72253,203.11296 187.721171,204.211126 L187.721171,206.620237 C187.72253,207.718402 188.465296,208.677199 189.528499,208.953219 L189.528499,211.438458 L180.154489,211.438458 L180.419564,207.662418 C180.760306,202.78975 184.707993,198.928428 189.528499,198.629216 Z M197.906309,228.354753 C194.834916,231.646809 190.021998,232.647116 185.892645,230.851648 C181.763291,229.056181 179.213465,224.854508 179.527949,220.363732 L180.070147,212.643014 L200.194628,212.643014 L200.733935,220.363732 C200.953731,223.305927 199.927818,226.20521 197.906309,228.354753 L197.906309,228.354753 Z" id="Shape"></path>
                <path d="M186.034331,217.461235 C186.030923,219.891674 187.245906,222.162132 189.270172,223.508103 L190.036479,224.018835 C190.166483,224.106114 190.336378,224.106114 190.466382,224.018835 L191.232689,223.508103 C192.487181,222.675079 193.450128,221.471177 193.987058,220.06452 L194.089714,219.796145 C194.156185,219.62482 194.092439,219.430408 193.937416,219.331669 L193.937416,219.331669 C193.875031,219.291586 193.802406,219.27034 193.728248,219.270477 L189.637903,219.270477 C189.504399,219.269456 189.379868,219.337552 189.308713,219.450487 C189.237557,219.563421 189.229906,219.705119 189.288486,219.825055 L189.495244,220.255322 C189.559317,220.389813 189.695172,220.475356 189.844179,220.475033 L192.463118,220.475033 C191.997027,221.290622 191.346779,221.986065 190.564219,222.505913 L190.25143,222.714542 L189.938642,222.505913 C188.427357,221.501454 187.447316,219.871449 187.269098,218.065922 L194.082967,218.065922 C194.295907,218.065922 194.46853,217.893347 194.46853,217.680464 L194.46853,217.244415 C194.46853,217.031533 194.295907,216.858958 194.082967,216.858958 L186.419894,216.858958 C186.206954,216.858958 186.034331,217.031533 186.034331,217.244415 L186.034331,217.461235 Z" id="Path"></path>
            </g>
        </g>
    </g>
</svg>