<svg xmlns="http://www.w3.org/2000/svg" width="600" height="788" viewBox="0 0 600 788">
    <g fill="none" fill-rule="evenodd">
        <path fill="#2D2D32" fill-rule="nonzero" d="M506.016 735.26c9.732 3.398 15.2 6.227 23.131 12.882 7.868 6.602 10.983 10.81 15.937 19.9 4.588 8.708 7.846 13.11 15.937 19.9l1.286-1.532c-7.868-6.603-10.983-10.81-15.937-19.9-4.588-8.708-7.846-13.111-15.937-19.9-8.14-6.83-13.81-9.764-23.897-13.525.047.206-14.58-5.707-20.833-10.954l-1.286 1.532c6.466 5.425 21.5 11.513 21.599 11.597z"/>
        <path fill="#2D2D32" fill-rule="nonzero" d="M429.412 670.98c9.732 3.4 15.2 6.228 23.13 12.883 7.869 6.602 10.983 10.81 15.938 19.9 4.588 8.708 7.846 13.11 15.937 19.9l1.286-1.532c-7.869-6.602-10.983-10.81-15.938-19.9-4.587-8.708-7.846-13.11-15.937-19.9-8.14-6.83-13.81-9.764-23.897-13.525.048.206-14.58-5.707-20.833-10.954l-1.285 1.532c6.465 5.426 21.5 11.514 21.599 11.597zM352.807 606.702c9.732 3.398 15.2 6.228 23.131 12.882 7.868 6.603 10.983 10.81 15.937 19.9 4.588 8.708 7.846 13.11 15.938 19.9l1.285-1.532c-7.868-6.602-10.982-10.81-15.937-19.9-4.588-8.708-7.846-13.11-15.937-19.9-8.14-6.83-13.81-9.764-23.897-13.525.047.206-14.58-5.706-20.833-10.954l-1.286 1.532c6.466 5.426 21.5 11.514 21.6 11.597z"/>
        <g fill="#2D2D32" fill-rule="nonzero">
            <path d="M595.476 784.217c9.732 3.399 15.2 6.228 23.131 12.883 7.868 6.602 10.983 10.81 15.937 19.9 4.588 8.708 7.847 13.11 15.938 19.9l1.285-1.533c-7.868-6.602-10.982-10.81-15.937-19.9-4.588-8.707-7.846-13.11-15.937-19.9-8.14-6.83-13.81-9.763-23.897-13.524.047.206-14.58-5.707-20.833-10.954l-1.286 1.532c6.466 5.425 21.5 11.513 21.6 11.596zM518.872 719.939c9.732 3.398 15.2 6.227 23.13 12.882 7.869 6.602 10.983 10.81 15.938 19.9 4.588 8.708 7.846 13.11 15.937 19.9l1.286-1.532c-7.868-6.602-10.983-10.81-15.937-19.9-4.588-8.708-7.846-13.11-15.938-19.9-8.14-6.83-13.81-9.764-23.897-13.525.048.206-14.58-5.707-20.833-10.954l-1.285 1.532c6.466 5.425 21.5 11.513 21.599 11.597z"/>
            <path d="M442.267 655.66c9.733 3.398 15.2 6.227 23.131 12.882 7.869 6.602 10.983 10.81 15.938 19.9 4.587 8.708 7.846 13.11 15.937 19.9l1.285-1.532c-7.868-6.602-10.982-10.81-15.937-19.9-4.588-8.708-7.846-13.11-15.937-19.9-8.14-6.83-13.81-9.764-23.897-13.525.047.206-14.58-5.706-20.833-10.954l-1.286 1.532c6.466 5.426 21.5 11.514 21.6 11.597zM365.663 591.381c9.732 3.399 15.2 6.228 23.13 12.882 7.87 6.603 10.983 10.81 15.938 19.9 4.588 8.708 7.846 13.111 15.937 19.9l1.286-1.532c-7.868-6.602-10.983-10.81-15.937-19.9-4.588-8.708-7.846-13.11-15.937-19.9-8.14-6.83-13.81-9.763-23.898-13.525.048.206-14.579-5.706-20.833-10.954l-1.285 1.533c6.466 5.425 21.5 11.513 21.599 11.596z"/>
        </g>
        <path fill="#2D2D32" fill-rule="nonzero" d="M455.123 640.34c9.732 3.397 15.2 6.227 23.131 12.881 7.868 6.602 10.983 10.81 15.937 19.9 4.588 8.708 7.846 13.11 15.937 19.9l1.286-1.532c-7.868-6.602-10.982-10.81-15.937-19.9-4.588-8.708-7.846-13.11-15.937-19.9-8.14-6.83-13.81-9.764-23.897-13.525.047.206-14.58-5.706-20.833-10.954l-1.286 1.532c6.466 5.426 21.5 11.514 21.599 11.597z"/>
        <path fill="#2D2D32" fill-rule="nonzero" d="M378.519 576.06c9.732 3.399 15.2 6.228 23.13 12.883 7.869 6.602 10.983 10.81 15.938 19.9 4.588 8.707 7.846 13.11 15.937 19.9l1.286-1.533c-7.869-6.602-10.983-10.81-15.938-19.9-4.587-8.708-7.846-13.11-15.937-19.9-8.14-6.83-13.81-9.763-23.897-13.525.048.206-14.58-5.706-20.833-10.953l-1.285 1.532c6.465 5.425 21.5 11.513 21.599 11.596z"/>
        <g fill="#2D2D32" fill-rule="nonzero">
            <path d="M634.043 738.255c9.733 3.398 15.2 6.227 23.132 12.882 7.868 6.602 10.982 10.81 15.937 19.9 4.587 8.708 7.846 13.11 15.937 19.9l1.285-1.532c-7.868-6.602-10.982-10.81-15.937-19.9-4.587-8.708-7.846-13.11-15.937-19.9-8.14-6.83-13.81-9.764-23.897-13.525.048.206-14.58-5.707-20.833-10.954l-1.286 1.532c6.466 5.426 21.5 11.514 21.6 11.597zM557.439 673.976c9.732 3.398 15.2 6.227 23.131 12.882 7.868 6.602 10.983 10.81 15.937 19.9 4.588 8.708 7.846 13.11 15.937 19.9l1.286-1.532c-7.868-6.602-10.983-10.81-15.937-19.9-4.588-8.708-7.846-13.11-15.937-19.9-8.14-6.83-13.81-9.764-23.897-13.525.047.206-14.58-5.706-20.833-10.954l-1.286 1.532c6.466 5.426 21.5 11.514 21.599 11.597z"/>
            <path d="M480.835 609.697c9.732 3.399 15.2 6.228 23.13 12.883 7.869 6.602 10.983 10.81 15.938 19.9 4.588 8.707 7.846 13.11 15.937 19.9l1.286-1.533c-7.869-6.602-10.983-10.81-15.938-19.9-4.587-8.708-7.846-13.11-15.937-19.9-8.14-6.83-13.81-9.763-23.897-13.525.048.206-14.58-5.706-20.833-10.953l-1.285 1.532c6.465 5.425 21.5 11.513 21.599 11.596zM404.23 545.419c9.732 3.398 15.2 6.227 23.131 12.882 7.868 6.602 10.983 10.81 15.937 19.9 4.588 8.708 7.846 13.11 15.938 19.9l1.285-1.532c-7.868-6.603-10.982-10.81-15.937-19.9-4.588-8.708-7.846-13.111-15.937-19.9-8.14-6.83-13.81-9.764-23.897-13.525.047.206-14.58-5.707-20.833-10.954l-1.286 1.532c6.466 5.425 21.5 11.513 21.6 11.597z"/>
        </g>
        <g fill="#2D2D32" fill-rule="nonzero">
            <path d="M621.188 753.576c9.732 3.398 15.2 6.227 23.13 12.882 7.869 6.602 10.983 10.81 15.938 19.9 4.588 8.708 7.846 13.11 15.937 19.9l1.286-1.532c-7.868-6.602-10.983-10.81-15.937-19.9-4.588-8.708-7.847-13.11-15.938-19.9-8.14-6.83-13.81-9.764-23.897-13.525.048.206-14.58-5.707-20.833-10.954l-1.285 1.532c6.465 5.425 21.5 11.513 21.599 11.597zM544.583 689.297c9.732 3.398 15.2 6.227 23.131 12.882 7.868 6.602 10.983 10.81 15.937 19.9 4.588 8.708 7.847 13.11 15.938 19.9l1.285-1.532c-7.868-6.602-10.982-10.81-15.937-19.9-4.588-8.708-7.846-13.11-15.937-19.9-8.14-6.83-13.81-9.764-23.897-13.525.047.206-14.58-5.706-20.833-10.954l-1.286 1.532c6.466 5.426 21.5 11.514 21.6 11.597zM467.979 625.018c9.732 3.399 15.2 6.228 23.13 12.882 7.869 6.603 10.983 10.81 15.938 19.9 4.588 8.708 7.846 13.111 15.937 19.9l1.286-1.532c-7.868-6.602-10.983-10.81-15.937-19.9-4.588-8.708-7.846-13.11-15.938-19.9-8.14-6.83-13.81-9.763-23.897-13.525.048.206-14.579-5.706-20.833-10.954l-1.285 1.532c6.466 5.426 21.5 11.514 21.599 11.597z"/>
            <path d="M391.374 560.74c9.733 3.398 15.2 6.227 23.131 12.882 7.869 6.602 10.983 10.81 15.938 19.9 4.587 8.708 7.846 13.11 15.937 19.9l1.285-1.533c-7.868-6.602-10.982-10.81-15.937-19.9-4.588-8.708-7.846-13.11-15.937-19.9-8.14-6.83-13.81-9.763-23.897-13.524.048.205-14.58-5.707-20.833-10.954l-1.286 1.532c6.466 5.425 21.5 11.513 21.6 11.596z"/>
        </g>
        <path fill="#2D2D32" fill-rule="nonzero" d="M646.9 722.934c9.731 3.398 15.2 6.227 23.13 12.882 7.868 6.602 10.983 10.81 15.937 19.9 4.588 8.708 7.847 13.11 15.938 19.9l1.285-1.532c-7.868-6.602-10.982-10.81-15.937-19.9-4.588-8.708-7.846-13.11-15.937-19.9-8.14-6.83-13.81-9.764-23.897-13.525.047.206-14.58-5.706-20.833-10.954l-1.286 1.532c6.466 5.426 21.5 11.514 21.6 11.597zM570.295 658.655c9.732 3.399 15.2 6.228 23.13 12.882 7.869 6.603 10.983 10.81 15.938 19.9 4.588 8.708 7.846 13.111 15.937 19.9l1.286-1.532c-7.868-6.602-10.983-10.81-15.937-19.9-4.588-8.708-7.846-13.11-15.938-19.9-8.14-6.83-13.81-9.764-23.897-13.525.048.206-14.58-5.706-20.833-10.954l-1.285 1.532c6.466 5.426 21.5 11.514 21.599 11.597zM417.086 530.098c9.732 3.398 15.2 6.227 23.13 12.882 7.87 6.602 10.983 10.81 15.938 19.9 4.588 8.708 7.846 13.11 15.937 19.9l1.286-1.532c-7.868-6.603-10.983-10.81-15.937-19.9-4.588-8.708-7.846-13.11-15.937-19.9-8.14-6.83-13.81-9.764-23.898-13.525.048.206-14.579-5.707-20.833-10.954l-1.285 1.532c6.466 5.425 21.5 11.513 21.599 11.597z"/>
        <g fill="#2D2D32" fill-rule="nonzero">
            <path d="M596.006 628.013c9.732 3.399 15.2 6.228 23.131 12.883 7.868 6.602 10.983 10.81 15.938 19.9 4.587 8.708 7.846 13.11 15.937 19.9l1.285-1.533c-7.868-6.602-10.982-10.81-15.937-19.9-4.588-8.708-7.846-13.11-15.937-19.9-8.14-6.83-13.81-9.763-23.897-13.524.047.205-14.58-5.707-20.833-10.954l-1.286 1.532c6.466 5.425 21.5 11.513 21.6 11.596zM519.402 563.735c9.732 3.398 15.2 6.227 23.13 12.882 7.869 6.602 10.983 10.81 15.938 19.9 4.588 8.708 7.846 13.11 15.937 19.9l1.286-1.532c-7.868-6.603-10.983-10.81-15.937-19.9-4.588-8.708-7.846-13.111-15.938-19.9-8.14-6.83-13.81-9.764-23.897-13.525.048.206-14.579-5.707-20.833-10.954l-1.285 1.532c6.466 5.425 21.5 11.513 21.599 11.597zM442.797 499.456c9.733 3.398 15.2 6.227 23.131 12.882 7.869 6.602 10.983 10.81 15.938 19.9 4.587 8.708 7.846 13.11 15.937 19.9l1.285-1.532c-7.868-6.602-10.982-10.81-15.937-19.9-4.588-8.708-7.846-13.11-15.937-19.9-8.14-6.83-13.81-9.764-23.897-13.525.048.206-14.58-5.707-20.833-10.954l-1.286 1.532c6.466 5.426 21.5 11.514 21.6 11.597z"/>
        </g>
        <g fill="#2D2D32" fill-rule="nonzero">
            <path d="M583.15 643.334c9.733 3.399 15.2 6.228 23.132 12.883 7.868 6.602 10.982 10.81 15.937 19.9 4.588 8.707 7.846 13.11 15.937 19.9l1.286-1.533c-7.869-6.602-10.983-10.81-15.938-19.9-4.587-8.708-7.846-13.11-15.937-19.9-8.14-6.83-13.81-9.763-23.897-13.525.048.206-14.58-5.706-20.833-10.953l-1.286 1.532c6.466 5.425 21.5 11.513 21.6 11.596z"/>
            <path d="M506.546 579.056c9.732 3.398 15.2 6.227 23.131 12.882 7.868 6.602 10.983 10.81 15.937 19.9 4.588 8.708 7.846 13.11 15.937 19.9l1.286-1.532c-7.868-6.603-10.982-10.81-15.937-19.9-4.588-8.708-7.846-13.111-15.937-19.9-8.14-6.83-13.81-9.764-23.897-13.525.047.206-14.58-5.707-20.833-10.954l-1.286 1.532c6.466 5.425 21.5 11.513 21.599 11.597zM429.942 514.777c9.732 3.398 15.2 6.227 23.13 12.882 7.869 6.602 10.983 10.81 15.938 19.9 4.588 8.708 7.846 13.11 15.937 19.9l1.286-1.532c-7.869-6.602-10.983-10.81-15.938-19.9-4.587-8.708-7.846-13.11-15.937-19.9-8.14-6.83-13.81-9.764-23.897-13.525.048.206-14.58-5.707-20.833-10.954l-1.285 1.532c6.465 5.426 21.5 11.514 21.599 11.597z"/>
        </g>
        <path fill="#2D2D32" fill-rule="nonzero" d="M711.178 646.33c9.732 3.398 15.2 6.227 23.131 12.882 7.868 6.602 10.983 10.81 15.937 19.9 4.588 8.708 7.846 13.11 15.937 19.9l1.286-1.533c-7.868-6.602-10.983-10.81-15.937-19.9-4.588-8.707-7.846-13.11-15.937-19.9-8.14-6.83-13.81-9.763-23.898-13.524.048.206-14.579-5.707-20.832-10.954l-1.286 1.532c6.466 5.425 21.5 11.513 21.599 11.596zM634.573 582.05c9.733 3.4 15.2 6.228 23.132 12.883 7.868 6.602 10.982 10.81 15.937 19.9 4.588 8.708 7.846 13.11 15.937 19.9l1.286-1.532c-7.869-6.602-10.983-10.81-15.938-19.9-4.587-8.708-7.846-13.11-15.937-19.9-8.14-6.83-13.81-9.764-23.897-13.525.048.206-14.58-5.707-20.833-10.954l-1.286 1.532c6.466 5.425 21.5 11.514 21.6 11.597z"/>
        <path fill="#2D2D32" fill-rule="nonzero" d="M557.97 517.772c9.731 3.398 15.2 6.227 23.13 12.882 7.868 6.602 10.983 10.81 15.937 19.9 4.588 8.708 7.846 13.11 15.937 19.9l1.286-1.532c-7.868-6.602-10.982-10.81-15.937-19.9-4.588-8.708-7.846-13.11-15.937-19.9-8.14-6.83-13.81-9.764-23.897-13.525.047.206-14.58-5.706-20.833-10.954l-1.286 1.532c6.466 5.426 21.5 11.514 21.6 11.597z"/>
        <g fill="#2D2D32" fill-rule="nonzero">
            <path d="M762.07 741.25c9.733 3.398 15.201 6.227 23.132 12.882 7.868 6.602 10.982 10.81 15.937 19.9 4.588 8.708 7.846 13.11 15.937 19.9l1.286-1.532c-7.868-6.602-10.983-10.81-15.937-19.9-4.588-8.708-7.846-13.11-15.937-19.9-8.14-6.83-13.81-9.764-23.898-13.525.048.206-14.579-5.706-20.833-10.954l-1.285 1.532c6.466 5.426 21.5 11.514 21.599 11.597z"/>
            <path d="M685.466 676.971c9.733 3.399 15.2 6.228 23.132 12.883 7.868 6.602 10.982 10.81 15.937 19.9 4.587 8.707 7.846 13.11 15.937 19.9l1.285-1.533c-7.868-6.602-10.982-10.81-15.937-19.9-4.587-8.708-7.846-13.11-15.937-19.9-8.14-6.83-13.81-9.763-23.897-13.525.048.206-14.58-5.706-20.833-10.954l-1.286 1.533c6.466 5.425 21.5 11.513 21.6 11.596zM608.862 612.692c9.732 3.399 15.2 6.228 23.131 12.883 7.868 6.602 10.983 10.81 15.937 19.9 4.588 8.708 7.846 13.11 15.937 19.9l1.286-1.533c-7.868-6.602-10.983-10.81-15.937-19.9-4.588-8.707-7.846-13.11-15.937-19.9-8.14-6.83-13.81-9.763-23.897-13.524.047.206-14.58-5.707-20.833-10.954l-1.286 1.532c6.466 5.425 21.5 11.513 21.599 11.596zM532.258 548.414c9.732 3.398 15.2 6.227 23.13 12.882 7.869 6.602 10.983 10.81 15.938 19.9 4.588 8.708 7.846 13.11 15.937 19.9l1.286-1.532c-7.869-6.602-10.983-10.81-15.938-19.9-4.587-8.708-7.846-13.11-15.937-19.9-8.14-6.83-13.81-9.764-23.897-13.525.048.206-14.58-5.707-20.833-10.954l-1.285 1.532c6.465 5.426 21.5 11.514 21.599 11.597z"/>
            <path d="M455.653 484.135c9.732 3.398 15.2 6.227 23.131 12.882 7.868 6.602 10.983 10.81 15.937 19.9 4.588 8.708 7.846 13.11 15.938 19.9l1.285-1.532c-7.868-6.602-10.982-10.81-15.937-19.9-4.588-8.708-7.846-13.11-15.937-19.9-8.14-6.83-13.81-9.764-23.897-13.525.047.206-14.58-5.706-20.833-10.954l-1.286 1.532c6.466 5.426 21.5 11.514 21.6 11.597z"/>
        </g>
        <path fill="#2D2D32" fill-rule="nonzero" d="M813.494 679.966c9.732 3.399 15.2 6.228 23.131 12.883 7.868 6.602 10.982 10.81 15.937 19.9 4.588 8.708 7.846 13.11 15.937 19.9l1.286-1.533c-7.868-6.602-10.983-10.81-15.937-19.9-4.588-8.707-7.846-13.11-15.937-19.9-8.14-6.83-13.81-9.763-23.898-13.524.048.206-14.579-5.707-20.833-10.954l-1.285 1.532c6.466 5.425 21.5 11.513 21.599 11.596zM583.68 487.13c9.733 3.399 15.2 6.228 23.132 12.882 7.868 6.603 10.982 10.81 15.937 19.9 4.588 8.708 7.846 13.111 15.937 19.9l1.286-1.532c-7.869-6.602-10.983-10.81-15.938-19.9-4.587-8.708-7.846-13.11-15.937-19.9-8.14-6.83-13.81-9.763-23.897-13.525.048.206-14.58-5.706-20.833-10.954l-1.285 1.532c6.465 5.426 21.5 11.514 21.599 11.597z"/>
        <path fill="#2D2D32" fill-rule="nonzero" d="M507.076 422.851c9.732 3.399 15.2 6.228 23.131 12.883 7.868 6.602 10.983 10.81 15.937 19.9 4.588 8.708 7.846 13.11 15.938 19.9l1.285-1.533c-7.868-6.602-10.982-10.81-15.937-19.9-4.588-8.708-7.846-13.11-15.937-19.9-8.14-6.83-13.81-9.763-23.897-13.524.047.205-14.58-5.707-20.833-10.954l-1.286 1.532c6.466 5.425 21.5 11.513 21.6 11.596z"/>
        <g>
            <path fill="#2D2D32" fill-rule="nonzero" d="M902.954 728.924c9.732 3.399 15.2 6.228 23.131 12.883 7.868 6.602 10.983 10.81 15.937 19.9 4.588 8.708 7.846 13.11 15.938 19.9l1.285-1.533c-7.868-6.602-10.982-10.81-15.937-19.9-4.588-8.708-7.846-13.11-15.937-19.9-8.14-6.83-13.81-9.763-23.897-13.525.047.206-14.58-5.706-20.833-10.953l-1.286 1.532c6.466 5.425 21.5 11.513 21.6 11.596zM826.35 664.646c9.732 3.398 15.2 6.227 23.13 12.882 7.869 6.602 10.983 10.81 15.938 19.9 4.588 8.708 7.846 13.11 15.937 19.9l1.286-1.532c-7.868-6.603-10.983-10.81-15.938-19.9-4.587-8.708-7.846-13.111-15.937-19.9-8.14-6.83-13.81-9.764-23.897-13.525.048.206-14.58-5.707-20.833-10.954l-1.285 1.532c6.465 5.425 21.5 11.513 21.599 11.597zM749.745 600.367c9.732 3.398 15.2 6.227 23.131 12.882 7.868 6.602 10.983 10.81 15.937 19.9 4.588 8.708 7.847 13.11 15.938 19.9l1.285-1.532c-7.868-6.602-10.982-10.81-15.937-19.9-4.588-8.708-7.846-13.11-15.937-19.9-8.14-6.83-13.81-9.764-23.897-13.525.047.206-14.58-5.707-20.833-10.954l-1.286 1.532c6.466 5.426 21.5 11.514 21.6 11.597zM673.14 536.088c9.733 3.398 15.2 6.227 23.132 12.882 7.868 6.602 10.982 10.81 15.937 19.9 4.588 8.708 7.846 13.11 15.937 19.9l1.286-1.532c-7.868-6.602-10.983-10.81-15.937-19.9-4.588-8.708-7.846-13.11-15.938-19.9-8.14-6.83-13.81-9.764-23.897-13.525.048.206-14.58-5.706-20.833-10.954l-1.285 1.532c6.466 5.426 21.5 11.514 21.599 11.597z"/>
            <path fill="#2D2D32" fill-rule="nonzero" d="M596.536 471.81c9.733 3.398 15.2 6.227 23.131 12.882 7.869 6.602 10.983 10.81 15.938 19.9 4.587 8.707 7.846 13.11 15.937 19.9l1.285-1.533c-7.868-6.602-10.982-10.81-15.937-19.9-4.588-8.708-7.846-13.11-15.937-19.9-8.14-6.83-13.81-9.763-23.897-13.525.047.206-14.58-5.706-20.833-10.953l-1.286 1.532c6.466 5.425 21.5 11.513 21.6 11.596z"/>
        </g>
        <g fill="#2D2D32" fill-rule="nonzero">
            <path d="M839.205 649.325c9.733 3.398 15.2 6.227 23.131 12.882 7.869 6.602 10.983 10.81 15.938 19.9 4.587 8.708 7.846 13.11 15.937 19.9l1.285-1.532c-7.868-6.602-10.982-10.81-15.937-19.9-4.588-8.708-7.846-13.11-15.937-19.9-8.14-6.83-13.81-9.764-23.897-13.525.048.206-14.58-5.707-20.833-10.954l-1.286 1.532c6.466 5.425 21.5 11.513 21.6 11.597zM762.601 585.046c9.732 3.398 15.2 6.227 23.131 12.882 7.868 6.602 10.983 10.81 15.937 19.9 4.588 8.708 7.846 13.11 15.937 19.9l1.286-1.532c-7.868-6.602-10.983-10.81-15.937-19.9-4.588-8.708-7.846-13.11-15.937-19.9-8.14-6.83-13.81-9.764-23.898-13.525.048.206-14.579-5.706-20.832-10.954l-1.286 1.532c6.466 5.426 21.5 11.514 21.599 11.597zM685.997 520.767c9.732 3.399 15.2 6.228 23.13 12.882 7.869 6.603 10.983 10.81 15.938 19.9 4.588 8.708 7.846 13.111 15.937 19.9l1.286-1.532c-7.869-6.602-10.983-10.81-15.938-19.9-4.587-8.708-7.846-13.11-15.937-19.9-8.14-6.83-13.81-9.764-23.897-13.525.048.206-14.58-5.706-20.833-10.954l-1.285 1.532c6.465 5.426 21.5 11.514 21.599 11.597z"/>
            <path d="M609.392 456.488c9.732 3.399 15.2 6.228 23.131 12.883 7.868 6.602 10.983 10.81 15.937 19.9 4.588 8.708 7.846 13.11 15.938 19.9l1.285-1.533c-7.868-6.602-10.982-10.81-15.937-19.9-4.588-8.708-7.846-13.11-15.937-19.9-8.14-6.83-13.81-9.763-23.897-13.524.047.205-14.58-5.707-20.833-10.954l-1.286 1.532c6.466 5.425 21.5 11.513 21.6 11.596z"/>
            <path d="M532.788 392.21c9.732 3.398 15.2 6.227 23.13 12.882 7.869 6.602 10.983 10.81 15.938 19.9 4.588 8.708 7.846 13.11 15.937 19.9l1.286-1.532c-7.869-6.603-10.983-10.81-15.938-19.9-4.587-8.708-7.846-13.11-15.937-19.9-8.14-6.83-13.81-9.764-23.897-13.525.048.206-14.58-5.707-20.833-10.954l-1.285 1.532c6.465 5.425 21.5 11.513 21.599 11.597z"/>
        </g>
        <g>
            <path fill="#2D2D32" fill-rule="nonzero" d="M698.322 661.65c9.732 3.399 15.2 6.228 23.131 12.883 7.868 6.602 10.983 10.81 15.937 19.9 4.588 8.708 7.847 13.11 15.938 19.9l1.285-1.533c-7.868-6.602-10.982-10.81-15.937-19.9-4.588-8.708-7.846-13.11-15.937-19.9-8.14-6.83-13.81-9.763-23.897-13.525.047.206-14.58-5.706-20.833-10.953l-1.286 1.532c6.466 5.425 21.5 11.513 21.6 11.596zM545.113 533.093c9.733 3.398 15.2 6.227 23.131 12.882 7.869 6.602 10.983 10.81 15.938 19.9 4.587 8.708 7.846 13.11 15.937 19.9l1.285-1.532c-7.868-6.602-10.982-10.81-15.937-19.9-4.588-8.708-7.846-13.11-15.937-19.9-8.14-6.83-13.81-9.764-23.897-13.525.047.206-14.58-5.707-20.833-10.954l-1.286 1.532c6.466 5.426 21.5 11.514 21.6 11.597z"/>
            <path fill="#2D2D32" fill-rule="nonzero" d="M468.509 468.814c9.732 3.398 15.2 6.228 23.131 12.882 7.868 6.603 10.982 10.81 15.937 19.9 4.588 8.708 7.846 13.11 15.937 19.9l1.286-1.532c-7.868-6.602-10.983-10.81-15.937-19.9-4.588-8.708-7.846-13.11-15.937-19.9-8.14-6.83-13.81-9.764-23.898-13.525.048.206-14.579-5.706-20.833-10.954l-1.285 1.532c6.466 5.426 21.5 11.514 21.599 11.597z"/>
        </g>
        <g>
            <path fill="#2D2D32" fill-rule="nonzero" d="M724.034 631.009c9.732 3.398 15.2 6.227 23.13 12.882 7.869 6.602 10.983 10.81 15.938 19.9 4.588 8.708 7.846 13.11 15.937 19.9l1.286-1.532c-7.868-6.603-10.983-10.81-15.937-19.9-4.588-8.708-7.847-13.111-15.938-19.9-8.14-6.83-13.81-9.764-23.897-13.525.048.206-14.58-5.707-20.833-10.954l-1.285 1.532c6.465 5.425 21.5 11.513 21.599 11.597zM647.43 566.73c9.731 3.398 15.2 6.227 23.13 12.882 7.868 6.602 10.983 10.81 15.938 19.9 4.587 8.708 7.846 13.11 15.937 19.9l1.285-1.532c-7.868-6.602-10.982-10.81-15.937-19.9-4.588-8.708-7.846-13.11-15.937-19.9-8.14-6.83-13.81-9.764-23.897-13.525.047.206-14.58-5.707-20.833-10.954l-1.286 1.532c6.466 5.426 21.5 11.514 21.6 11.597z"/>
            <path fill="#2D2D32" fill-rule="nonzero" d="M570.825 502.451c9.732 3.398 15.2 6.228 23.13 12.882 7.869 6.602 10.983 10.81 15.938 19.9 4.588 8.708 7.846 13.11 15.937 19.9l1.286-1.532c-7.868-6.602-10.983-10.81-15.937-19.9-4.588-8.708-7.846-13.11-15.938-19.9-8.14-6.83-13.81-9.764-23.897-13.525.048.206-14.579-5.706-20.833-10.954l-1.285 1.532c6.466 5.426 21.5 11.514 21.599 11.597z"/>
        </g>
        <g fill="#2D2D32" fill-rule="nonzero">
            <path d="M698.852 505.446c9.732 3.399 15.2 6.228 23.131 12.883 7.868 6.602 10.983 10.81 15.938 19.9 4.587 8.707 7.846 13.11 15.937 19.9l1.285-1.533c-7.868-6.602-10.982-10.81-15.937-19.9-4.588-8.708-7.846-13.11-15.937-19.9-8.14-6.83-13.81-9.763-23.897-13.525.047.206-14.58-5.706-20.833-10.953l-1.286 1.532c6.466 5.425 21.5 11.513 21.6 11.596z"/>
            <path d="M622.248 441.168c9.732 3.398 15.2 6.227 23.13 12.882 7.87 6.602 10.983 10.81 15.938 19.9 4.588 8.708 7.846 13.11 15.937 19.9l1.286-1.532c-7.868-6.603-10.983-10.81-15.937-19.9-4.588-8.708-7.846-13.111-15.938-19.9-8.14-6.83-13.81-9.764-23.897-13.525.048.206-14.579-5.707-20.833-10.954l-1.285 1.532c6.466 5.425 21.5 11.513 21.599 11.597zM545.643 376.889c9.733 3.398 15.2 6.227 23.131 12.882 7.869 6.602 10.983 10.81 15.938 19.9 4.587 8.708 7.846 13.11 15.937 19.9l1.285-1.532c-7.868-6.602-10.982-10.81-15.937-19.9-4.588-8.708-7.846-13.11-15.937-19.9-8.14-6.83-13.81-9.764-23.897-13.525.048.206-14.58-5.707-20.833-10.954l-1.286 1.532c6.466 5.426 21.5 11.514 21.6 11.597z"/>
        </g>
        <g>
            <path fill="#2D2D32" fill-rule="nonzero" d="M801.168 539.083c9.732 3.399 15.2 6.228 23.131 12.883 7.868 6.602 10.983 10.81 15.937 19.9 4.588 8.707 7.847 13.11 15.938 19.9l1.285-1.533c-7.868-6.602-10.982-10.81-15.937-19.9-4.588-8.708-7.846-13.11-15.937-19.9-8.14-6.83-13.81-9.763-23.897-13.525.047.206-14.58-5.706-20.833-10.954l-1.286 1.533c6.466 5.425 21.5 11.513 21.6 11.596zM571.355 346.247c9.732 3.398 15.2 6.227 23.131 12.882 7.868 6.602 10.982 10.81 15.937 19.9 4.588 8.708 7.846 13.11 15.937 19.9l1.286-1.532c-7.868-6.602-10.983-10.81-15.937-19.9-4.588-8.708-7.846-13.11-15.937-19.9-8.14-6.83-13.81-9.764-23.898-13.525.048.206-14.579-5.706-20.833-10.954l-1.285 1.532c6.466 5.426 21.5 11.514 21.599 11.597z"/>
        </g>
        <g>
            <path fill="#2D2D32" fill-rule="nonzero" d="M711.708 490.125c9.732 3.399 15.2 6.228 23.131 12.883 7.868 6.602 10.983 10.81 15.937 19.9 4.588 8.708 7.846 13.11 15.937 19.9l1.286-1.533c-7.868-6.602-10.982-10.81-15.937-19.9-4.588-8.708-7.846-13.11-15.937-19.9-8.14-6.83-13.81-9.763-23.897-13.524.047.205-14.58-5.707-20.833-10.954l-1.286 1.532c6.466 5.425 21.5 11.513 21.599 11.596z"/>
            <path fill="#2D2D32" fill-rule="nonzero" d="M635.104 425.847c9.732 3.398 15.2 6.227 23.13 12.882 7.869 6.602 10.983 10.81 15.938 19.9 4.588 8.708 7.846 13.11 15.937 19.9l1.286-1.532c-7.869-6.603-10.983-10.81-15.938-19.9-4.587-8.708-7.846-13.111-15.937-19.9-8.14-6.83-13.81-9.764-23.897-13.525.048.206-14.58-5.707-20.833-10.954l-1.285 1.532c6.465 5.425 21.5 11.513 21.599 11.597z"/>
        </g>
        <g>
            <path fill="#2D2D32" fill-rule="nonzero" d="M737.42 459.484c9.732 3.398 15.2 6.227 23.13 12.882 7.869 6.602 10.983 10.81 15.938 19.9 4.588 8.708 7.846 13.11 15.937 19.9l1.286-1.532c-7.869-6.603-10.983-10.81-15.938-19.9-4.587-8.708-7.846-13.111-15.937-19.9-8.14-6.83-13.81-9.764-23.897-13.525.048.206-14.58-5.707-20.833-10.954l-1.285 1.532c6.465 5.425 21.5 11.513 21.599 11.597zM584.21 330.926c9.733 3.398 15.2 6.228 23.132 12.882 7.868 6.603 10.982 10.81 15.937 19.9 4.588 8.708 7.846 13.11 15.937 19.9l1.286-1.532c-7.869-6.602-10.983-10.81-15.938-19.9-4.587-8.708-7.846-13.11-15.937-19.9-8.14-6.83-13.81-9.764-23.897-13.525.048.206-14.58-5.706-20.833-10.954l-1.285 1.532c6.465 5.426 21.5 11.514 21.599 11.597z"/>
        </g>
        <g>
            <path fill="#2D2D32" fill-rule="nonzero" d="M750.275 444.163c9.732 3.398 15.2 6.227 23.131 12.882 7.869 6.602 10.983 10.81 15.938 19.9 4.587 8.708 7.846 13.11 15.937 19.9l1.285-1.532c-7.868-6.602-10.982-10.81-15.937-19.9-4.588-8.708-7.846-13.11-15.937-19.9-8.14-6.83-13.81-9.764-23.897-13.525.047.206-14.58-5.707-20.833-10.954l-1.286 1.532c6.466 5.425 21.5 11.514 21.6 11.597zM673.67 379.884c9.733 3.398 15.201 6.227 23.132 12.882 7.868 6.602 10.982 10.81 15.937 19.9 4.588 8.708 7.846 13.11 15.937 19.9l1.286-1.532c-7.868-6.602-10.983-10.81-15.937-19.9-4.588-8.708-7.846-13.11-15.938-19.9-8.14-6.83-13.81-9.764-23.897-13.525.048.206-14.579-5.706-20.833-10.954l-1.285 1.532c6.466 5.426 21.5 11.514 21.599 11.597z"/>
        </g>
        <g>
            <path fill="#2D2D32" fill-rule="nonzero" d="M852.591 477.8c9.732 3.398 15.2 6.227 23.131 12.882 7.868 6.602 10.983 10.81 15.937 19.9 4.588 8.708 7.847 13.11 15.938 19.9l1.285-1.532c-7.868-6.602-10.982-10.81-15.937-19.9-4.588-8.708-7.846-13.11-15.937-19.9-8.14-6.83-13.81-9.764-23.897-13.525.047.206-14.58-5.707-20.833-10.954l-1.286 1.532c6.466 5.425 21.5 11.513 21.6 11.597zM775.987 413.52c9.732 3.4 15.2 6.228 23.13 12.883 7.869 6.602 10.983 10.81 15.938 19.9 4.588 8.708 7.846 13.11 15.937 19.9l1.286-1.532c-7.868-6.602-10.983-10.81-15.937-19.9-4.588-8.708-7.846-13.11-15.938-19.9-8.14-6.83-13.81-9.764-23.897-13.525.048.206-14.579-5.706-20.833-10.954l-1.285 1.532c6.466 5.426 21.5 11.514 21.599 11.597z"/>
            <path fill="#2D2D32" fill-rule="nonzero" d="M699.382 349.242c9.733 3.399 15.2 6.228 23.131 12.882 7.869 6.603 10.983 10.81 15.938 19.9 4.587 8.708 7.846 13.111 15.937 19.9l1.285-1.532c-7.868-6.602-10.982-10.81-15.937-19.9-4.588-8.708-7.846-13.11-15.937-19.9-8.14-6.83-13.81-9.763-23.897-13.525.048.206-14.58-5.706-20.833-10.954l-1.286 1.532c6.466 5.426 21.5 11.514 21.6 11.597z"/>
        </g>
        <g>
            <path fill="#2D2D32" fill-rule="nonzero" d="M686.527 364.563c9.732 3.398 15.2 6.228 23.13 12.882 7.869 6.602 10.983 10.81 15.938 19.9 4.588 8.708 7.846 13.11 15.937 19.9l1.286-1.532c-7.869-6.602-10.983-10.81-15.938-19.9-4.587-8.708-7.846-13.11-15.937-19.9-8.14-6.83-13.81-9.764-23.897-13.525.048.206-14.58-5.706-20.833-10.954l-1.285 1.532c6.465 5.426 21.5 11.514 21.599 11.597z"/>
            <path fill="#2D2D32" fill-rule="nonzero" d="M609.922 300.284c9.732 3.399 15.2 6.228 23.131 12.883 7.868 6.602 10.983 10.81 15.937 19.9 4.588 8.707 7.846 13.11 15.938 19.9l1.285-1.533c-7.868-6.602-10.982-10.81-15.937-19.9-4.588-8.708-7.846-13.11-15.937-19.9-8.14-6.83-13.81-9.763-23.897-13.525.047.206-14.58-5.706-20.833-10.953l-1.286 1.532c6.466 5.425 21.5 11.513 21.6 11.596z"/>
        </g>
        <g>
            <path fill="#2D2D32" fill-rule="nonzero" d="M712.238 333.921c9.732 3.399 15.2 6.228 23.131 12.883 7.868 6.602 10.983 10.81 15.937 19.9 4.588 8.707 7.846 13.11 15.938 19.9l1.285-1.533c-7.868-6.602-10.982-10.81-15.937-19.9-4.588-8.708-7.846-13.11-15.937-19.9-8.14-6.83-13.81-9.763-23.897-13.525.047.206-14.58-5.706-20.833-10.953l-1.286 1.532c6.466 5.425 21.5 11.513 21.6 11.596zM635.634 269.643c9.732 3.398 15.2 6.227 23.13 12.882 7.869 6.602 10.983 10.81 15.938 19.9 4.588 8.708 7.846 13.11 15.937 19.9l1.286-1.532c-7.868-6.603-10.983-10.81-15.938-19.9-4.587-8.708-7.846-13.111-15.937-19.9-8.14-6.83-13.81-9.764-23.897-13.525.048.206-14.58-5.707-20.833-10.954l-1.285 1.532c6.465 5.425 21.5 11.513 21.599 11.597z"/>
        </g>
        <g>
            <path fill="#2D2D32" fill-rule="nonzero" d="M648.49 254.322c9.732 3.398 15.2 6.227 23.13 12.882 7.869 6.602 10.983 10.81 15.938 19.9 4.587 8.708 7.846 13.11 15.937 19.9l1.285-1.532c-7.868-6.603-10.982-10.81-15.937-19.9-4.588-8.708-7.846-13.11-15.937-19.9-8.14-6.83-13.81-9.764-23.897-13.525.048.206-14.58-5.707-20.833-10.954l-1.286 1.532c6.466 5.425 21.5 11.513 21.6 11.597z"/>
        </g>
        <g>
            <path fill="#2D2D32" fill-rule="nonzero" d="M661.345 239c9.732 3.4 15.2 6.228 23.131 12.883 7.868 6.602 10.983 10.81 15.937 19.9 4.588 8.708 7.846 13.11 15.938 19.9l1.285-1.532c-7.868-6.602-10.982-10.81-15.937-19.9-4.588-8.708-7.846-13.11-15.937-19.9-8.14-6.83-13.81-9.764-23.897-13.525.047.206-14.58-5.707-20.833-10.954l-1.286 1.532c6.466 5.426 21.5 11.514 21.6 11.597z"/>
        </g>
        <g>
            <path fill="#2D2D32" fill-rule="nonzero" d="M453.984 101.74c-9.732-3.398-15.2-6.227-23.131-12.882-7.868-6.602-10.983-10.81-15.937-19.9-4.588-8.708-7.846-13.11-15.937-19.9l-1.286 1.532c7.868 6.603 10.983 10.81 15.937 19.9 4.588 8.708 7.846 13.111 15.937 19.9 8.14 6.83 13.81 9.764 23.897 13.525-.047-.206 14.58 5.707 20.833 10.954l1.286-1.532c-6.466-5.425-21.5-11.513-21.599-11.597zM530.588 166.02c-9.732-3.4-15.2-6.228-23.13-12.883-7.869-6.602-10.983-10.81-15.938-19.9-4.588-8.708-7.846-13.11-15.937-19.9l-1.286 1.532c7.869 6.602 10.983 10.81 15.938 19.9 4.587 8.708 7.846 13.11 15.937 19.9 8.14 6.83 13.81 9.764 23.897 13.525-.048-.206 14.58 5.707 20.833 10.954l1.285-1.532c-6.465-5.426-21.5-11.514-21.599-11.597zM607.193 230.298c-9.732-3.398-15.2-6.228-23.131-12.882-7.868-6.603-10.983-10.81-15.937-19.9-4.588-8.708-7.846-13.11-15.938-19.9l-1.285 1.532c7.868 6.602 10.982 10.81 15.937 19.9 4.588 8.708 7.846 13.11 15.937 19.9 8.14 6.83 13.81 9.764 23.897 13.525-.047-.206 14.58 5.706 20.833 10.954l1.286-1.532c-6.466-5.426-21.5-11.514-21.6-11.597z"/>
            <g fill="#2D2D32" fill-rule="nonzero">
                <path d="M364.524 52.783c-9.732-3.399-15.2-6.228-23.131-12.883-7.868-6.602-10.983-10.81-15.937-19.9-4.588-8.708-7.847-13.11-15.938-19.9l-1.285 1.533c7.868 6.602 10.982 10.81 15.937 19.9 4.588 8.707 7.846 13.11 15.937 19.9 8.14 6.83 13.81 9.763 23.897 13.524-.047-.206 14.58 5.707 20.833 10.954l1.286-1.532c-6.466-5.425-21.5-11.513-21.6-11.596z"/>
                <path d="M441.128 117.061c-9.732-3.398-15.2-6.227-23.13-12.882-7.869-6.602-10.983-10.81-15.938-19.9-4.588-8.708-7.846-13.11-15.937-19.9l-1.286 1.532c7.868 6.602 10.983 10.81 15.937 19.9 4.588 8.708 7.846 13.11 15.938 19.9 8.14 6.83 13.81 9.764 23.897 13.525-.048-.206 14.58 5.707 20.833 10.954l1.285-1.532c-6.466-5.425-21.5-11.513-21.599-11.597z"/>
                <path d="M517.733 181.34c-9.733-3.398-15.2-6.227-23.131-12.882-7.869-6.602-10.983-10.81-15.938-19.9-4.587-8.708-7.846-13.11-15.937-19.9l-1.285 1.532c7.868 6.602 10.982 10.81 15.937 19.9 4.588 8.708 7.846 13.11 15.937 19.9 8.14 6.83 13.81 9.764 23.897 13.525-.047-.206 14.58 5.706 20.833 10.954l1.286-1.532c-6.466-5.426-21.5-11.514-21.6-11.597zM594.337 245.619c-9.732-3.399-15.2-6.228-23.13-12.882-7.87-6.603-10.983-10.81-15.938-19.9-4.588-8.708-7.846-13.111-15.937-19.9l-1.286 1.532c7.868 6.602 10.983 10.81 15.937 19.9 4.588 8.708 7.846 13.11 15.937 19.9 8.14 6.83 13.81 9.763 23.898 13.525-.048-.206 14.579 5.706 20.833 10.954l1.285-1.533c-6.466-5.425-21.5-11.513-21.599-11.596z"/>
            </g>
            <path fill="#2D2D32" fill-rule="nonzero" d="M504.877 196.66c-9.732-3.397-15.2-6.227-23.131-12.881-7.868-6.602-10.983-10.81-15.937-19.9-4.588-8.708-7.846-13.11-15.937-19.9l-1.286 1.532c7.868 6.602 10.982 10.81 15.937 19.9 4.588 8.708 7.846 13.11 15.937 19.9 8.14 6.83 13.81 9.764 23.897 13.525-.047-.206 14.58 5.706 20.833 10.954l1.286-1.532c-6.466-5.426-21.5-11.514-21.599-11.597z"/>
            <path fill="#2D2D32" fill-rule="nonzero" d="M581.481 260.94c-9.732-3.399-15.2-6.228-23.13-12.883-7.869-6.602-10.983-10.81-15.938-19.9-4.588-8.707-7.846-13.11-15.937-19.9l-1.286 1.533c7.869 6.602 10.983 10.81 15.938 19.9 4.587 8.708 7.846 13.11 15.937 19.9 8.14 6.83 13.81 9.763 23.897 13.525-.048-.206 14.58 5.706 20.833 10.953l1.285-1.532c-6.465-5.425-21.5-11.513-21.599-11.596z"/>
            <g fill="#2D2D32" fill-rule="nonzero">
                <path d="M325.957 98.745c-9.733-3.398-15.2-6.227-23.132-12.882-7.868-6.602-10.982-10.81-15.937-19.9-4.587-8.708-7.846-13.11-15.937-19.9l-1.285 1.532c7.868 6.602 10.982 10.81 15.937 19.9 4.587 8.708 7.846 13.11 15.937 19.9 8.14 6.83 13.81 9.764 23.897 13.525-.048-.206 14.58 5.707 20.833 10.954l1.286-1.532c-6.466-5.426-21.5-11.514-21.6-11.597z"/>
                <path d="M402.561 163.024c-9.732-3.398-15.2-6.227-23.131-12.882-7.868-6.602-10.983-10.81-15.937-19.9-4.588-8.708-7.846-13.11-15.937-19.9l-1.286 1.532c7.868 6.602 10.983 10.81 15.937 19.9 4.588 8.708 7.846 13.11 15.937 19.9 8.14 6.83 13.81 9.764 23.897 13.525-.047-.206 14.58 5.706 20.833 10.954l1.286-1.532c-6.466-5.426-21.5-11.514-21.599-11.597z"/>
                <path d="M479.165 227.303c-9.732-3.399-15.2-6.228-23.13-12.883-7.869-6.602-10.983-10.81-15.938-19.9-4.588-8.707-7.846-13.11-15.937-19.9l-1.286 1.533c7.869 6.602 10.983 10.81 15.938 19.9 4.587 8.708 7.846 13.11 15.937 19.9 8.14 6.83 13.81 9.763 23.897 13.525-.048-.206 14.58 5.706 20.833 10.953l1.285-1.532c-6.465-5.425-21.5-11.513-21.599-11.596z"/>
                <path d="M555.77 291.581c-9.732-3.398-15.2-6.227-23.131-12.882-7.868-6.602-10.983-10.81-15.937-19.9-4.588-8.708-7.846-13.11-15.938-19.9l-1.285 1.532c7.868 6.603 10.982 10.81 15.937 19.9 4.588 8.708 7.846 13.111 15.937 19.9 8.14 6.83 13.81 9.764 23.897 13.525-.047-.206 14.58 5.707 20.833 10.954l1.286-1.532c-6.466-5.425-21.5-11.513-21.6-11.597z"/>
            </g>
            <g fill="#2D2D32" fill-rule="nonzero">
                <path d="M338.812 83.424c-9.732-3.398-15.2-6.227-23.13-12.882-7.869-6.602-10.983-10.81-15.938-19.9-4.588-8.708-7.846-13.11-15.937-19.9l-1.286 1.532c7.868 6.602 10.983 10.81 15.937 19.9 4.588 8.708 7.847 13.11 15.938 19.9 8.14 6.83 13.81 9.764 23.897 13.525-.048-.206 14.58 5.707 20.833 10.954l1.285-1.532c-6.465-5.425-21.5-11.513-21.599-11.597z"/>
                <path d="M415.417 147.703c-9.732-3.398-15.2-6.227-23.131-12.882-7.868-6.602-10.983-10.81-15.937-19.9-4.588-8.708-7.847-13.11-15.938-19.9l-1.285 1.532c7.868 6.602 10.982 10.81 15.937 19.9 4.588 8.708 7.846 13.11 15.937 19.9 8.14 6.83 13.81 9.764 23.897 13.525-.047-.206 14.58 5.706 20.833 10.954l1.286-1.532c-6.466-5.426-21.5-11.514-21.6-11.597zM492.021 211.982c-9.732-3.399-15.2-6.228-23.13-12.882-7.869-6.603-10.983-10.81-15.938-19.9-4.588-8.708-7.846-13.111-15.937-19.9l-1.286 1.532c7.868 6.602 10.983 10.81 15.937 19.9 4.588 8.708 7.846 13.11 15.938 19.9 8.14 6.83 13.81 9.763 23.897 13.525-.048-.206 14.579 5.706 20.833 10.954l1.285-1.532c-6.466-5.426-21.5-11.514-21.599-11.597z"/>
                <path d="M568.626 276.26c-9.733-3.398-15.2-6.227-23.131-12.882-7.869-6.602-10.983-10.81-15.938-19.9-4.587-8.708-7.846-13.11-15.937-19.9l-1.285 1.533c7.868 6.602 10.982 10.81 15.937 19.9 4.588 8.708 7.846 13.11 15.937 19.9 8.14 6.83 13.81 9.763 23.897 13.524-.048-.205 14.58 5.707 20.833 10.954l1.286-1.532c-6.466-5.425-21.5-11.513-21.6-11.596z"/>
            </g>
            <path fill="#2D2D32" fill-rule="nonzero" d="M313.1 114.066c-9.731-3.398-15.2-6.227-23.13-12.882-7.868-6.602-10.983-10.81-15.937-19.9-4.588-8.708-7.847-13.11-15.938-19.9l-1.285 1.532c7.868 6.602 10.982 10.81 15.937 19.9 4.588 8.708 7.846 13.11 15.937 19.9 8.14 6.83 13.81 9.764 23.897 13.525-.047-.206 14.58 5.706 20.833 10.954l1.286-1.532c-6.466-5.426-21.5-11.514-21.6-11.597z"/>
            <path fill="#2D2D32" fill-rule="nonzero" d="M389.705 178.345c-9.732-3.399-15.2-6.228-23.13-12.882-7.869-6.603-10.983-10.81-15.938-19.9-4.588-8.708-7.846-13.111-15.937-19.9l-1.286 1.532c7.868 6.602 10.983 10.81 15.937 19.9 4.588 8.708 7.846 13.11 15.938 19.9 8.14 6.83 13.81 9.764 23.897 13.525-.048-.206 14.58 5.706 20.833 10.954l1.285-1.532c-6.466-5.426-21.5-11.514-21.599-11.597zM542.914 306.902c-9.732-3.398-15.2-6.227-23.13-12.882-7.87-6.602-10.983-10.81-15.938-19.9-4.588-8.708-7.846-13.11-15.937-19.9l-1.286 1.532c7.868 6.603 10.983 10.81 15.937 19.9 4.588 8.708 7.846 13.11 15.937 19.9 8.14 6.83 13.81 9.764 23.898 13.525-.048-.206 14.579 5.707 20.833 10.954l1.285-1.532c-6.466-5.425-21.5-11.513-21.599-11.597z"/>
            <g fill="#2D2D32" fill-rule="nonzero">
                <path d="M363.994 208.987c-9.732-3.399-15.2-6.228-23.131-12.883-7.868-6.602-10.983-10.81-15.938-19.9-4.587-8.708-7.846-13.11-15.937-19.9l-1.285 1.533c7.868 6.602 10.982 10.81 15.937 19.9 4.588 8.708 7.846 13.11 15.937 19.9 8.14 6.83 13.81 9.763 23.897 13.524-.047-.205 14.58 5.707 20.833 10.954l1.286-1.532c-6.466-5.425-21.5-11.513-21.6-11.596z"/>
                <path d="M440.598 273.265c-9.732-3.398-15.2-6.227-23.13-12.882-7.869-6.602-10.983-10.81-15.938-19.9-4.588-8.708-7.846-13.11-15.937-19.9l-1.286 1.532c7.868 6.603 10.983 10.81 15.937 19.9 4.588 8.708 7.846 13.111 15.938 19.9 8.14 6.83 13.81 9.764 23.897 13.525-.048-.206 14.579 5.707 20.833 10.954l1.285-1.532c-6.466-5.425-21.5-11.513-21.599-11.597z"/>
                <path d="M517.203 337.544c-9.733-3.398-15.2-6.227-23.131-12.882-7.869-6.602-10.983-10.81-15.938-19.9-4.587-8.708-7.846-13.11-15.937-19.9l-1.285 1.532c7.868 6.602 10.982 10.81 15.937 19.9 4.588 8.708 7.846 13.11 15.937 19.9 8.14 6.83 13.81 9.764 23.897 13.525-.048-.206 14.58 5.707 20.833 10.954l1.286-1.532c-6.466-5.426-21.5-11.514-21.6-11.597z"/>
            </g>
            <g fill="#2D2D32" fill-rule="nonzero">
                <path d="M376.85 193.666c-9.733-3.399-15.2-6.228-23.132-12.883-7.868-6.602-10.982-10.81-15.937-19.9-4.588-8.707-7.846-13.11-15.937-19.9l-1.286 1.533c7.869 6.602 10.983 10.81 15.938 19.9 4.587 8.708 7.846 13.11 15.937 19.9 8.14 6.83 13.81 9.763 23.897 13.525-.048-.206 14.58 5.706 20.833 10.953l1.286-1.532c-6.466-5.425-21.5-11.513-21.6-11.596z"/>
                <path d="M453.454 257.944c-9.732-3.398-15.2-6.227-23.131-12.882-7.868-6.602-10.983-10.81-15.937-19.9-4.588-8.708-7.846-13.11-15.937-19.9l-1.286 1.532c7.868 6.603 10.982 10.81 15.937 19.9 4.588 8.708 7.846 13.111 15.937 19.9 8.14 6.83 13.81 9.764 23.897 13.525-.047-.206 14.58 5.707 20.833 10.954l1.286-1.532c-6.466-5.425-21.5-11.513-21.599-11.597zM530.058 322.223c-9.732-3.398-15.2-6.227-23.13-12.882-7.869-6.602-10.983-10.81-15.938-19.9-4.588-8.708-7.846-13.11-15.937-19.9l-1.286 1.532c7.869 6.602 10.983 10.81 15.938 19.9 4.587 8.708 7.846 13.11 15.937 19.9 8.14 6.83 13.81 9.764 23.897 13.525-.048-.206 14.58 5.707 20.833 10.954l1.285-1.532c-6.465-5.426-21.5-11.514-21.599-11.597z"/>
            </g>
            <path fill="#2D2D32" fill-rule="nonzero" d="M248.822 190.67c-9.732-3.398-15.2-6.227-23.131-12.882-7.868-6.602-10.983-10.81-15.937-19.9-4.588-8.708-7.846-13.11-15.937-19.9l-1.286 1.533c7.868 6.602 10.983 10.81 15.937 19.9 4.588 8.707 7.846 13.11 15.937 19.9 8.14 6.83 13.81 9.763 23.898 13.524-.048-.206 14.579 5.707 20.832 10.954l1.286-1.532c-6.466-5.425-21.5-11.513-21.599-11.596z"/>
            <path fill="#2D2D32" fill-rule="nonzero" d="M325.427 254.95c-9.733-3.4-15.2-6.228-23.132-12.883-7.868-6.602-10.982-10.81-15.937-19.9-4.588-8.708-7.846-13.11-15.937-19.9l-1.286 1.532c7.869 6.602 10.983 10.81 15.938 19.9 4.587 8.708 7.846 13.11 15.937 19.9 8.14 6.83 13.81 9.764 23.897 13.525-.048-.206 14.58 5.707 20.833 10.954l1.286-1.532c-6.466-5.425-21.5-11.514-21.6-11.597z"/>
            <path fill="#2D2D32" fill-rule="nonzero" d="M402.03 319.228c-9.731-3.398-15.2-6.227-23.13-12.882-7.868-6.602-10.983-10.81-15.937-19.9-4.588-8.708-7.846-13.11-15.937-19.9l-1.286 1.532c7.868 6.602 10.982 10.81 15.937 19.9 4.588 8.708 7.846 13.11 15.937 19.9 8.14 6.83 13.81 9.764 23.897 13.525-.047-.206 14.58 5.706 20.833 10.954l1.286-1.532c-6.466-5.426-21.5-11.514-21.6-11.597z"/>
            <g fill="#2D2D32" fill-rule="nonzero">
                <path d="M197.93 95.75c-9.733-3.398-15.201-6.227-23.132-12.882-7.868-6.602-10.982-10.81-15.937-19.9-4.588-8.708-7.846-13.11-15.937-19.9l-1.286 1.532c7.868 6.602 10.983 10.81 15.937 19.9 4.588 8.708 7.846 13.11 15.937 19.9 8.14 6.83 13.81 9.764 23.898 13.525-.048-.206 14.579 5.706 20.833 10.954l1.285-1.532c-6.466-5.426-21.5-11.514-21.599-11.597z"/>
                <path d="M274.534 160.029c-9.733-3.399-15.2-6.228-23.132-12.883-7.868-6.602-10.982-10.81-15.937-19.9-4.587-8.707-7.846-13.11-15.937-19.9l-1.285 1.533c7.868 6.602 10.982 10.81 15.937 19.9 4.587 8.708 7.846 13.11 15.937 19.9 8.14 6.83 13.81 9.763 23.897 13.525-.048-.206 14.58 5.706 20.833 10.954l1.286-1.533c-6.466-5.425-21.5-11.513-21.6-11.596z"/>
                <path d="M351.138 224.308c-9.732-3.399-15.2-6.228-23.131-12.883-7.868-6.602-10.983-10.81-15.937-19.9-4.588-8.708-7.846-13.11-15.937-19.9l-1.286 1.533c7.868 6.602 10.983 10.81 15.937 19.9 4.588 8.707 7.846 13.11 15.937 19.9 8.14 6.83 13.81 9.763 23.897 13.524-.047-.206 14.58 5.707 20.833 10.954l1.286-1.532c-6.466-5.425-21.5-11.513-21.599-11.596zM427.742 288.586c-9.732-3.398-15.2-6.227-23.13-12.882-7.869-6.602-10.983-10.81-15.938-19.9-4.588-8.708-7.846-13.11-15.937-19.9l-1.286 1.532c7.869 6.602 10.983 10.81 15.938 19.9 4.587 8.708 7.846 13.11 15.937 19.9 8.14 6.83 13.81 9.764 23.897 13.525-.048-.206 14.58 5.707 20.833 10.954l1.285-1.532c-6.465-5.426-21.5-11.514-21.599-11.597z"/>
                <path d="M504.347 352.865c-9.732-3.398-15.2-6.227-23.131-12.882-7.868-6.602-10.983-10.81-15.937-19.9-4.588-8.708-7.846-13.11-15.938-19.9l-1.285 1.532c7.868 6.602 10.982 10.81 15.937 19.9 4.588 8.708 7.846 13.11 15.937 19.9 8.14 6.83 13.81 9.764 23.897 13.525-.047-.206 14.58 5.706 20.833 10.954l1.286-1.532c-6.466-5.426-21.5-11.514-21.6-11.597z"/>
            </g>
            <path fill="#2D2D32" fill-rule="nonzero" d="M146.506 157.034c-9.732-3.399-15.2-6.228-23.131-12.883-7.868-6.602-10.982-10.81-15.937-19.9-4.588-8.708-7.846-13.11-15.937-19.9l-1.286 1.533c7.868 6.602 10.983 10.81 15.937 19.9 4.588 8.707 7.846 13.11 15.937 19.9 8.14 6.83 13.81 9.763 23.898 13.524-.048-.206 14.579 5.707 20.833 10.954l1.285-1.532c-6.466-5.425-21.5-11.513-21.599-11.596zM376.32 349.87c-9.733-3.399-15.2-6.228-23.132-12.882-7.868-6.603-10.982-10.81-15.937-19.9-4.588-8.708-7.846-13.111-15.937-19.9l-1.286 1.532c7.869 6.602 10.983 10.81 15.938 19.9 4.587 8.708 7.846 13.11 15.937 19.9 8.14 6.83 13.81 9.763 23.897 13.525-.048-.206 14.58 5.706 20.833 10.954l1.285-1.532c-6.465-5.426-21.5-11.514-21.599-11.597z"/>
            <path fill="#2D2D32" fill-rule="nonzero" d="M452.924 414.149c-9.732-3.399-15.2-6.228-23.131-12.883-7.868-6.602-10.983-10.81-15.937-19.9-4.588-8.708-7.846-13.11-15.938-19.9L396.633 363c7.868 6.602 10.982 10.81 15.937 19.9 4.588 8.708 7.846 13.11 15.937 19.9 8.14 6.83 13.81 9.763 23.897 13.524-.047-.205 14.58 5.707 20.833 10.954l1.286-1.532c-6.466-5.425-21.5-11.513-21.6-11.596z"/>
            <g>
                <path fill="#2D2D32" fill-rule="nonzero" d="M57.046 108.076c-9.732-3.399-15.2-6.228-23.131-12.883-7.868-6.602-10.983-10.81-15.937-19.9-4.588-8.708-7.846-13.11-15.938-19.9L.755 56.927c7.868 6.602 10.982 10.81 15.937 19.9 4.588 8.708 7.846 13.11 15.937 19.9 8.14 6.83 13.81 9.763 23.897 13.525-.047-.206 14.58 5.706 20.833 10.953l1.286-1.532c-6.466-5.425-21.5-11.513-21.6-11.596z"/>
                <path fill="#2D2D32" fill-rule="nonzero" d="M133.65 172.354c-9.732-3.398-15.2-6.227-23.13-12.882-7.869-6.602-10.983-10.81-15.938-19.9-4.588-8.708-7.846-13.11-15.937-19.9l-1.286 1.532c7.868 6.603 10.983 10.81 15.938 19.9 4.587 8.708 7.846 13.111 15.937 19.9 8.14 6.83 13.81 9.764 23.897 13.525-.048-.206 14.58 5.707 20.833 10.954l1.285-1.532c-6.465-5.425-21.5-11.513-21.599-11.597z"/>
                <path fill="#2D2D32" fill-rule="nonzero" d="M210.255 236.633c-9.732-3.398-15.2-6.227-23.131-12.882-7.868-6.602-10.983-10.81-15.937-19.9-4.588-8.708-7.847-13.11-15.938-19.9l-1.285 1.532c7.868 6.602 10.982 10.81 15.937 19.9 4.588 8.708 7.846 13.11 15.937 19.9 8.14 6.83 13.81 9.764 23.897 13.525-.047-.206 14.58 5.707 20.833 10.954l1.286-1.532c-6.466-5.426-21.5-11.514-21.6-11.597z"/>
                <path fill="#2D2D32" fill-rule="nonzero" d="M286.86 300.912c-9.733-3.398-15.2-6.227-23.132-12.882-7.868-6.602-10.982-10.81-15.937-19.9-4.588-8.708-7.846-13.11-15.937-19.9l-1.286 1.532c7.868 6.602 10.983 10.81 15.937 19.9 4.588 8.708 7.846 13.11 15.938 19.9 8.14 6.83 13.81 9.764 23.897 13.525-.048-.206 14.58 5.706 20.833 10.954l1.285-1.532c-6.466-5.426-21.5-11.514-21.599-11.597z"/>
                <path fill="#2D2D32" fill-rule="nonzero" d="M363.464 365.19c-9.733-3.398-15.2-6.227-23.131-12.882-7.869-6.602-10.983-10.81-15.938-19.9-4.587-8.707-7.846-13.11-15.937-19.9l-1.285 1.533c7.868 6.602 10.982 10.81 15.937 19.9 4.588 8.708 7.846 13.11 15.937 19.9 8.14 6.83 13.81 9.763 23.897 13.525-.047-.206 14.58 5.706 20.833 10.953l1.286-1.532c-6.466-5.425-21.5-11.513-21.6-11.596z"/>
            </g>
            <g fill="#2D2D32" fill-rule="nonzero">
                <path d="M120.795 187.675c-9.733-3.398-15.2-6.227-23.131-12.882-7.869-6.602-10.983-10.81-15.938-19.9-4.587-8.708-7.846-13.11-15.937-19.9l-1.285 1.532c7.868 6.602 10.982 10.81 15.937 19.9 4.588 8.708 7.846 13.11 15.937 19.9 8.14 6.83 13.81 9.764 23.897 13.525-.048-.206 14.58 5.707 20.833 10.954l1.286-1.532c-6.466-5.425-21.5-11.513-21.6-11.597z"/>
                <path d="M197.399 251.954c-9.732-3.398-15.2-6.227-23.131-12.882-7.868-6.602-10.983-10.81-15.937-19.9-4.588-8.708-7.846-13.11-15.937-19.9l-1.286 1.532c7.868 6.602 10.983 10.81 15.937 19.9 4.588 8.708 7.846 13.11 15.937 19.9 8.14 6.83 13.81 9.764 23.898 13.525-.048-.206 14.579 5.706 20.832 10.954l1.286-1.532c-6.466-5.426-21.5-11.514-21.599-11.597z"/>
                <path d="M274.003 316.233c-9.732-3.399-15.2-6.228-23.13-12.882-7.869-6.603-10.983-10.81-15.938-19.9-4.588-8.708-7.846-13.111-15.937-19.9l-1.286 1.532c7.869 6.602 10.983 10.81 15.938 19.9 4.587 8.708 7.846 13.11 15.937 19.9 8.14 6.83 13.81 9.764 23.897 13.525-.048-.206 14.58 5.706 20.833 10.954l1.285-1.532c-6.465-5.426-21.5-11.514-21.599-11.597z"/>
                <path d="M350.608 380.512c-9.732-3.399-15.2-6.228-23.131-12.883-7.868-6.602-10.983-10.81-15.937-19.9-4.588-8.708-7.846-13.11-15.938-19.9l-1.285 1.533c7.868 6.602 10.982 10.81 15.937 19.9 4.588 8.708 7.846 13.11 15.937 19.9 8.14 6.83 13.81 9.763 23.897 13.524-.047-.205 14.58 5.707 20.833 10.954l1.286-1.532c-6.466-5.425-21.5-11.513-21.6-11.596zM427.212 444.79c-9.732-3.398-15.2-6.227-23.13-12.882-7.869-6.602-10.983-10.81-15.938-19.9-4.588-8.708-7.846-13.11-15.937-19.9l-1.286 1.532c7.869 6.603 10.983 10.81 15.938 19.9 4.587 8.708 7.846 13.11 15.937 19.9 8.14 6.83 13.81 9.764 23.897 13.525-.048-.206 14.58 5.707 20.833 10.954l1.285-1.532c-6.465-5.425-21.5-11.513-21.599-11.597z"/>
            </g>
            <g>
                <path fill="#2D2D32" fill-rule="nonzero" d="M261.678 175.35c-9.732-3.399-15.2-6.228-23.131-12.883-7.868-6.602-10.983-10.81-15.937-19.9-4.588-8.708-7.847-13.11-15.938-19.9l-1.285 1.533c7.868 6.602 10.982 10.81 15.937 19.9 4.588 8.708 7.846 13.11 15.937 19.9 8.14 6.83 13.81 9.763 23.897 13.525-.047-.206 14.58 5.706 20.833 10.953l1.286-1.532c-6.466-5.425-21.5-11.513-21.6-11.596zM414.887 303.907c-9.733-3.398-15.2-6.227-23.131-12.882-7.869-6.602-10.983-10.81-15.938-19.9-4.587-8.708-7.846-13.11-15.937-19.9l-1.285 1.532c7.868 6.602 10.982 10.81 15.937 19.9 4.588 8.708 7.846 13.11 15.937 19.9 8.14 6.83 13.81 9.764 23.897 13.525-.047-.206 14.58 5.707 20.833 10.954l1.286-1.532c-6.466-5.426-21.5-11.514-21.6-11.597zM491.491 368.186c-9.732-3.398-15.2-6.228-23.131-12.882-7.868-6.603-10.982-10.81-15.937-19.9-4.588-8.708-7.846-13.11-15.937-19.9l-1.286 1.532c7.868 6.602 10.983 10.81 15.937 19.9 4.588 8.708 7.846 13.11 15.937 19.9 8.14 6.83 13.81 9.764 23.898 13.525-.048-.206 14.579 5.706 20.833 10.954l1.285-1.532c-6.466-5.426-21.5-11.514-21.599-11.597z"/>
            </g>
            <g>
                <path fill="#2D2D32" fill-rule="nonzero" d="M235.966 205.991c-9.732-3.398-15.2-6.227-23.13-12.882-7.869-6.602-10.983-10.81-15.938-19.9-4.588-8.708-7.846-13.11-15.937-19.9l-1.286 1.532c7.868 6.603 10.983 10.81 15.937 19.9 4.588 8.708 7.847 13.111 15.938 19.9 8.14 6.83 13.81 9.764 23.897 13.525-.048-.206 14.58 5.707 20.833 10.954l1.285-1.532c-6.465-5.425-21.5-11.513-21.599-11.597z"/>
                <path fill="#2D2D32" fill-rule="nonzero" d="M312.57 270.27c-9.731-3.398-15.2-6.227-23.13-12.882-7.868-6.602-10.983-10.81-15.938-19.9-4.587-8.708-7.846-13.11-15.937-19.9l-1.285 1.532c7.868 6.602 10.982 10.81 15.937 19.9 4.588 8.708 7.846 13.11 15.937 19.9 8.14 6.83 13.81 9.764 23.897 13.525-.047-.206 14.58 5.707 20.833 10.954l1.286-1.532c-6.466-5.426-21.5-11.514-21.6-11.597zM389.175 334.549c-9.732-3.398-15.2-6.228-23.13-12.882-7.869-6.602-10.983-10.81-15.938-19.9-4.588-8.708-7.846-13.11-15.937-19.9l-1.286 1.532c7.868 6.602 10.983 10.81 15.937 19.9 4.588 8.708 7.846 13.11 15.938 19.9 8.14 6.83 13.81 9.764 23.897 13.525-.048-.206 14.579 5.706 20.833 10.954l1.285-1.532c-6.466-5.426-21.5-11.514-21.599-11.597z"/>
            </g>
            <g fill="#2D2D32" fill-rule="nonzero">
                <path d="M261.148 331.554c-9.732-3.399-15.2-6.228-23.131-12.883-7.868-6.602-10.983-10.81-15.938-19.9-4.587-8.707-7.846-13.11-15.937-19.9l-1.285 1.533c7.868 6.602 10.982 10.81 15.937 19.9 4.588 8.708 7.846 13.11 15.937 19.9 8.14 6.83 13.81 9.763 23.897 13.525-.047-.206 14.58 5.706 20.833 10.953l1.286-1.532c-6.466-5.425-21.5-11.513-21.6-11.596zM337.752 395.832c-9.732-3.398-15.2-6.227-23.13-12.882-7.87-6.602-10.983-10.81-15.938-19.9-4.588-8.708-7.846-13.11-15.937-19.9l-1.286 1.532c7.868 6.603 10.983 10.81 15.937 19.9 4.588 8.708 7.846 13.111 15.938 19.9 8.14 6.83 13.81 9.764 23.897 13.525-.048-.206 14.579 5.707 20.833 10.954l1.285-1.532c-6.466-5.425-21.5-11.513-21.599-11.597z"/>
                <path d="M414.357 460.111c-9.733-3.398-15.2-6.227-23.131-12.882-7.869-6.602-10.983-10.81-15.938-19.9-4.587-8.708-7.846-13.11-15.937-19.9l-1.285 1.532c7.868 6.602 10.982 10.81 15.937 19.9 4.588 8.708 7.846 13.11 15.937 19.9 8.14 6.83 13.81 9.764 23.897 13.525-.048-.206 14.58 5.707 20.833 10.954l1.286-1.532c-6.466-5.426-21.5-11.514-21.6-11.597z"/>
            </g>
            <g>
                <path fill="#2D2D32" fill-rule="nonzero" d="M158.832 297.917c-9.732-3.399-15.2-6.228-23.131-12.883-7.868-6.602-10.983-10.81-15.937-19.9-4.588-8.707-7.847-13.11-15.938-19.9l-1.285 1.533c7.868 6.602 10.982 10.81 15.937 19.9 4.588 8.708 7.846 13.11 15.937 19.9 8.14 6.83 13.81 9.763 23.897 13.525-.047-.206 14.58 5.706 20.833 10.954l1.286-1.533c-6.466-5.425-21.5-11.513-21.6-11.596zM388.645 490.753c-9.732-3.398-15.2-6.227-23.131-12.882-7.868-6.602-10.982-10.81-15.937-19.9-4.588-8.708-7.846-13.11-15.937-19.9l-1.286 1.532c7.868 6.602 10.983 10.81 15.937 19.9 4.588 8.708 7.846 13.11 15.937 19.9 8.14 6.83 13.81 9.764 23.898 13.525-.048-.206 14.579 5.706 20.833 10.954l1.285-1.532c-6.466-5.426-21.5-11.514-21.599-11.597z"/>
            </g>
            <g>
                <path fill="#2D2D32" fill-rule="nonzero" d="M248.292 346.875c-9.732-3.399-15.2-6.228-23.131-12.883-7.868-6.602-10.983-10.81-15.937-19.9-4.588-8.708-7.846-13.11-15.937-19.9L192 295.726c7.868 6.602 10.982 10.81 15.937 19.9 4.588 8.708 7.846 13.11 15.937 19.9 8.14 6.83 13.81 9.763 23.897 13.524-.047-.205 14.58 5.707 20.833 10.954l1.286-1.532c-6.466-5.425-21.5-11.513-21.599-11.596zM324.896 411.153c-9.732-3.398-15.2-6.227-23.13-12.882-7.869-6.602-10.983-10.81-15.938-19.9-4.588-8.708-7.846-13.11-15.937-19.9l-1.286 1.532c7.869 6.603 10.983 10.81 15.938 19.9 4.587 8.708 7.846 13.111 15.937 19.9 8.14 6.83 13.81 9.764 23.897 13.525-.048-.206 14.58 5.707 20.833 10.954l1.285-1.532c-6.465-5.425-21.5-11.513-21.599-11.597z"/>
            </g>
            <g>
                <path fill="#2D2D32" fill-rule="nonzero" d="M222.58 377.516c-9.732-3.398-15.2-6.227-23.13-12.882-7.869-6.602-10.983-10.81-15.938-19.9-4.588-8.708-7.846-13.11-15.937-19.9l-1.286 1.532c7.869 6.603 10.983 10.81 15.938 19.9 4.587 8.708 7.846 13.111 15.937 19.9 8.14 6.83 13.81 9.764 23.897 13.525-.048-.206 14.58 5.707 20.833 10.954l1.285-1.532c-6.465-5.425-21.5-11.513-21.599-11.597zM375.79 506.074c-9.733-3.398-15.2-6.228-23.132-12.882-7.868-6.603-10.982-10.81-15.937-19.9-4.588-8.708-7.846-13.11-15.937-19.9l-1.286 1.532c7.869 6.602 10.983 10.81 15.938 19.9 4.587 8.708 7.846 13.11 15.937 19.9 8.14 6.83 13.81 9.764 23.897 13.525-.048-.206 14.58 5.706 20.833 10.954l1.285-1.532c-6.465-5.426-21.5-11.514-21.599-11.597z"/>
            </g>
            <g>
                <path fill="#2D2D32" fill-rule="nonzero" d="M209.725 392.837c-9.732-3.398-15.2-6.227-23.131-12.882-7.869-6.602-10.983-10.81-15.938-19.9-4.587-8.708-7.846-13.11-15.937-19.9l-1.285 1.532c7.868 6.602 10.982 10.81 15.937 19.9 4.588 8.708 7.846 13.11 15.937 19.9 8.14 6.83 13.81 9.764 23.897 13.525-.047-.206 14.58 5.707 20.833 10.954l1.286-1.532c-6.466-5.425-21.5-11.514-21.6-11.597z"/>
                <path fill="#2D2D32" fill-rule="nonzero" d="M286.33 457.116c-9.733-3.398-15.201-6.227-23.132-12.882-7.868-6.602-10.982-10.81-15.937-19.9-4.588-8.708-7.846-13.11-15.937-19.9l-1.286 1.532c7.868 6.602 10.983 10.81 15.937 19.9 4.588 8.708 7.846 13.11 15.938 19.9 8.14 6.83 13.81 9.764 23.897 13.525-.048-.206 14.579 5.706 20.833 10.954l1.285-1.532c-6.466-5.426-21.5-11.514-21.599-11.597z"/>
            </g>
            <g>
                <path fill="#2D2D32" fill-rule="nonzero" d="M107.409 359.2c-9.732-3.398-15.2-6.227-23.131-12.882-7.868-6.602-10.983-10.81-15.937-19.9-4.588-8.708-7.847-13.11-15.938-19.9l-1.285 1.532c7.868 6.602 10.982 10.81 15.937 19.9 4.588 8.708 7.846 13.11 15.937 19.9 8.14 6.83 13.81 9.764 23.897 13.525-.047-.206 14.58 5.707 20.833 10.954l1.286-1.532c-6.466-5.425-21.5-11.513-21.6-11.597zM184.013 423.48c-9.732-3.4-15.2-6.228-23.13-12.883-7.869-6.602-10.983-10.81-15.938-19.9-4.588-8.708-7.846-13.11-15.937-19.9l-1.286 1.532c7.868 6.602 10.983 10.81 15.937 19.9 4.588 8.708 7.846 13.11 15.938 19.9 8.14 6.83 13.81 9.764 23.897 13.525-.048-.206 14.579 5.706 20.833 10.954l1.285-1.532c-6.466-5.426-21.5-11.514-21.599-11.597z"/>
                <path fill="#2D2D32" fill-rule="nonzero" d="M260.618 487.758c-9.733-3.399-15.2-6.228-23.131-12.882-7.869-6.603-10.983-10.81-15.938-19.9-4.587-8.708-7.846-13.111-15.937-19.9l-1.285 1.532c7.868 6.602 10.982 10.81 15.937 19.9 4.588 8.708 7.846 13.11 15.937 19.9 8.14 6.83 13.81 9.763 23.897 13.525-.048-.206 14.58 5.706 20.833 10.954l1.286-1.532c-6.466-5.426-21.5-11.514-21.6-11.597z"/>
            </g>
            <g>
                <path fill="#2D2D32" fill-rule="nonzero" d="M273.473 472.437c-9.732-3.398-15.2-6.228-23.13-12.882-7.869-6.602-10.983-10.81-15.938-19.9-4.588-8.708-7.846-13.11-15.937-19.9l-1.286 1.532c7.869 6.602 10.983 10.81 15.938 19.9 4.587 8.708 7.846 13.11 15.937 19.9 8.14 6.83 13.81 9.764 23.897 13.525-.048-.206 14.58 5.706 20.833 10.954l1.285-1.532c-6.465-5.426-21.5-11.514-21.599-11.597z"/>
                <path fill="#2D2D32" fill-rule="nonzero" d="M350.078 536.716c-9.732-3.399-15.2-6.228-23.131-12.883-7.868-6.602-10.983-10.81-15.937-19.9-4.588-8.707-7.846-13.11-15.938-19.9l-1.285 1.533c7.868 6.602 10.982 10.81 15.937 19.9 4.588 8.708 7.846 13.11 15.937 19.9 8.14 6.83 13.81 9.763 23.897 13.525-.047-.206 14.58 5.706 20.833 10.953l1.286-1.532c-6.466-5.425-21.5-11.513-21.6-11.596z"/>
            </g>
            <g>
                <path fill="#2D2D32" fill-rule="nonzero" d="M247.762 503.079c-9.732-3.399-15.2-6.228-23.131-12.883-7.868-6.602-10.983-10.81-15.937-19.9-4.588-8.707-7.846-13.11-15.938-19.9l-1.285 1.533c7.868 6.602 10.982 10.81 15.937 19.9 4.588 8.708 7.846 13.11 15.937 19.9 8.14 6.83 13.81 9.763 23.897 13.525-.047-.206 14.58 5.706 20.833 10.953l1.286-1.532c-6.466-5.425-21.5-11.513-21.6-11.596zM324.366 567.357c-9.732-3.398-15.2-6.227-23.13-12.882-7.869-6.602-10.983-10.81-15.938-19.9-4.588-8.708-7.846-13.11-15.937-19.9l-1.286 1.532c7.868 6.603 10.983 10.81 15.938 19.9 4.587 8.708 7.846 13.111 15.937 19.9 8.14 6.83 13.81 9.764 23.897 13.525-.048-.206 14.58 5.707 20.833 10.954l1.285-1.532c-6.465-5.425-21.5-11.513-21.599-11.597z"/>
            </g>
            <g>
                <path fill="#2D2D32" fill-rule="nonzero" d="M311.51 582.678c-9.732-3.398-15.2-6.227-23.13-12.882-7.869-6.602-10.983-10.81-15.938-19.9-4.587-8.708-7.846-13.11-15.937-19.9l-1.285 1.532c7.868 6.603 10.982 10.81 15.937 19.9 4.588 8.708 7.846 13.11 15.937 19.9 8.14 6.83 13.81 9.764 23.897 13.525-.048-.206 14.58 5.707 20.833 10.954l1.286-1.532c-6.466-5.425-21.5-11.513-21.6-11.597z"/>
            </g>
            <g>
                <path fill="#2D2D32" fill-rule="nonzero" d="M298.655 598c-9.732-3.4-15.2-6.228-23.131-12.883-7.868-6.602-10.983-10.81-15.937-19.9-4.588-8.708-7.846-13.11-15.938-19.9l-1.285 1.532c7.868 6.602 10.982 10.81 15.937 19.9 4.588 8.708 7.846 13.11 15.937 19.9 8.14 6.83 13.81 9.764 23.897 13.525-.047-.206 14.58 5.707 20.833 10.954l1.286-1.532c-6.466-5.426-21.5-11.514-21.6-11.597z"/>
            </g>
        </g>
    </g>
</svg>
