<svg xmlns="http://www.w3.org/2000/svg" width="562" height="713" viewBox="0 0 562 713">
    <path fill="#2D2D32" fill-rule="nonzero" d="M-1.396 325.21c-6.91-4.81-18.896-9.64-18.853-9.453-10.087-3.761-15.757-6.695-23.897-13.525-8.09-6.79-11.35-11.192-15.937-19.9-4.955-9.09-8.069-13.298-15.937-19.9l1.285-1.532c8.092 6.79 11.35 11.192 15.938 19.9 4.954 9.09 8.069 13.298 15.937 19.9 7.93 6.655 13.399 9.484 23.13 12.882.1.083 15.134 6.171 21.6 11.597L.643 326.64c6.91 4.81 18.896 9.639 18.853 9.452 10.087 3.762 15.757 6.695 23.897 13.525 8.09 6.79 11.35 11.192 15.937 19.9 4.955 9.09 8.069 13.298 15.937 19.9 6.254 5.248 20.88 11.16 20.833 10.954 10.087 3.761 15.757 6.695 23.897 13.525 8.091 6.79 11.35 11.192 15.937 19.9 4.955 9.09 8.07 13.298 15.938 19.9 6.253 5.247 20.88 11.16 20.833 10.954 10.087 3.761 15.757 6.695 23.897 13.525 8.09 6.79 11.35 11.192 15.937 19.9 4.955 9.09 8.069 13.298 15.937 19.9 6.254 5.247 20.88 11.16 20.833 10.954 10.087 3.76 15.757 6.695 23.897 13.525 8.091 6.789 11.35 11.192 15.937 19.9 4.955 9.09 8.07 13.297 15.937 19.9 6.254 5.247 20.881 11.16 20.833 10.953 10.088 3.762 15.758 6.695 23.898 13.526 8.09 6.789 11.349 11.191 15.937 19.9 4.954 9.089 8.069 13.297 15.937 19.9 6.254 5.247 20.88 11.16 20.833 10.953 10.087 3.761 15.757 6.695 23.897 13.525 8.091 6.79 11.35 11.192 15.937 19.9 4.955 9.09 8.07 13.298 15.937 19.9l-1.285 1.532c-8.091-6.79-11.35-11.192-15.937-19.9-4.955-9.09-8.07-13.297-15.938-19.9-7.93-6.654-13.398-9.484-23.13-12.882-.1-.083-15.134-6.171-21.6-11.597-8.09-6.789-11.35-11.191-15.937-19.9-4.955-9.09-8.069-13.297-15.937-19.9-7.93-6.654-13.399-9.483-23.131-12.882-.1-.083-15.133-6.17-21.6-11.596-8.09-6.79-11.349-11.192-15.936-19.9-4.955-9.09-8.07-13.298-15.937-19.9-7.931-6.655-13.4-9.484-23.132-12.882-.099-.084-15.133-6.172-21.599-11.597-8.09-6.79-11.349-11.192-15.937-19.9-4.954-9.09-8.069-13.298-15.937-19.9-7.93-6.655-13.399-9.484-23.131-12.882-.1-.083-15.133-6.171-21.599-11.597-8.091-6.79-11.35-11.192-15.937-19.9-4.955-9.09-8.07-13.298-15.937-19.9-7.931-6.655-13.4-9.484-23.131-12.882-.1-.083-15.134-6.171-21.6-11.597-8.09-6.789-11.349-11.192-15.937-19.9-4.954-9.09-8.069-13.297-15.937-19.9-7.93-6.654-13.399-9.483-23.13-12.882-.1-.083-15.134-6.17-21.6-11.596l1.227-1.463zm20.57-24.514c-6.91-4.81-18.897-9.639-18.853-9.453-10.087-3.76-15.758-6.694-23.898-13.525-8.09-6.789-11.349-11.191-15.937-19.9-4.954-9.089-8.069-13.297-15.937-19.9-6.253-5.247-20.88-11.16-20.833-10.953-10.087-3.761-15.757-6.695-23.897-13.525-8.091-6.79-11.35-11.192-15.937-19.9-4.955-9.09-8.07-13.298-15.937-19.9-6.254-5.248-20.88-11.16-20.833-10.954-10.087-3.761-15.758-6.695-23.897-13.525-8.092-6.79-11.35-11.192-15.938-19.9-4.954-9.09-8.069-13.298-15.937-19.9-6.253-5.247-20.88-11.16-20.833-10.954-10.087-3.761-15.757-6.695-23.897-13.525-8.091-6.79-11.35-11.192-15.937-19.9-4.955-9.09-8.07-13.298-15.937-19.9l1.285-1.532c8.091 6.79 11.35 11.192 15.938 19.9 4.954 9.09 8.069 13.298 15.937 19.9 7.93 6.655 13.399 9.484 23.13 12.882.1.084 15.134 6.172 21.6 11.597 8.09 6.79 11.35 11.192 15.937 19.9 4.955 9.09 8.069 13.298 15.937 19.9 7.931 6.655 13.399 9.484 23.131 12.882.1.083 15.133 6.171 21.6 11.597 8.09 6.789 11.349 11.192 15.936 19.9 4.955 9.09 8.07 13.297 15.938 19.9 7.93 6.654 13.398 9.483 23.13 12.882.1.083 15.134 6.171 21.6 11.597 8.09 6.789 11.35 11.191 15.937 19.9 4.955 9.089 8.069 13.297 15.937 19.9C-14.36 282.84-8.892 285.67.84 289.068c.1.083 15.133 6.17 21.6 11.596l-1.228 1.463c6.91 4.81 18.896 9.638 18.853 9.452 10.087 3.761 15.757 6.695 23.897 13.525 8.091 6.79 11.35 11.192 15.937 19.9 4.955 9.09 8.07 13.298 15.937 19.9 6.254 5.247 20.88 11.16 20.833 10.954 10.087 3.761 15.758 6.695 23.897 13.525 8.092 6.789 11.35 11.192 15.938 19.9 4.954 9.09 8.069 13.297 15.937 19.9 6.253 5.247 20.88 11.16 20.833 10.954 10.087 3.76 15.757 6.694 23.897 13.525 8.091 6.789 11.35 11.191 15.937 19.9 4.955 9.09 8.07 13.297 15.937 19.9 6.254 5.247 20.88 11.16 20.833 10.953 10.087 3.761 15.757 6.695 23.897 13.525 8.091 6.79 11.35 11.192 15.937 19.9 4.955 9.09 8.07 13.298 15.938 19.9l-1.286 1.532c-8.091-6.789-11.35-11.192-15.937-19.9-4.955-9.09-8.07-13.297-15.937-19.9-7.931-6.654-13.4-9.483-23.131-12.882-.1-.083-15.134-6.171-21.6-11.597-8.09-6.789-11.349-11.191-15.937-19.9-4.954-9.089-8.069-13.297-15.937-19.9-7.93-6.654-13.399-9.483-23.13-12.882-.1-.083-15.134-6.17-21.6-11.596-8.09-6.79-11.35-11.192-15.937-19.9-4.955-9.09-8.069-13.298-15.937-19.9-7.931-6.655-13.399-9.484-23.131-12.882-.1-.084-15.133-6.172-21.6-11.597-8.09-6.79-11.349-11.192-15.936-19.9-4.955-9.09-8.07-13.298-15.938-19.9-7.93-6.655-13.398-9.484-23.13-12.882-.1-.083-15.134-6.171-21.6-11.597l1.227-1.462zM8.888 312.953c-6.91-4.81-18.896-9.64-18.853-9.453-10.087-3.761-15.757-6.695-23.897-13.525-8.091-6.79-11.35-11.192-15.937-19.9-4.955-9.09-8.07-13.298-15.937-19.9-6.254-5.247-20.881-11.16-20.833-10.954-10.088-3.76-15.758-6.694-23.898-13.525-8.09-6.789-11.349-11.191-15.937-19.9-4.954-9.09-8.069-13.297-15.937-19.9-6.254-5.247-20.88-11.16-20.833-10.953-10.087-3.762-15.757-6.695-23.897-13.525-8.091-6.79-11.35-11.192-15.937-19.9-4.955-9.09-8.07-13.298-15.937-19.9l1.285-1.532c8.091 6.789 11.35 11.192 15.937 19.9 4.955 9.09 8.07 13.297 15.938 19.9 7.93 6.654 13.398 9.483 23.13 12.882.1.083 15.134 6.171 21.6 11.596 8.09 6.79 11.35 11.192 15.937 19.9 4.954 9.09 8.069 13.298 15.937 19.9 7.93 6.655 13.399 9.484 23.131 12.883.1.083 15.133 6.17 21.6 11.596 8.09 6.79 11.349 11.192 15.936 19.9 4.955 9.09 8.07 13.298 15.937 19.9 7.931 6.655 13.4 9.484 23.132 12.882.099.084 15.133 6.172 21.599 11.597l-1.227 1.462c6.91 4.81 18.895 9.64 18.852 9.453 10.087 3.76 15.758 6.695 23.897 13.525 8.091 6.789 11.35 11.192 15.938 19.9 4.954 9.09 8.069 13.297 15.937 19.9l-1.286 1.532c-8.091-6.79-11.35-11.192-15.937-19.9-4.955-9.09-8.069-13.298-15.937-19.9-7.931-6.655-13.4-9.484-23.131-12.882-.1-.084-15.133-6.172-21.6-11.597l1.228-1.462zm20.569-24.514c-6.91-4.81-18.896-9.639-18.853-9.452-10.087-3.761-15.757-6.695-23.897-13.525-8.091-6.79-11.35-11.192-15.937-19.9-4.955-9.09-8.07-13.298-15.937-19.9-6.254-5.247-20.88-11.16-20.833-10.954-10.087-3.761-15.757-6.695-23.897-13.525-8.091-6.79-11.35-11.192-15.938-19.9-4.954-9.09-8.069-13.298-15.937-19.9l1.286-1.532c8.091 6.79 11.35 11.192 15.937 19.9 4.955 9.09 8.07 13.298 15.937 19.9 7.931 6.655 13.4 9.484 23.131 12.882.1.083 15.134 6.171 21.6 11.597 8.09 6.79 11.349 11.192 15.936 19.9 4.955 9.09 8.07 13.297 15.938 19.9 7.93 6.654 13.399 9.484 23.13 12.882.1.083 15.134 6.171 21.6 11.597l-1.227 1.462c6.91 4.81 18.896 9.639 18.852 9.452 10.088 3.761 15.758 6.695 23.898 13.525 8.09 6.79 11.349 11.192 15.937 19.9 4.954 9.09 8.069 13.298 15.937 19.9 6.254 5.248 20.88 11.16 20.833 10.954 10.087 3.761 15.757 6.695 23.897 13.525 8.091 6.79 11.35 11.192 15.937 19.9 4.955 9.09 8.07 13.298 15.937 19.9 6.254 5.247 20.881 11.16 20.833 10.954 10.087 3.761 15.758 6.695 23.897 13.525 8.092 6.79 11.35 11.192 15.938 19.9 4.954 9.09 8.069 13.298 15.937 19.9l-1.286 1.532c-8.09-6.79-11.35-11.192-15.937-19.9-4.955-9.09-8.069-13.298-15.937-19.9-7.931-6.655-13.399-9.484-23.131-12.882-.1-.084-15.133-6.172-21.6-11.597-8.09-6.79-11.349-11.192-15.936-19.9-4.955-9.09-8.07-13.298-15.938-19.9-7.93-6.655-13.398-9.484-23.13-12.882-.1-.083-15.134-6.171-21.6-11.597-8.09-6.789-11.349-11.192-15.937-19.9-4.954-9.09-8.069-13.297-15.937-19.9-7.93-6.654-13.399-9.483-23.131-12.882-.1-.083-15.133-6.171-21.6-11.597l1.228-1.462zm10.285-12.257c-6.91-4.81-18.896-9.638-18.853-9.452-10.087-3.761-15.757-6.695-23.897-13.525-8.091-6.79-11.35-11.192-15.937-19.9-4.955-9.09-8.07-13.298-15.938-19.9-6.253-5.247-20.88-11.16-20.833-10.954-10.087-3.76-15.757-6.695-23.897-13.525-8.09-6.789-11.35-11.192-15.937-19.9-4.955-9.09-8.069-13.297-15.937-19.9-6.254-5.247-20.88-11.16-20.833-10.953-10.087-3.762-15.757-6.695-23.897-13.525-8.091-6.79-11.35-11.192-15.937-19.9-4.955-9.09-8.07-13.298-15.938-19.9-6.253-5.248-20.88-11.16-20.833-10.954-10.087-3.761-15.757-6.695-23.897-13.525-8.09-6.79-11.35-11.192-15.937-19.9-4.954-9.09-8.069-13.298-15.937-19.9-6.254-5.247-20.88-11.16-20.833-10.954-10.087-3.761-15.757-6.695-23.897-13.525-8.091-6.79-11.35-11.192-15.937-19.9-4.955-9.09-8.07-13.298-15.937-19.9l1.285-1.532c8.091 6.79 11.35 11.192 15.937 19.9 4.955 9.09 8.07 13.298 15.937 19.9 7.931 6.655 13.4 9.484 23.132 12.882.099.083 15.133 6.171 21.599 11.597 8.09 6.79 11.349 11.192 15.937 19.9 4.954 9.09 8.069 13.297 15.937 19.9 7.93 6.654 13.399 9.484 23.131 12.882.1.083 15.133 6.171 21.599 11.597 8.091 6.789 11.35 11.191 15.937 19.9 4.955 9.09 8.07 13.297 15.937 19.9 7.931 6.654 13.4 9.483 23.131 12.882.1.083 15.134 6.17 21.6 11.596 8.09 6.79 11.349 11.192 15.937 19.9 4.954 9.09 8.069 13.298 15.937 19.9 7.93 6.655 13.399 9.484 23.13 12.882.1.084 15.134 6.172 21.6 11.597 8.091 6.79 11.35 11.192 15.937 19.9 4.955 9.09 8.07 13.298 15.937 19.9 7.931 6.655 13.4 9.484 23.131 12.882.1.083 15.134 6.171 21.6 11.597l-1.228 1.462c6.91 4.81 18.896 9.639 18.853 9.453 10.087 3.76 15.757 6.694 23.897 13.525 8.091 6.789 11.35 11.192 15.937 19.9 4.955 9.09 8.07 13.297 15.938 19.9l-1.286 1.532c-8.091-6.79-11.35-11.192-15.937-19.9-4.955-9.09-8.07-13.298-15.937-19.9-7.931-6.655-13.4-9.484-23.131-12.883-.1-.083-15.134-6.17-21.6-11.596l1.228-1.463zm20.569-24.513c-6.91-4.81-18.896-9.639-18.853-9.452-10.087-3.762-15.757-6.695-23.897-13.525-8.091-6.79-11.35-11.192-15.937-19.9-4.955-9.09-8.07-13.298-15.937-19.9-6.254-5.248-20.881-11.16-20.833-10.954-10.088-3.761-15.758-6.695-23.898-13.525-8.09-6.79-11.349-11.192-15.937-19.9-4.954-9.09-8.069-13.298-15.937-19.9-6.254-5.247-20.88-11.16-20.833-10.954-10.087-3.761-15.757-6.695-23.897-13.525-8.091-6.79-11.35-11.192-15.937-19.9-4.955-9.09-8.07-13.298-15.937-19.9l1.285-1.532c8.091 6.79 11.35 11.192 15.937 19.9 4.955 9.09 8.07 13.298 15.938 19.9 7.93 6.655 13.398 9.484 23.13 12.882.1.083 15.134 6.171 21.6 11.597 8.09 6.79 11.35 11.192 15.937 19.9 4.954 9.09 8.069 13.298 15.937 19.9 7.93 6.655 13.399 9.484 23.131 12.882.1.083 15.133 6.171 21.6 11.597 8.09 6.789 11.349 11.192 15.936 19.9 4.955 9.09 8.07 13.297 15.937 19.9 7.931 6.654 13.4 9.483 23.132 12.882.099.083 15.133 6.171 21.599 11.596l-1.227 1.463c6.91 4.81 18.895 9.639 18.852 9.452 10.087 3.761 15.758 6.695 23.897 13.525 8.092 6.79 11.35 11.192 15.938 19.9 4.954 9.09 8.069 13.298 15.937 19.9 6.253 5.247 20.88 11.16 20.833 10.954 10.087 3.761 15.757 6.695 23.897 13.525 8.09 6.79 11.35 11.192 15.937 19.9 4.955 9.09 8.069 13.298 15.937 19.9 6.254 5.247 20.88 11.16 20.833 10.954 10.087 3.76 15.757 6.695 23.897 13.525 8.091 6.789 11.35 11.192 15.937 19.9 4.955 9.09 8.07 13.297 15.938 19.9l-1.286 1.532c-8.091-6.79-11.35-11.192-15.937-19.9-4.955-9.09-8.07-13.298-15.937-19.9-7.931-6.655-13.4-9.484-23.131-12.882-.1-.084-15.134-6.172-21.6-11.597-8.09-6.79-11.349-11.192-15.937-19.9-4.954-9.09-8.069-13.298-15.937-19.9-7.93-6.655-13.399-9.484-23.13-12.882-.1-.083-15.134-6.171-21.6-11.597-8.091-6.79-11.35-11.192-15.937-19.9-4.955-9.09-8.069-13.298-15.937-19.9-7.931-6.655-13.4-9.484-23.131-12.882-.1-.083-15.133-6.171-21.6-11.597l1.228-1.462zm30.854-36.77c-6.91-4.81-18.896-9.639-18.853-9.452-10.087-3.762-15.757-6.695-23.897-13.526-8.091-6.789-11.35-11.191-15.937-19.9-4.955-9.089-8.07-13.297-15.938-19.9-6.253-5.247-20.88-11.16-20.833-10.953-10.087-3.761-15.757-6.695-23.897-13.525-8.09-6.79-11.35-11.192-15.937-19.9-4.955-9.09-8.069-13.298-15.937-19.9-6.254-5.248-20.88-11.16-20.833-10.954-10.087-3.761-15.757-6.695-23.897-13.525-8.091-6.79-11.35-11.192-15.937-19.9-4.955-9.09-8.07-13.298-15.938-19.9l1.286-1.532c8.091 6.79 11.35 11.192 15.937 19.9 4.955 9.09 8.07 13.298 15.937 19.9 7.931 6.655 13.4 9.484 23.131 12.882.1.083 15.134 6.171 21.6 11.597 8.09 6.789 11.349 11.192 15.937 19.9 4.954 9.09 8.069 13.297 15.937 19.9 7.93 6.654 13.399 9.483 23.13 12.882.1.083 15.134 6.171 21.6 11.597 8.091 6.789 11.35 11.191 15.937 19.9 4.955 9.089 8.07 13.297 15.937 19.9 7.931 6.654 13.4 9.483 23.131 12.882.1.083 15.134 6.17 21.6 11.596l-1.228 1.463c6.91 4.81 18.896 9.638 18.853 9.452 10.087 3.761 15.757 6.695 23.897 13.525 8.091 6.79 11.35 11.192 15.937 19.9 4.955 9.09 8.07 13.298 15.938 19.9 6.253 5.247 20.88 11.16 20.833 10.954 10.087 3.761 15.757 6.695 23.897 13.525 8.09 6.79 11.349 11.192 15.937 19.9 4.954 9.09 8.069 13.297 15.937 19.9 6.254 5.247 20.88 11.16 20.833 10.954 10.087 3.76 15.757 6.694 23.897 13.525 8.091 6.789 11.35 11.191 15.937 19.9 4.955 9.09 8.07 13.297 15.937 19.9l-1.285 1.531c-8.091-6.789-11.35-11.191-15.937-19.9-4.955-9.089-8.07-13.297-15.937-19.9-7.931-6.654-13.4-9.483-23.132-12.882-.099-.083-15.133-6.17-21.599-11.596-8.09-6.79-11.349-11.192-15.937-19.9-4.954-9.09-8.069-13.298-15.937-19.9-7.93-6.655-13.399-9.484-23.131-12.882-.1-.084-15.133-6.172-21.599-11.597-8.091-6.79-11.35-11.192-15.937-19.9-4.955-9.09-8.07-13.298-15.937-19.9-7.931-6.655-13.4-9.484-23.131-12.882-.1-.083-15.134-6.171-21.6-11.597l1.228-1.462zm20.569-24.513c-6.91-4.81-18.896-9.64-18.853-9.453-10.087-3.761-15.757-6.695-23.897-13.525-8.091-6.79-11.35-11.192-15.937-19.9-4.955-9.09-8.07-13.298-15.937-19.9l1.285-1.532c8.091 6.79 11.35 11.192 15.937 19.9 4.955 9.09 8.07 13.298 15.937 19.9 7.931 6.655 13.4 9.484 23.132 12.882.099.083 15.133 6.171 21.599 11.597l-1.227 1.462c6.91 4.81 18.895 9.639 18.852 9.453 10.087 3.76 15.758 6.694 23.897 13.525 8.092 6.789 11.35 11.192 15.938 19.9 4.954 9.09 8.069 13.297 15.937 19.9 6.253 5.247 20.88 11.16 20.833 10.953 10.087 3.762 15.757 6.695 23.897 13.525 8.091 6.79 11.35 11.192 15.937 19.9 4.955 9.09 8.069 13.298 15.937 19.9 6.254 5.248 20.88 11.16 20.833 10.954 10.087 3.761 15.757 6.695 23.897 13.525 8.091 6.79 11.35 11.192 15.937 19.9 4.955 9.09 8.07 13.298 15.938 19.9 6.253 5.247 20.88 11.16 20.833 10.954 10.087 3.761 15.757 6.695 23.897 13.525 8.09 6.79 11.35 11.192 15.937 19.9 4.955 9.09 8.069 13.298 15.937 19.9 6.254 5.247 20.88 11.16 20.833 10.954 10.087 3.76 15.757 6.695 23.897 13.525 8.091 6.789 11.35 11.192 15.937 19.9 4.955 9.09 8.07 13.297 15.938 19.9l-1.286 1.532c-8.091-6.79-11.35-11.192-15.937-19.9-4.955-9.09-8.07-13.298-15.937-19.9-7.931-6.655-13.4-9.484-23.131-12.882-.1-.084-15.134-6.172-21.6-11.597-8.09-6.79-11.349-11.192-15.937-19.9-4.954-9.09-8.069-13.298-15.937-19.9-7.93-6.655-13.399-9.484-23.13-12.882-.1-.083-15.134-6.171-21.6-11.597-8.091-6.79-11.35-11.192-15.937-19.9-4.955-9.09-8.07-13.298-15.937-19.9-7.931-6.655-13.4-9.484-23.131-12.882-.1-.083-15.134-6.171-21.6-11.597-8.09-6.789-11.349-11.192-15.937-19.9-4.954-9.09-8.069-13.297-15.937-19.9-7.93-6.654-13.399-9.483-23.13-12.882-.1-.083-15.134-6.171-21.6-11.596-8.09-6.79-11.35-11.192-15.937-19.9-4.955-9.09-8.069-13.298-15.937-19.9-7.931-6.655-13.399-9.484-23.131-12.883-.1-.083-15.133-6.17-21.6-11.596l1.228-1.462zm10.284-12.257c-6.91-4.81-18.896-9.64-18.852-9.453-10.087-3.76-15.758-6.694-23.898-13.525-8.09-6.789-11.349-11.192-15.937-19.9-4.954-9.09-8.069-13.297-15.937-19.9-6.253-5.247-20.88-11.16-20.833-10.953-10.087-3.762-15.757-6.695-23.897-13.525-8.091-6.79-11.35-11.192-15.937-19.9-4.955-9.09-8.07-13.298-15.937-19.9-6.254-5.248-20.88-11.16-20.833-10.954C-60.13 36.358-65.8 33.424-73.94 26.594c-8.092-6.79-11.35-11.192-15.938-19.9-4.954-9.09-8.069-13.298-15.937-19.9l1.286-1.532c8.09 6.79 11.35 11.192 15.937 19.9 4.955 9.09 8.069 13.298 15.937 19.9 7.931 6.655 13.399 9.484 23.131 12.882.1.083 15.133 6.171 21.6 11.597 8.09 6.789 11.349 11.192 15.936 19.9 4.955 9.09 8.07 13.297 15.938 19.9 7.93 6.654 13.398 9.483 23.13 12.882.1.083 15.134 6.171 21.6 11.596 8.09 6.79 11.35 11.192 15.937 19.9 4.955 9.09 8.069 13.298 15.937 19.9 7.931 6.655 13.399 9.484 23.131 12.883.1.083 15.133 6.17 21.6 11.596l-1.228 1.462c6.91 4.81 18.896 9.64 18.853 9.453 10.087 3.761 15.757 6.695 23.897 13.525 8.091 6.79 11.35 11.192 15.937 19.9 4.955 9.09 8.07 13.298 15.937 19.9 6.254 5.247 20.881 11.16 20.833 10.954 10.087 3.76 15.758 6.695 23.897 13.525 8.092 6.789 11.35 11.192 15.938 19.9 4.954 9.09 8.069 13.297 15.937 19.9L274 308.149c-8.09-6.79-11.35-11.192-15.937-19.9-4.955-9.09-8.069-13.298-15.937-19.9-7.931-6.655-13.399-9.484-23.131-12.882-.1-.084-15.133-6.172-21.6-11.597-8.09-6.79-11.349-11.192-15.936-19.9-4.955-9.09-8.07-13.298-15.938-19.9-7.93-6.655-13.398-9.484-23.13-12.882-.1-.083-15.134-6.171-21.6-11.597l1.227-1.462zm10.285-12.257c-6.91-4.81-18.896-9.639-18.853-9.452-10.087-3.762-15.757-6.695-23.897-13.525-8.091-6.79-11.35-11.192-15.937-19.9-4.955-9.09-8.07-13.298-15.937-19.9-6.254-5.248-20.88-11.16-20.833-10.954C26.76 88.38 21.09 85.446 12.95 78.616c-8.091-6.79-11.35-11.192-15.938-19.9-4.954-9.09-8.069-13.298-15.937-19.9-6.253-5.247-20.88-11.16-20.833-10.954-10.087-3.761-15.757-6.695-23.897-13.525-8.09-6.79-11.35-11.192-15.937-19.9-4.955-9.09-8.069-13.298-15.937-19.9-6.254-5.247-20.88-11.16-20.833-10.954-10.087-3.76-15.757-6.694-23.897-13.525-8.091-6.789-11.35-11.192-15.937-19.9-4.955-9.09-8.07-13.297-15.938-19.9l1.286-1.532c8.091 6.79 11.35 11.192 15.937 19.9 4.955 9.09 8.07 13.298 15.937 19.9 7.931 6.655 13.4 9.484 23.131 12.883.1.083 15.134 6.17 21.6 11.596 8.09 6.79 11.349 11.192 15.937 19.9 4.954 9.09 8.069 13.298 15.937 19.9 7.93 6.655 13.399 9.484 23.13 12.882.1.083 15.134 6.172 21.6 11.597 8.091 6.79 11.35 11.192 15.937 19.9 4.955 9.09 8.07 13.298 15.937 19.9 7.931 6.655 13.4 9.484 23.131 12.882.1.083 15.134 6.171 21.6 11.597 8.09 6.789 11.349 11.192 15.936 19.9 4.955 9.09 8.07 13.297 15.938 19.9 7.93 6.654 13.399 9.483 23.13 12.882.1.083 15.134 6.171 21.6 11.596l-1.227 1.463c6.91 4.81 18.896 9.639 18.852 9.452 10.088 3.761 15.758 6.695 23.898 13.525 8.09 6.79 11.349 11.192 15.937 19.9 4.954 9.09 8.069 13.298 15.937 19.9 6.254 5.247 20.88 11.16 20.833 10.954 10.087 3.761 15.757 6.695 23.897 13.525 8.091 6.79 11.35 11.192 15.937 19.9 4.955 9.09 8.07 13.298 15.937 19.9 6.254 5.247 20.881 11.16 20.833 10.954 10.087 3.76 15.758 6.695 23.897 13.525 8.092 6.789 11.35 11.192 15.938 19.9 4.954 9.09 8.069 13.297 15.937 19.9 6.253 5.247 20.88 11.16 20.833 10.953 10.087 3.762 15.757 6.695 23.897 13.525 8.091 6.79 11.35 11.192 15.937 19.9 4.955 9.09 8.07 13.298 15.937 19.9l-1.285 1.532c-8.091-6.789-11.35-11.191-15.937-19.9-4.955-9.09-8.07-13.297-15.938-19.9-7.93-6.654-13.399-9.483-23.13-12.882-.1-.083-15.134-6.17-21.6-11.596-8.09-6.79-11.35-11.192-15.937-19.9-4.955-9.09-8.069-13.298-15.937-19.9-7.931-6.655-13.399-9.484-23.131-12.882-.1-.084-15.133-6.172-21.6-11.597-8.09-6.79-11.349-11.192-15.936-19.9-4.955-9.09-8.07-13.298-15.938-19.9-7.93-6.655-13.398-9.484-23.13-12.882-.1-.083-15.134-6.171-21.6-11.597-8.09-6.79-11.349-11.192-15.937-19.9-4.954-9.09-8.069-13.298-15.937-19.9-7.93-6.655-13.399-9.484-23.131-12.882-.1-.083-15.133-6.171-21.6-11.597l1.228-1.462zm10.285-12.257c-6.91-4.81-18.896-9.638-18.853-9.452-10.087-3.761-15.757-6.695-23.897-13.525-8.091-6.79-11.35-11.192-15.937-19.9-4.955-9.09-8.07-13.298-15.938-19.9l1.286-1.532c8.091 6.79 11.35 11.192 15.937 19.9 4.955 9.09 8.07 13.298 15.937 19.9 7.931 6.655 13.4 9.484 23.131 12.882.1.083 15.134 6.171 21.6 11.597l-1.228 1.462c6.91 4.81 18.896 9.639 18.853 9.452 10.087 3.762 15.757 6.695 23.897 13.526 8.091 6.789 11.35 11.191 15.937 19.9 4.955 9.089 8.07 13.297 15.938 19.9 6.253 5.247 20.88 11.16 20.833 10.953 10.087 3.761 15.757 6.695 23.897 13.525 8.09 6.79 11.35 11.192 15.937 19.9 4.954 9.09 8.069 13.298 15.937 19.9 6.254 5.247 20.88 11.16 20.833 10.954 10.087 3.761 15.757 6.695 23.897 13.525 8.091 6.79 11.35 11.192 15.937 19.9 4.955 9.09 8.07 13.298 15.937 19.9l-1.285 1.532c-8.091-6.79-11.35-11.192-15.937-19.9-4.955-9.09-8.07-13.298-15.937-19.9-7.931-6.655-13.4-9.484-23.132-12.882-.099-.083-15.133-6.171-21.599-11.597-8.09-6.79-11.349-11.192-15.937-19.9-4.954-9.09-8.069-13.297-15.937-19.9-7.93-6.654-13.399-9.484-23.131-12.882-.1-.083-15.133-6.171-21.599-11.597-8.091-6.789-11.35-11.191-15.937-19.9-4.955-9.09-8.07-13.297-15.937-19.9-7.931-6.654-13.4-9.483-23.131-12.882-.1-.083-15.134-6.17-21.6-11.596l1.228-1.463zm10.284-12.256c-6.91-4.81-18.896-9.64-18.853-9.453-10.087-3.761-15.757-6.695-23.897-13.525-8.09-6.789-11.35-11.192-15.937-19.9-4.955-9.09-8.069-13.297-15.937-19.9-6.254-5.247-20.88-11.16-20.833-10.954-10.087-3.76-15.757-6.694-23.897-13.525-8.091-6.789-11.35-11.191-15.937-19.9-4.955-9.09-8.07-13.297-15.937-19.9C-4.61 9.056-19.236 3.143-19.188 3.35-29.276-.412-34.946-3.346-43.086-10.176c-8.09-6.79-11.349-11.192-15.937-19.9-4.954-9.09-8.069-13.298-15.937-19.9-6.254-5.248-20.88-11.16-20.833-10.954-10.087-3.761-15.757-6.695-23.897-13.525-8.091-6.79-11.35-11.192-15.937-19.9-4.955-9.09-8.07-13.298-15.937-19.9-6.254-5.247-20.881-11.16-20.833-10.954-10.087-3.761-15.758-6.695-23.897-13.525-8.092-6.79-11.35-11.192-15.938-19.9-4.954-9.09-8.069-13.298-15.937-19.9-6.253-5.247-20.88-11.16-20.833-10.954-10.087-3.76-15.757-6.694-23.897-13.525-8.091-6.789-11.35-11.191-15.937-19.9-4.955-9.09-8.07-13.297-15.937-19.9l1.285-1.532c8.091 6.79 11.35 11.192 15.937 19.9 4.955 9.09 8.07 13.298 15.938 19.9 7.93 6.655 13.399 9.484 23.13 12.883.1.083 15.134 6.17 21.6 11.596 8.09 6.79 11.35 11.192 15.937 19.9 4.955 9.09 8.069 13.298 15.937 19.9 7.931 6.655 13.399 9.484 23.131 12.882.1.084 15.133 6.172 21.6 11.597 8.09 6.79 11.349 11.192 15.936 19.9 4.955 9.09 8.07 13.298 15.938 19.9 7.93 6.655 13.398 9.484 23.13 12.882.1.083 15.134 6.171 21.6 11.597 8.09 6.789 11.349 11.192 15.937 19.9 4.954 9.09 8.069 13.297 15.937 19.9 7.93 6.654 13.399 9.483 23.131 12.882.1.083 15.133 6.171 21.6 11.597 8.09 6.789 11.348 11.191 15.936 19.9 4.955 9.089 8.07 13.297 15.937 19.9 7.931 6.654 13.4 9.483 23.132 12.882.099.083 15.133 6.17 21.599 11.596 8.09 6.79 11.349 11.192 15.937 19.9 4.954 9.09 8.069 13.298 15.937 19.9 7.93 6.655 13.399 9.484 23.131 12.882.1.084 15.133 6.172 21.599 11.597l-1.227 1.462c6.91 4.81 18.896 9.64 18.853 9.453 10.087 3.76 15.757 6.695 23.897 13.525 8.09 6.789 11.35 11.192 15.937 19.9 4.955 9.09 8.069 13.297 15.937 19.9l-1.285 1.532c-8.092-6.79-11.35-11.192-15.938-19.9-4.954-9.09-8.069-13.298-15.937-19.9-7.93-6.655-13.399-9.484-23.13-12.882-.1-.084-15.134-6.172-21.6-11.597l1.227-1.462zm85.632 402.002c-.1-.083-15.133-6.17-21.6-11.596l1.286-1.532c6.254 5.247 20.881 11.16 20.833 10.953 10.087 3.762 15.758 6.695 23.898 13.525 8.09 6.79 11.349 11.192 15.937 19.9 4.954 9.09 8.069 13.298 15.937 19.9l-1.286 1.532c-8.09-6.789-11.35-11.192-15.937-19.9-4.955-9.09-8.069-13.297-15.937-19.9-7.931-6.654-13.399-9.483-23.131-12.882zM85.296 414.804c-.1-.083-15.133-6.171-21.599-11.597l1.286-1.532c6.253 5.247 20.88 11.16 20.832 10.954 10.088 3.761 15.758 6.695 23.898 13.525 8.09 6.79 11.349 11.192 15.937 19.9 4.954 9.09 8.069 13.298 15.937 19.9l-1.286 1.532c-8.09-6.79-11.349-11.192-15.937-19.9-4.954-9.09-8.069-13.298-15.937-19.9-7.93-6.655-13.399-9.484-23.131-12.882zm153.465 90.915c6.253 5.247 20.88 11.16 20.833 10.954 10.087 3.761 15.757 6.695 23.897 13.525 8.09 6.79 11.35 11.192 15.937 19.9 4.955 9.09 8.069 13.298 15.937 19.9 6.254 5.247 20.88 11.16 20.833 10.954 10.087 3.76 15.757 6.695 23.897 13.525 8.091 6.789 11.35 11.192 15.937 19.9 4.955 9.09 8.07 13.297 15.938 19.9l-1.286 1.532c-8.091-6.79-11.35-11.192-15.937-19.9-4.955-9.09-8.07-13.298-15.937-19.9-7.931-6.655-13.4-9.484-23.132-12.882-.099-.084-15.133-6.172-21.599-11.597-8.09-6.79-11.349-11.192-15.937-19.9-4.954-9.09-8.069-13.298-15.937-19.9-7.93-6.655-13.399-9.484-23.131-12.882-.1-.083-15.133-6.171-21.599-11.597-8.091-6.79-11.35-11.192-15.937-19.9-4.955-9.09-8.07-13.297-15.937-19.9-7.931-6.654-13.4-9.484-23.131-12.882-.1-.083-15.134-6.171-21.6-11.597l1.286-1.532c6.254 5.248 20.88 11.16 20.833 10.954 10.087 3.761 15.757 6.695 23.897 13.525 8.091 6.79 11.35 11.192 15.937 19.9 4.955 9.09 8.07 13.298 15.938 19.9zm117.487 52.894c-.1-.083-15.134-6.171-21.6-11.596l1.286-1.533c6.254 5.248 20.88 11.16 20.833 10.954 10.087 3.762 15.757 6.695 23.897 13.525 8.091 6.79 11.35 11.192 15.938 19.9 4.954 9.09 8.069 13.298 15.937 19.9l-1.286 1.532c-8.091-6.789-11.35-11.192-15.937-19.9-4.955-9.09-8.07-13.297-15.937-19.9-7.931-6.654-13.4-9.483-23.131-12.882zm-87.92-88.132c-8.09-6.79-11.349-11.192-15.936-19.9-4.955-9.09-8.07-13.298-15.937-19.9-7.931-6.655-13.4-9.484-23.132-12.882-.099-.083-15.133-6.171-21.599-11.597l1.286-1.532c6.254 5.248 20.88 11.16 20.833 10.954 10.087 3.761 15.757 6.695 23.897 13.525 8.091 6.79 11.35 11.192 15.937 19.9 4.955 9.09 8.07 13.298 15.937 19.9 6.254 5.247 20.881 11.16 20.833 10.954 10.087 3.761 15.758 6.695 23.898 13.525 8.09 6.79 11.349 11.192 15.937 19.9 4.954 9.09 8.069 13.298 15.937 19.9l-1.286 1.532c-8.09-6.79-11.35-11.192-15.937-19.9-4.955-9.09-8.069-13.298-15.937-19.9-7.931-6.655-13.399-9.484-23.131-12.882-.1-.083-15.133-6.172-21.6-11.597zM126.69 328.135c6.254 5.247 20.88 11.16 20.833 10.954 10.087 3.76 15.757 6.694 23.897 13.525 8.091 6.789 11.35 11.192 15.937 19.9 4.955 9.09 8.07 13.297 15.938 19.9 6.253 5.247 20.88 11.16 20.833 10.953 10.087 3.762 15.757 6.695 23.897 13.525 8.09 6.79 11.35 11.192 15.937 19.9 4.955 9.09 8.069 13.298 15.937 19.9l-1.286 1.532c-8.09-6.789-11.349-11.192-15.937-19.9-4.954-9.09-8.069-13.297-15.937-19.9-7.93-6.654-13.399-9.483-23.131-12.882-.1-.083-15.133-6.171-21.599-11.596-8.091-6.79-11.35-11.192-15.937-19.9-4.955-9.09-8.07-13.298-15.937-19.9-7.931-6.655-13.4-9.484-23.131-12.883-.1-.083-15.134-6.17-21.6-11.596-8.09-6.79-11.349-11.192-15.937-19.9-4.954-9.09-8.069-13.298-15.937-19.9-7.93-6.655-13.399-9.484-23.13-12.882-.1-.083-15.134-6.171-21.6-11.597l1.286-1.532c6.253 5.247 20.88 11.16 20.833 10.954 10.087 3.761 15.757 6.695 23.897 13.525 8.09 6.79 11.35 11.192 15.937 19.9 4.955 9.09 8.069 13.298 15.937 19.9zm97.174 39.765c6.253 5.247 20.88 11.16 20.833 10.954 10.087 3.761 15.757 6.695 23.897 13.525 8.091 6.79 11.35 11.192 15.937 19.9 4.955 9.09 8.07 13.298 15.937 19.9 6.254 5.247 20.88 11.16 20.833 10.954 10.087 3.76 15.757 6.695 23.897 13.525 8.091 6.789 11.35 11.192 15.937 19.9 4.955 9.09 8.07 13.297 15.938 19.9l-1.286 1.532c-8.091-6.79-11.35-11.192-15.937-19.9-4.955-9.09-8.07-13.298-15.937-19.9-7.931-6.655-13.4-9.484-23.131-12.882-.1-.084-15.134-6.172-21.6-11.597-8.09-6.79-11.349-11.192-15.937-19.9-4.954-9.09-8.069-13.298-15.937-19.9-7.93-6.655-13.399-9.484-23.13-12.882-.1-.083-15.134-6.171-21.6-11.597-8.09-6.79-11.35-11.192-15.937-19.9-4.955-9.09-8.069-13.298-15.937-19.9-7.931-6.654-13.399-9.484-23.131-12.882-.1-.083-15.133-6.171-21.6-11.597l1.286-1.532c6.254 5.248 20.88 11.16 20.833 10.954 10.087 3.761 15.758 6.695 23.897 13.525 8.092 6.79 11.35 11.192 15.938 19.9 4.954 9.09 8.069 13.298 15.937 19.9zm-66.32-76.535c6.254 5.247 20.88 11.16 20.833 10.953 10.087 3.762 15.757 6.695 23.897 13.526 8.091 6.789 11.35 11.191 15.937 19.9 4.955 9.089 8.07 13.297 15.937 19.9 6.254 5.247 20.881 11.16 20.833 10.953 10.087 3.761 15.758 6.695 23.897 13.525 8.092 6.79 11.35 11.192 15.938 19.9 4.954 9.09 8.069 13.298 15.937 19.9 6.253 5.248 20.88 11.16 20.833 10.954 10.087 3.761 15.757 6.695 23.897 13.525 8.091 6.79 11.35 11.192 15.937 19.9 4.955 9.09 8.07 13.298 15.937 19.9 6.254 5.247 20.88 11.16 20.833 10.954 10.087 3.761 15.757 6.695 23.897 13.525 8.091 6.79 11.35 11.192 15.938 19.9 4.954 9.09 8.069 13.297 15.937 19.9l-1.286 1.532c-8.091-6.79-11.35-11.192-15.937-19.9-4.955-9.09-8.07-13.298-15.937-19.9-7.931-6.655-13.4-9.484-23.131-12.882-.1-.084-15.134-6.172-21.6-11.597-8.09-6.79-11.349-11.192-15.936-19.9-4.955-9.09-8.07-13.298-15.938-19.9-7.93-6.655-13.399-9.484-23.13-12.882-.1-.083-15.134-6.171-21.6-11.597-8.09-6.789-11.35-11.192-15.937-19.9-4.955-9.09-8.069-13.297-15.937-19.9-7.931-6.654-13.399-9.484-23.131-12.882-.1-.083-15.133-6.171-21.6-11.597-8.09-6.789-11.349-11.191-15.936-19.9-4.955-9.09-8.07-13.297-15.938-19.9-7.93-6.654-13.398-9.483-23.13-12.882-.1-.083-15.134-6.17-21.6-11.596-8.09-6.79-11.349-11.192-15.937-19.9-4.954-9.09-8.069-13.298-15.937-19.9-7.93-6.655-13.399-9.484-23.131-12.882-.1-.084-15.133-6.172-21.6-11.597l1.286-1.532c6.254 5.247 20.881 11.16 20.833 10.954 10.088 3.76 15.758 6.695 23.898 13.525 8.09 6.789 11.349 11.192 15.937 19.9 4.954 9.09 8.069 13.297 15.937 19.9zm260.411 193.708c-.099-.083-15.133-6.171-21.599-11.597l1.286-1.532c6.253 5.248 20.88 11.16 20.833 10.954 10.087 3.761 15.757 6.695 23.897 13.525 8.091 6.79 11.35 11.192 15.937 19.9 4.955 9.09 8.07 13.298 15.937 19.9l-1.285 1.532c-8.091-6.79-11.35-11.192-15.937-19.9-4.955-9.09-8.07-13.298-15.938-19.9-7.93-6.655-13.398-9.484-23.13-12.882zM254.718 331.13c6.253 5.247 20.88 11.16 20.833 10.954 10.087 3.761 15.757 6.695 23.897 13.525 8.09 6.79 11.35 11.192 15.937 19.9 4.955 9.09 8.069 13.298 15.937 19.9 6.254 5.247 20.88 11.16 20.833 10.954 10.087 3.76 15.757 6.694 23.897 13.525 8.091 6.789 11.35 11.192 15.937 19.9 4.955 9.09 8.07 13.297 15.937 19.9 6.254 5.247 20.881 11.16 20.833 10.953 10.088 3.762 15.758 6.695 23.898 13.525 8.09 6.79 11.349 11.192 15.937 19.9 4.954 9.09 8.069 13.298 15.937 19.9 6.254 5.248 20.88 11.16 20.833 10.954 10.087 3.761 15.757 6.695 23.897 13.525 8.091 6.79 11.35 11.192 15.937 19.9 4.955 9.09 8.07 13.298 15.937 19.9l-1.285 1.532c-8.091-6.79-11.35-11.192-15.937-19.9-4.955-9.09-8.07-13.298-15.938-19.9-7.93-6.655-13.398-9.484-23.13-12.882-.1-.083-15.134-6.171-21.6-11.597-8.09-6.789-11.35-11.192-15.937-19.9-4.954-9.09-8.069-13.297-15.937-19.9-7.93-6.654-13.399-9.483-23.131-12.882-.1-.083-15.133-6.171-21.6-11.596-8.09-6.79-11.349-11.192-15.936-19.9-4.955-9.09-8.07-13.298-15.937-19.9-7.931-6.655-13.4-9.484-23.132-12.883-.099-.083-15.133-6.17-21.599-11.596-8.09-6.79-11.349-11.192-15.937-19.9-4.954-9.09-8.069-13.298-15.937-19.9-7.93-6.655-13.399-9.484-23.131-12.882-.1-.084-15.133-6.172-21.599-11.597-8.091-6.79-11.35-11.192-15.937-19.9-4.955-9.09-8.07-13.298-15.937-19.9-7.931-6.655-13.4-9.484-23.131-12.882-.1-.083-15.134-6.171-21.6-11.597l1.286-1.532c6.254 5.248 20.88 11.16 20.833 10.954 10.087 3.761 15.757 6.695 23.897 13.525 8.091 6.79 11.35 11.192 15.937 19.9 4.955 9.09 8.07 13.298 15.938 19.9zm117.487 52.894c-.1-.083-15.134-6.171-21.6-11.597l1.286-1.532c6.254 5.248 20.88 11.16 20.833 10.954 10.087 3.761 15.757 6.695 23.897 13.525 8.091 6.79 11.35 11.192 15.938 19.9 4.954 9.09 8.069 13.298 15.937 19.9l-1.286 1.532c-8.091-6.79-11.35-11.192-15.937-19.9-4.955-9.09-8.07-13.298-15.937-19.9-7.931-6.655-13.4-9.484-23.131-12.882zm30.853-36.77c-.099-.083-15.133-6.171-21.599-11.597l1.286-1.532c6.254 5.248 20.88 11.16 20.833 10.954 10.087 3.761 15.757 6.695 23.897 13.525 8.091 6.79 11.35 11.192 15.937 19.9 4.955 9.09 8.07 13.298 15.937 19.9l-1.285 1.532c-8.091-6.79-11.35-11.192-15.937-19.9-4.955-9.09-8.07-13.298-15.937-19.9-7.931-6.655-13.4-9.484-23.132-12.882zm-87.918-88.132c-8.091-6.79-11.35-11.192-15.938-19.9-4.954-9.09-8.069-13.298-15.937-19.9-7.93-6.655-13.399-9.484-23.13-12.882-.1-.084-15.134-6.172-21.6-11.597l1.286-1.532c6.253 5.247 20.88 11.16 20.833 10.954 10.087 3.761 15.757 6.695 23.897 13.525 8.091 6.79 11.35 11.192 15.937 19.9 4.955 9.09 8.07 13.298 15.937 19.9 6.254 5.247 20.88 11.16 20.833 10.954 10.087 3.76 15.757 6.694 23.897 13.525 8.091 6.789 11.35 11.191 15.937 19.9 4.955 9.09 8.07 13.297 15.938 19.9l-1.286 1.532c-8.091-6.79-11.35-11.192-15.937-19.9-4.955-9.09-8.07-13.298-15.937-19.9-7.931-6.655-13.4-9.484-23.131-12.883-.1-.083-15.134-6.17-21.6-11.596zm11.57-13.789c6.253 5.247 20.88 11.16 20.833 10.954 10.087 3.761 15.757 6.695 23.897 13.525 8.091 6.79 11.35 11.192 15.937 19.9 4.955 9.09 8.07 13.298 15.937 19.9 6.254 5.247 20.88 11.16 20.833 10.954 10.087 3.76 15.757 6.694 23.897 13.525 8.091 6.789 11.35 11.192 15.938 19.9 4.954 9.09 8.069 13.297 15.937 19.9 6.253 5.247 20.88 11.16 20.833 10.953 10.087 3.762 15.757 6.695 23.897 13.525 8.09 6.79 11.35 11.192 15.937 19.9 4.955 9.09 8.069 13.298 15.937 19.9l-1.285 1.532c-8.092-6.789-11.35-11.192-15.938-19.9-4.954-9.09-8.069-13.297-15.937-19.9-7.93-6.654-13.399-9.483-23.13-12.882-.1-.083-15.134-6.171-21.6-11.596-8.091-6.79-11.35-11.192-15.937-19.9-4.955-9.09-8.07-13.298-15.937-19.9-7.931-6.655-13.4-9.484-23.131-12.883-.1-.083-15.134-6.17-21.6-11.596-8.09-6.79-11.349-11.192-15.937-19.9-4.954-9.09-8.069-13.298-15.937-19.9-7.93-6.655-13.399-9.484-23.13-12.882-.1-.083-15.134-6.172-21.6-11.597-8.09-6.79-11.35-11.192-15.937-19.9-4.955-9.09-8.069-13.298-15.937-19.9-7.931-6.655-13.399-9.484-23.131-12.882-.1-.083-15.133-6.171-21.6-11.597-8.09-6.789-11.349-11.192-15.936-19.9-4.955-9.09-8.07-13.297-15.938-19.9-7.93-6.654-13.398-9.483-23.13-12.882-.1-.083-15.134-6.171-21.6-11.596l1.286-1.533c6.254 5.248 20.88 11.16 20.833 10.954 10.087 3.762 15.757 6.695 23.897 13.525 8.091 6.79 11.35 11.192 15.937 19.9 4.955 9.09 8.07 13.298 15.937 19.9 6.254 5.248 20.881 11.16 20.833 10.954 10.087 3.761 15.758 6.695 23.897 13.525 8.092 6.79 11.35 11.192 15.938 19.9 4.954 9.09 8.069 13.298 15.937 19.9zm30.598.872c-.1-.083-15.133-6.171-21.6-11.597l1.286-1.532c6.254 5.248 20.881 11.16 20.833 10.954 10.087 3.761 15.758 6.695 23.898 13.525 8.09 6.79 11.349 11.192 15.937 19.9 4.954 9.09 8.069 13.298 15.937 19.9l-1.286 1.532c-8.09-6.79-11.35-11.192-15.937-19.9-4.955-9.09-8.069-13.298-15.937-19.9-7.931-6.655-13.399-9.484-23.131-12.882zm-153.21-128.558c-.098-.083-15.132-6.17-21.598-11.596l1.286-1.532c6.253 5.247 20.88 11.16 20.832 10.954 10.088 3.76 15.758 6.694 23.898 13.525 8.09 6.789 11.349 11.192 15.937 19.9 4.954 9.09 8.069 13.297 15.937 19.9l-1.286 1.532c-8.09-6.79-11.349-11.192-15.937-19.9-4.954-9.09-8.069-13.298-15.937-19.9-7.93-6.655-13.399-9.484-23.131-12.883zm141.895 104.705c-8.09-6.79-11.349-11.192-15.937-19.9-4.954-9.09-8.069-13.298-15.937-19.9-7.93-6.655-13.399-9.484-23.131-12.882-.1-.084-15.133-6.172-21.599-11.597l1.286-1.532c6.253 5.247 20.88 11.16 20.833 10.954 10.087 3.76 15.757 6.695 23.897 13.525 8.09 6.789 11.35 11.192 15.937 19.9 4.954 9.09 8.069 13.297 15.937 19.9 6.254 5.247 20.88 11.16 20.833 10.953 10.087 3.762 15.757 6.695 23.897 13.525 8.091 6.79 11.35 11.192 15.937 19.9 4.955 9.09 8.07 13.298 15.937 19.9l-1.285 1.532c-8.091-6.789-11.35-11.192-15.937-19.9-4.955-9.09-8.07-13.297-15.937-19.9-7.931-6.654-13.4-9.483-23.132-12.882-.099-.083-15.133-6.17-21.599-11.596zM-84.989-75.362c.1.084 15.133 6.172 21.6 11.597l-1.286 1.532c-6.254-5.247-20.88-11.16-20.833-10.954-10.087-3.76-15.758-6.695-23.897-13.525-8.092-6.789-11.35-11.192-15.938-19.9-4.954-9.09-8.069-13.297-15.937-19.9l1.286-1.532c8.09 6.79 11.35 11.192 15.937 19.9 4.955 9.09 8.069 13.298 15.937 19.9 7.931 6.655 13.399 9.484 23.131 12.882zM68.221 53.196c.098.083 15.132 6.171 21.598 11.597l-1.285 1.532C82.28 61.077 67.653 55.165 67.7 55.37c-10.088-3.761-15.758-6.695-23.898-13.525-8.09-6.79-11.349-11.192-15.937-19.9-4.954-9.09-8.069-13.298-15.937-19.9L13.215.514c8.09 6.79 11.35 11.192 15.937 19.9 4.955 9.09 8.069 13.297 15.937 19.9 7.93 6.654 13.399 9.484 23.131 12.882zM-85.246-37.72c-6.253-5.248-20.88-11.16-20.833-10.954-10.087-3.762-15.757-6.695-23.897-13.525-8.09-6.79-11.349-11.192-15.937-19.9-4.954-9.09-8.069-13.298-15.937-19.9-6.254-5.248-20.88-11.16-20.833-10.954-10.087-3.761-15.757-6.695-23.897-13.525-8.091-6.79-11.35-11.192-15.937-19.9-4.955-9.09-8.07-13.298-15.937-19.9l1.285-1.532c8.091 6.79 11.35 11.192 15.937 19.9 4.955 9.09 8.07 13.298 15.937 19.9 7.931 6.655 13.4 9.484 23.132 12.882.099.083 15.133 6.171 21.599 11.597 8.09 6.789 11.349 11.192 15.937 19.9 4.954 9.09 8.069 13.297 15.937 19.9 7.93 6.654 13.399 9.483 23.131 12.882.1.083 15.133 6.171 21.599 11.596 8.091 6.79 11.35 11.192 15.937 19.9 4.955 9.09 8.07 13.298 15.937 19.9 7.931 6.655 13.4 9.484 23.131 12.883.1.083 15.134 6.17 21.6 11.596L-8.64 26.56c-6.254-5.247-20.88-11.16-20.833-10.954C-39.56 11.845-45.23 8.911-53.37 2.08c-8.091-6.789-11.35-11.192-15.937-19.9-4.955-9.09-8.07-13.297-15.938-19.9zm-117.487-52.895c.1.084 15.134 6.172 21.6 11.597l-1.286 1.532c-6.254-5.247-20.88-11.16-20.833-10.954-10.087-3.76-15.757-6.695-23.897-13.525-8.091-6.789-11.35-11.192-15.937-19.9-4.955-9.09-8.07-13.297-15.938-19.9l1.286-1.532c8.091 6.79 11.35 11.192 15.937 19.9 4.955 9.09 8.07 13.298 15.937 19.9 7.931 6.655 13.4 9.484 23.131 12.882zm87.92 88.133c8.09 6.789 11.349 11.192 15.936 19.9 4.955 9.09 8.07 13.297 15.938 19.9 7.93 6.654 13.398 9.483 23.13 12.882.1.083 15.134 6.17 21.6 11.596l-1.286 1.532c-6.254-5.247-20.88-11.16-20.833-10.953-10.087-3.762-15.757-6.695-23.897-13.525-8.091-6.79-11.35-11.192-15.937-19.9-4.955-9.09-8.07-13.298-15.937-19.9-6.254-5.248-20.88-11.16-20.833-10.954-10.087-3.761-15.758-6.695-23.897-13.525-8.092-6.79-11.35-11.192-15.938-19.9-4.954-9.09-8.069-13.298-15.937-19.9l1.286-1.532c8.09 6.79 11.35 11.192 15.937 19.9 4.955 9.09 8.069 13.298 15.937 19.9 7.931 6.654 13.399 9.484 23.131 12.882.1.083 15.133 6.171 21.6 11.597zM26.825 139.865c-6.254-5.247-20.88-11.16-20.833-10.954-10.087-3.761-15.757-6.695-23.897-13.525-8.091-6.79-11.35-11.192-15.937-19.9-4.955-9.09-8.07-13.298-15.938-19.9-6.253-5.247-20.88-11.16-20.832-10.954-10.088-3.76-15.758-6.695-23.898-13.525-8.09-6.789-11.349-11.192-15.937-19.9-4.954-9.09-8.069-13.297-15.937-19.9l1.286-1.532c8.09 6.79 11.349 11.192 15.937 19.9 4.954 9.09 8.069 13.298 15.937 19.9 7.93 6.655 13.399 9.484 23.131 12.882.1.084 15.133 6.172 21.6 11.597 8.09 6.79 11.348 11.192 15.936 19.9 4.955 9.09 8.07 13.298 15.937 19.9 7.931 6.655 13.4 9.484 23.132 12.882.099.083 15.133 6.171 21.599 11.597 8.09 6.79 11.349 11.192 15.937 19.9 4.954 9.09 8.069 13.298 15.937 19.9 7.93 6.654 13.399 9.484 23.131 12.882.1.083 15.133 6.171 21.599 11.597l-1.286 1.532c-6.253-5.248-20.88-11.16-20.833-10.954-10.087-3.761-15.757-6.695-23.897-13.525-8.09-6.79-11.35-11.192-15.937-19.9-4.955-9.09-8.069-13.298-15.937-19.9zM-70.348 100.1c-6.253-5.248-20.88-11.16-20.833-10.954-10.087-3.761-15.757-6.695-23.897-13.525-8.09-6.79-11.35-11.192-15.937-19.9-4.955-9.09-8.069-13.298-15.937-19.9-6.254-5.248-20.88-11.16-20.833-10.954-10.087-3.761-15.757-6.695-23.897-13.525-8.091-6.79-11.35-11.192-15.937-19.9-4.955-9.09-8.07-13.298-15.938-19.9l1.286-1.532c8.091 6.79 11.35 11.192 15.937 19.9 4.955 9.09 8.07 13.298 15.937 19.9 7.931 6.655 13.4 9.484 23.131 12.882.1.083 15.134 6.171 21.6 11.597 8.09 6.789 11.349 11.192 15.937 19.9 4.954 9.09 8.069 13.297 15.937 19.9 7.93 6.654 13.399 9.483 23.13 12.882.1.083 15.134 6.171 21.6 11.597 8.091 6.789 11.35 11.191 15.937 19.9 4.955 9.089 8.07 13.297 15.937 19.9 7.931 6.654 13.4 9.483 23.131 12.882.1.083 15.134 6.17 21.6 11.596l-1.286 1.532c-6.254-5.247-20.88-11.16-20.833-10.954-10.087-3.76-15.757-6.694-23.897-13.525-8.091-6.789-11.35-11.191-15.938-19.9-4.954-9.09-8.069-13.297-15.937-19.9zm66.32 76.535c-6.253-5.247-20.88-11.16-20.833-10.954-10.087-3.761-15.757-6.695-23.897-13.525-8.091-6.79-11.35-11.192-15.937-19.9-4.955-9.09-8.07-13.298-15.937-19.9-6.254-5.247-20.88-11.16-20.833-10.954-10.087-3.76-15.758-6.694-23.897-13.525-8.092-6.789-11.35-11.192-15.938-19.9-4.954-9.09-8.069-13.297-15.937-19.9-6.253-5.247-20.88-11.16-20.833-10.953-10.087-3.762-15.757-6.695-23.897-13.525-8.091-6.79-11.35-11.192-15.937-19.9-4.955-9.09-8.07-13.298-15.937-19.9-6.254-5.248-20.88-11.16-20.833-10.954-10.087-3.761-15.757-6.695-23.897-13.525-8.091-6.79-11.35-11.192-15.937-19.9-4.955-9.09-8.07-13.298-15.938-19.9l1.286-1.532c8.091 6.79 11.35 11.192 15.937 19.9 4.955 9.09 8.07 13.298 15.937 19.9 7.931 6.655 13.4 9.484 23.131 12.882.1.083 15.134 6.171 21.6 11.597 8.09 6.789 11.349 11.192 15.937 19.9 4.954 9.09 8.069 13.297 15.937 19.9 7.93 6.654 13.399 9.483 23.13 12.882.1.083 15.134 6.171 21.6 11.596 8.09 6.79 11.35 11.192 15.937 19.9 4.955 9.09 8.069 13.298 15.937 19.9 7.931 6.655 13.399 9.484 23.131 12.883.1.083 15.133 6.17 21.6 11.596 8.09 6.79 11.349 11.192 15.936 19.9 4.955 9.09 8.07 13.298 15.938 19.9 7.93 6.655 13.398 9.484 23.13 12.882.1.084 15.134 6.172 21.6 11.597 8.09 6.79 11.35 11.192 15.937 19.9 4.955 9.09 8.069 13.298 15.937 19.9 7.931 6.655 13.399 9.484 23.131 12.882.1.083 15.133 6.171 21.6 11.597l-1.286 1.532c-6.254-5.248-20.881-11.16-20.833-10.954-10.087-3.761-15.758-6.695-23.898-13.525-8.09-6.79-11.349-11.192-15.937-19.9-4.954-9.09-8.069-13.298-15.937-19.9zM-264.439-17.073c.099.083 15.133 6.171 21.599 11.596l-1.286 1.532c-6.253-5.247-20.88-11.16-20.833-10.953-10.087-3.762-15.757-6.695-23.897-13.525-8.091-6.79-11.35-11.192-15.937-19.9-4.955-9.09-8.07-13.298-15.937-19.9l1.285-1.532c8.091 6.789 11.35 11.192 15.938 19.9 4.954 9.09 8.069 13.297 15.937 19.9 7.93 6.654 13.399 9.483 23.13 12.882zm163.237 153.943c-6.253-5.248-20.88-11.16-20.832-10.954-10.088-3.761-15.758-6.695-23.898-13.525-8.09-6.79-11.349-11.192-15.937-19.9-4.954-9.09-8.069-13.298-15.937-19.9-6.254-5.247-20.88-11.16-20.833-10.954-10.087-3.761-15.757-6.695-23.897-13.525-8.091-6.79-11.35-11.192-15.937-19.9-4.955-9.09-8.07-13.298-15.937-19.9-6.254-5.247-20.881-11.16-20.833-10.954-10.087-3.76-15.758-6.695-23.897-13.525-8.092-6.789-11.35-11.192-15.938-19.9-4.954-9.09-8.069-13.297-15.937-19.9-6.253-5.247-20.88-11.16-20.833-10.953-10.087-3.762-15.757-6.695-23.897-13.525-8.091-6.79-11.35-11.192-15.937-19.9-4.955-9.09-8.07-13.298-15.937-19.9l1.285-1.532c8.091 6.789 11.35 11.191 15.937 19.9 4.955 9.09 8.07 13.297 15.938 19.9 7.93 6.654 13.399 9.483 23.13 12.882.1.083 15.134 6.17 21.6 11.596 8.09 6.79 11.35 11.192 15.937 19.9 4.955 9.09 8.069 13.298 15.937 19.9 7.931 6.655 13.399 9.484 23.131 12.882.1.084 15.133 6.172 21.6 11.597 8.09 6.79 11.349 11.192 15.936 19.9 4.955 9.09 8.07 13.298 15.938 19.9 7.93 6.655 13.398 9.484 23.13 12.882.1.083 15.134 6.171 21.6 11.597 8.09 6.79 11.349 11.192 15.937 19.9 4.954 9.09 8.069 13.298 15.937 19.9 7.93 6.655 13.399 9.484 23.131 12.882.1.083 15.133 6.171 21.6 11.597 8.09 6.789 11.348 11.192 15.936 19.9 4.955 9.09 8.07 13.297 15.937 19.9 7.931 6.654 13.4 9.483 23.132 12.882.099.083 15.133 6.17 21.599 11.596l-1.286 1.532c-6.254-5.247-20.88-11.16-20.833-10.953-10.087-3.762-15.757-6.695-23.897-13.525-8.091-6.79-11.35-11.192-15.937-19.9-4.955-9.09-8.07-13.298-15.938-19.9zm-117.487-52.894c.1.083 15.134 6.17 21.6 11.596l-1.286 1.532c-6.254-5.247-20.88-11.16-20.833-10.954-10.087-3.76-15.757-6.694-23.897-13.525-8.091-6.789-11.35-11.191-15.937-19.9-4.955-9.089-8.07-13.297-15.938-19.9l1.286-1.531c8.091 6.789 11.35 11.191 15.937 19.9 4.955 9.089 8.07 13.297 15.937 19.9 7.931 6.654 13.4 9.483 23.131 12.882zm-30.853 36.77c.099.083 15.133 6.171 21.599 11.596l-1.286 1.533c-6.254-5.248-20.88-11.16-20.833-10.954-10.087-3.762-15.757-6.695-23.897-13.525-8.091-6.79-11.35-11.192-15.937-19.9-4.955-9.09-8.07-13.298-15.937-19.9l1.285-1.532c8.091 6.789 11.35 11.192 15.937 19.9 4.955 9.09 8.07 13.297 15.938 19.9 7.93 6.654 13.398 9.483 23.13 12.882zm87.918 88.132c8.092 6.79 11.35 11.192 15.938 19.9 4.954 9.09 8.069 13.298 15.937 19.9 7.93 6.655 13.399 9.484 23.13 12.882.1.083 15.134 6.171 21.6 11.597l-1.286 1.532c-6.253-5.248-20.88-11.16-20.833-10.954-10.087-3.761-15.757-6.695-23.897-13.525-8.09-6.79-11.35-11.192-15.937-19.9-4.955-9.09-8.069-13.298-15.937-19.9-6.254-5.247-20.88-11.16-20.833-10.954-10.087-3.761-15.757-6.695-23.897-13.525-8.091-6.79-11.35-11.192-15.937-19.9-4.955-9.09-8.07-13.298-15.938-19.9l1.286-1.532c8.091 6.79 11.35 11.192 15.937 19.9 4.955 9.09 8.07 13.298 15.937 19.9 7.931 6.655 13.4 9.484 23.131 12.882.1.083 15.134 6.171 21.6 11.597zm-11.57 13.789c-6.253-5.248-20.88-11.16-20.833-10.954-10.087-3.761-15.757-6.695-23.897-13.525-8.09-6.79-11.35-11.192-15.937-19.9-4.955-9.09-8.069-13.298-15.937-19.9-6.254-5.247-20.88-11.16-20.833-10.954-10.087-3.761-15.757-6.695-23.897-13.525-8.091-6.79-11.35-11.192-15.937-19.9-4.955-9.09-8.07-13.298-15.938-19.9-6.253-5.247-20.88-11.16-20.833-10.954-10.087-3.76-15.757-6.695-23.897-13.525-8.09-6.789-11.35-11.192-15.937-19.9-4.955-9.09-8.069-13.297-15.937-19.9l1.286-1.532c8.09 6.79 11.349 11.192 15.937 19.9 4.954 9.09 8.069 13.298 15.937 19.9 7.93 6.655 13.399 9.484 23.131 12.882.1.084 15.133 6.172 21.599 11.597 8.091 6.79 11.35 11.192 15.937 19.9 4.955 9.09 8.07 13.298 15.937 19.9 7.931 6.655 13.4 9.484 23.131 12.882.1.083 15.134 6.171 21.6 11.597 8.09 6.79 11.349 11.192 15.937 19.9 4.954 9.09 8.069 13.298 15.937 19.9 7.93 6.655 13.399 9.484 23.13 12.882.1.083 15.134 6.171 21.6 11.597 8.091 6.789 11.35 11.192 15.937 19.9 4.955 9.09 8.069 13.297 15.937 19.9 7.931 6.654 13.4 9.483 23.131 12.882.1.083 15.133 6.17 21.6 11.596 8.09 6.79 11.349 11.192 15.936 19.9 4.955 9.09 8.07 13.298 15.938 19.9 7.93 6.655 13.399 9.484 23.13 12.882.1.084 15.134 6.172 21.6 11.597l-1.286 1.532c-6.253-5.247-20.88-11.16-20.833-10.954-10.087-3.76-15.757-6.695-23.897-13.525-8.091-6.789-11.35-11.192-15.937-19.9-4.955-9.09-8.07-13.297-15.937-19.9-6.254-5.247-20.88-11.16-20.833-10.953-10.087-3.762-15.758-6.695-23.897-13.525-8.091-6.79-11.35-11.192-15.938-19.9-4.954-9.09-8.069-13.298-15.937-19.9zm-30.598-.872c.1.083 15.133 6.17 21.6 11.596l-1.286 1.532c-6.254-5.247-20.88-11.16-20.833-10.953-10.087-3.762-15.758-6.695-23.897-13.526-8.092-6.789-11.35-11.191-15.938-19.9-4.954-9.089-8.069-13.297-15.937-19.9l1.286-1.531c8.09 6.789 11.35 11.191 15.937 19.9 4.955 9.09 8.069 13.297 15.937 19.9 7.931 6.654 13.399 9.483 23.131 12.882zm153.21 128.557c.098.083 15.132 6.171 21.598 11.597l-1.285 1.532c-6.254-5.247-20.881-11.16-20.833-10.954-10.087-3.761-15.758-6.695-23.898-13.525-8.09-6.79-11.349-11.192-15.937-19.9-4.954-9.09-8.069-13.298-15.937-19.9l1.286-1.532c8.09 6.79 11.35 11.192 15.937 19.9 4.955 9.09 8.069 13.298 15.937 19.9 7.93 6.655 13.399 9.484 23.131 12.882zm-141.895-104.704c8.09 6.79 11.35 11.192 15.937 19.9 4.954 9.09 8.069 13.298 15.937 19.9 7.93 6.655 13.399 9.484 23.131 12.882.1.083 15.133 6.171 21.6 11.597l-1.286 1.532c-6.254-5.248-20.881-11.16-20.833-10.954-10.088-3.761-15.758-6.695-23.898-13.525-8.09-6.79-11.349-11.192-15.937-19.9-4.954-9.09-8.069-13.298-15.937-19.9-6.254-5.247-20.88-11.16-20.833-10.954-10.087-3.761-15.757-6.695-23.897-13.525-8.091-6.79-11.35-11.192-15.937-19.9-4.955-9.09-8.07-13.297-15.937-19.9l1.285-1.532c8.091 6.79 11.35 11.192 15.937 19.9 4.955 9.09 8.07 13.298 15.938 19.9 7.93 6.655 13.398 9.484 23.13 12.882.1.084 15.134 6.172 21.6 11.597z"/>
</svg>
